<?xml version="1.0" encoding="UTF-8"?>
<!DOCTYPE svg PUBLIC "-//W3C//DTD SVG 1.1//EN" "http://www.w3.org/Graphics/SVG/1.1/DTD/svg11.dtd">
<svg version="1.2" xmlns="http://www.w3.org/2000/svg" xmlns:xlink="http://www.w3.org/1999/xlink" x="0" y="0" width="419" height="235" viewBox="0 0 419 235">
<style type="text/css"><![CDATA[
text { font:12px Dialog; }
]]></style>
<rect x="-485" y="-485" width="1389" height="1205" style="fill:rgb(255,255,255);stroke:none" />
<clipPath id="clip1"><path d="M15,15 L404,15 L404,220 L15,220 Z M24,89 C19.5817184,89 16,92.5817184 16,97 L16,137 C16,141.4182739 19.5817184,145 24,145 L141,145 C145.4182739,145 149,141.4182739 149,137 L149,97 C149,92.5817184 145.4182739,89 141,89 Z M24,89" /></clipPath>
<path d="M113.8249969,89 C126.7527771,54.3333321 146.1444397,37 172,37" style="fill:none;stroke:rgb(127,127,127)" clip-path="url(#clip1)" />
<clipPath id="clip2"><path d="M15,15 L404,15 L404,220 L15,220 Z M24,89 C19.5817184,89 16,92.5817184 16,97 L16,137 C16,141.4182739 19.5817184,145 24,145 L141,145 C145.4182739,145 149,141.4182739 149,137 L149,97 C149,92.5817184 145.4182739,89 141,89 Z M24,89" /></clipPath>
<path d="M149,118.0270233 C163,118.6756744 184,119 212,119" style="fill:none;stroke:rgb(127,127,127)" clip-path="url(#clip2)" />
<clipPath id="clip3"><path d="M15,15 L404,15 L404,220 L15,220 Z M24,89 C19.5817184,89 16,92.5817184 16,97 L16,137 C16,141.4182739 19.5817184,145 24,145 L141,145 C145.4182739,145 149,141.4182739 149,137 L149,97 C149,92.5817184 145.4182739,89 141,89 Z M24,89" /></clipPath>
<path d="M112.3333359,145 C125.5925903,182.3333435 145.4814758,201 172,201" style="fill:none;stroke:rgb(127,127,127)" clip-path="url(#clip3)" />
<clipPath id="clip4"><path d="M14,87 L152,87 L152,148 L14,148 L14,87 Z" /></clipPath>
<path d="M24,89 C19.5817184,89 16,92.5817184 16,97 L16,137 C16,141.4182739 19.5817184,145 24,145 L141,145 C145.4182739,145 149,141.4182739 149,137 L149,97 C149,92.5817184 145.4182739,89 141,89 Z M24,89" style="fill:rgb(202,221,254);stroke:none" clip-path="url(#clip4)" />
<clipPath id="clip5"><path d="M14,87 L152,87 L152,148 L14,148 L14,87 Z" /></clipPath>
<path d="M24,89 C19.5817184,89 16,92.5817184 16,97 L16,137 C16,141.4182739 19.5817184,145 24,145 L141,145 C145.4182739,145 149,141.4182739 149,137 L149,97 C149,92.5817184 145.4182739,89 141,89 Z M24,89" style="fill:none;stroke:rgb(61,83,127)" clip-path="url(#clip5)" />
<clipPath id="clip6"><path d="M46,103 L120,103 L120,132 L46,132 L46,103 Z" /></clipPath>
<path d="M50.6166992,108.9130859 L54.6157227,108.9130859 C56.4379959,108.9130859 57.7607384,109.1723633 58.5839844,109.690918 C59.4072304,110.2094727 59.8188477,111.0341721 59.8188477,112.1650391 C59.8188477,112.9326172 59.6386719,113.5625 59.2783203,114.0546875 C58.9179688,114.546875 58.4389687,114.8427734 57.8413086,114.9423828 L57.8413086,115.0302734 C58.6557655,115.2119141 59.2431641,115.5517578 59.6035156,116.0498047 C59.9638672,116.5478516 60.144043,117.2099533 60.144043,118.0361328 C60.144043,119.2080154 59.7207069,120.1220703 58.8740234,120.7783203 C58.0273399,121.4345703 56.877449,121.7626953 55.4243164,121.7626953 L50.6166992,121.7626953 Z M53.3413086,114.0019531 L54.9233398,114.0019531 C55.6616249,114.0019531 56.1962891,113.8876953 56.5273438,113.6591797 C56.8583984,113.4306641 57.0239258,113.0527344 57.0239258,112.5253906 C57.0239258,112.0332031 56.84375,111.6801758 56.4833984,111.4663086 C56.1230469,111.2524414 55.5532265,111.1455078 54.7739258,111.1455078 L53.3413086,111.1455078 Z M53.3413086,116.1640625 L53.3413086,119.5126953 L55.1166992,119.5126953 C55.866703,119.5126953 56.4204102,119.3691406 56.777832,119.0820313 C57.1352539,118.7949219 57.3139648,118.3554688 57.3139648,117.7636719 C57.3139648,116.697258 56.5522537,116.1640625 55.0288086,116.1640625 Z M68.7397461,121.7626953 L68.2211914,120.4267578 L68.1508789,120.4267578 C67.699707,120.9951172 67.2353516,121.3891602 66.7578125,121.6088867 C66.2802734,121.8286133 65.6577148,121.9384766 64.8901367,121.9384766 C63.9467735,121.9384766 63.2041016,121.6689453 62.6621094,121.1298828 C62.1201172,120.5908203 61.8491211,119.8232498 61.8491211,118.8271484 C61.8491211,117.7841721 62.2138634,117.0151367 62.9433594,116.5200195 C63.6728554,116.0249023 64.7729416,115.7509766 66.2436523,115.6982422 L67.9487305,115.6455078 L67.9487305,115.2148438 C67.9487305,114.2187424 67.4389725,113.7207031 66.4194336,113.7207031 C65.6342773,113.7207031 64.7114334,113.9580078 63.6508789,114.4326172 L62.7631836,112.6220703 C63.8940506,112.0302734 65.1479416,111.734375 66.5249023,111.734375 C67.8432693,111.734375 68.8540039,112.0214844 69.5571289,112.5957031 C70.2602539,113.1699219 70.6118164,114.0429611 70.6118164,115.2148438 L70.6118164,121.7626953 Z M67.9487305,117.2099609 L66.9116211,117.2451172 C66.1323242,117.2685547 65.5522461,117.4091797 65.1713867,117.6669922 C64.7905273,117.9248047 64.6000977,118.3173828 64.6000977,118.8447266 C64.6000977,119.6005859 65.0336914,119.9785156 65.9008789,119.9785156 C66.5219727,119.9785156 67.0185547,119.7998047 67.390625,119.4423828 C67.7626953,119.0849609 67.9487305,118.6103516 67.9487305,118.0185547 Z M82.4418945,121.7626953 L79.7612305,121.7626953 L79.7612305,116.0234375 C79.7612305,115.3144531 79.6352539,114.7827148 79.3833008,114.4282227 C79.1313477,114.0737305 78.7299805,113.8964844 78.1791992,113.8964844 C77.4291992,113.8964844 76.887207,114.1469727 76.5532227,114.6479492 C76.2192383,115.1489258 76.0522461,115.9794846 76.0522461,117.1396484 L76.0522461,121.7626953 L73.371582,121.7626953 L73.371582,111.9365234 L75.4194336,111.9365234 L75.7797852,113.1933594 L75.9291992,113.1933594 C76.2280273,112.71875 76.6396484,112.3598633 77.1640625,112.1166992 C77.6884766,111.8735352 78.284668,111.7519531 78.9526367,111.7519531 C80.0952225,111.7519531 80.9624023,112.0610352 81.5541992,112.6791992 C82.1459961,113.2973633 82.4418945,114.1894455 82.4418945,115.3554688 Z M83.7954102,111.9365234 L86.730957,111.9365234 L88.5854492,117.4648438 C88.7436523,117.9453125 88.8520508,118.5136719 88.9106445,119.1699219 L88.9633789,119.1699219 C89.027832,118.5664063 89.1538086,117.9980469 89.3413086,117.4648438 L91.1606445,111.9365234 L94.034668,111.9365234 L89.8774414,123.0195313 C89.496582,124.0449295 88.953125,124.8125 88.2470703,125.3222656 C87.5410156,125.8320313 86.7163162,126.0869141 85.7729492,126.0869141 C85.3100586,126.0869141 84.855957,126.0371094 84.4106445,125.9375 L84.4106445,123.8105469 C84.7329102,123.8867188 85.0844727,123.9248047 85.465332,123.9248047 C85.9399414,123.9248047 86.3544922,123.7797852 86.7089844,123.4897461 C87.0634766,123.199707 87.340332,122.7617188 87.5395508,122.1757813 L87.6977539,121.6923828 Z M101.6811523,121.7626953 L101.1625977,120.4267578 L101.0922852,120.4267578 C100.6411133,120.9951172 100.1767578,121.3891602 99.6992188,121.6088867 C99.2216797,121.8286133 98.5991211,121.9384766 97.831543,121.9384766 C96.888176,121.9384766 96.1455078,121.6689453 95.6035156,121.1298828 C95.0615234,120.5908203 94.7905273,119.8232498 94.7905273,118.8271484 C94.7905273,117.7841721 95.1552734,117.0151367 95.8847656,116.5200195 C96.6142578,116.0249023 97.7143478,115.7509766 99.1850586,115.6982422 L100.8901367,115.6455078 L100.8901367,115.2148438 C100.8901367,114.2187424 100.3803787,113.7207031 99.3608398,113.7207031 C98.5756836,113.7207031 97.6528397,113.9580078 96.5922852,114.4326172 L95.7045898,112.6220703 C96.8354568,112.0302734 98.0893478,111.734375 99.4663086,111.734375 C100.7846756,111.734375 101.7954102,112.0214844 102.4985352,112.5957031 C103.2016602,113.1699219 103.5532227,114.0429611 103.5532227,115.2148438 L103.5532227,121.7626953 Z M100.8901367,117.2099609 L99.8530273,117.2451172 C99.0737305,117.2685547 98.4936523,117.4091797 98.112793,117.6669922 C97.7319336,117.9248047 97.5415039,118.3173828 97.5415039,118.8447266 C97.5415039,119.6005859 97.97509,119.9785156 98.8422852,119.9785156 C99.4633789,119.9785156 99.9599609,119.7998047 100.3320313,119.4423828 C100.7041016,119.0849609 100.8901367,118.6103516 100.8901367,118.0185547 Z M115.3833008,121.7626953 L112.7026367,121.7626953 L112.7026367,116.0234375 C112.7026367,115.3144531 112.5766602,114.7827148 112.324707,114.4282227 C112.0727539,114.0737305 111.6713867,113.8964844 111.1206055,113.8964844 C110.3706055,113.8964844 109.8286133,114.1469727 109.4946289,114.6479492 C109.1606445,115.1489258 108.9936523,115.9794846 108.9936523,117.1396484 L108.9936523,121.7626953 L106.3129883,121.7626953 L106.3129883,111.9365234 L108.3608398,111.9365234 L108.7211914,113.1933594 L108.8706055,113.1933594 C109.1694336,112.71875 109.5810547,112.3598633 110.1054688,112.1166992 C110.6298828,111.8735352 111.2260742,111.7519531 111.894043,111.7519531 C113.0366287,111.7519531 113.9038086,112.0610352 114.4956055,112.6791992 C115.0874023,113.2973633 115.3833008,114.1894455 115.3833008,115.3554688 Z M116.7368164,121.7626953" style="fill:rgb(76,76,76);stroke:none" clip-path="url(#clip6)" />
<clipPath id="clip7"><path d="M171,15 L369,15 L369,56 L171,56 Z M177,20 C174.2385712,20 172,22.2385712 172,25 L172,49 C172,51.7614288 174.2385712,54 177,54 L288,54 C290.7614136,54 293,51.7614288 293,49 L293,25 C293,22.2385712 290.7614136,20 288,20 Z M177,20" /></clipPath>
<path d="M306,37 C306,37 307.7919922,37 310,37 L315,37" style="fill:none;stroke:rgb(127,127,127)" clip-path="url(#clip7)" />
<clipPath id="clip8"><path d="M170,14 L370,14 L370,57 L170,57 L170,14 Z" /></clipPath>
<path d="M293,37 L306,37" style="fill:none;stroke:rgb(127,127,127)" clip-path="url(#clip8)" />
<clipPath id="clip9"><path d="M170,18 L296,18 L296,57 L170,57 L170,18 Z" /></clipPath>
<path d="M177,20 C174.2385712,20 172,22.2385712 172,25 L172,49 C172,51.7614288 174.2385712,54 177,54 L288,54 C290.7614136,54 293,51.7614288 293,49 L293,25 C293,22.2385712 290.7614136,20 288,20 Z M177,20" style="fill:rgb(254,244,236);stroke:none" clip-path="url(#clip9)" />
<clipPath id="clip10"><path d="M170,18 L296,18 L296,57 L170,57 L170,18 Z" /></clipPath>
<path d="M177,20 C174.2385712,20 172,22.2385712 172,25 L172,49 C172,51.7614288 174.2385712,54 177,54 L288,54 C290.7614136,54 293,51.7614288 293,49 L293,25 C293,22.2385712 290.7614136,20 288,20 Z M177,20" style="fill:none;stroke:rgb(141,134,126)" clip-path="url(#clip10)" />
<clipPath id="clip11"><path d="M183,26 L283,26 L283,49 L183,49 L183,26 Z" /></clipPath>
<path d="M192.251709,39.9057617 C192.251709,40.722496 191.9554901,41.359375 191.3630371,41.8164063 C190.7705841,42.2734375 189.9665527,42.5019531 188.9509277,42.5019531 C187.8506622,42.5019531 187.0043182,42.3601913 186.4118652,42.0766602 L186.4118652,41.0356445 C186.7927246,41.1964493 187.207428,41.3234024 187.6560059,41.4165039 C188.1045837,41.5096054 188.5489044,41.5561523 188.9890137,41.5561523 C189.7084198,41.5561523 190.2500763,41.4196777 190.6140137,41.1467285 C190.977951,40.8737793 191.1599121,40.4939804 191.1599121,40.0073242 C191.1599121,39.6857071 191.0953674,39.4222794 190.9663086,39.217041 C190.8372498,39.0118027 190.6214294,38.8224258 190.3188477,38.6489258 C190.0162659,38.4754257 189.556076,38.2786484 188.9382324,38.0585938 C188.0749512,37.7496719 187.4581757,37.3836288 187.0878906,36.9604492 C186.7176056,36.5372696 186.5324707,35.9850311 186.5324707,35.3037109 C186.5324707,34.5885391 186.801178,34.019371 187.338623,33.5961914 C187.8760681,33.1730118 188.5869904,32.9614258 189.4714355,32.9614258 C190.3939667,32.9614258 191.2424316,33.1306915 192.0168457,33.4692383 L191.6804199,34.4086914 C190.9144592,34.0870743 190.1696777,33.9262695 189.4460449,33.9262695 C188.8747559,33.9262695 188.4283142,34.0489883 188.1066895,34.2944336 C187.7850647,34.5398788 187.6242676,34.8805313 187.6242676,35.3164063 C187.6242676,35.6380234 187.6835022,35.9014511 187.802002,36.1066895 C187.9205017,36.3119278 188.1204376,36.5002441 188.4018555,36.6716309 C188.6832733,36.8430176 189.1138458,37.0323868 189.6936035,37.2397461 C190.6669159,37.5867538 191.3365784,37.9591446 191.7026367,38.3569336 C192.0686951,38.7547226 192.251709,39.2709961 192.251709,39.9057617 Z M198.6169434,42.375 L198.6169434,37.8745117 C198.6169434,37.3074493 198.4878845,36.8842773 198.2297363,36.6049805 C197.9715881,36.3256836 197.5674744,36.1860352 197.017334,36.1860352 C196.2852325,36.1860352 195.7509766,36.3849258 195.4145508,36.7827148 C195.078125,37.1805038 194.9099121,37.8321915 194.9099121,38.737793 L194.9099121,42.375 L193.8562012,42.375 L193.8562012,32.4980469 L194.9099121,32.4980469 L194.9099121,35.487793 C194.9099121,35.847496 194.8929749,36.1458359 194.8591309,36.3828125 L194.9226074,36.3828125 C195.1299744,36.0485001 195.4251251,35.7850723 195.8081055,35.5925293 C196.1910858,35.3999863 196.628006,35.3037109 197.1188965,35.3037109 C197.9694824,35.3037109 198.6074219,35.5057755 199.0327148,35.9099121 C199.4580078,36.3140488 199.6706543,36.9562149 199.6706543,37.8364258 L199.6706543,42.375 Z M204.795166,42.5019531 C203.7668457,42.5019531 202.9554138,42.1888046 202.3608398,41.5625 C201.7662659,40.9361954 201.4689941,40.0665741 201.4689941,38.9536133 C201.4689941,37.8321915 201.7451172,36.9414063 202.2973633,36.28125 C202.8496094,35.6210938 203.591217,35.2910156 204.5222168,35.2910156 C205.3939667,35.2910156 206.0837402,35.577713 206.5915527,36.151123 C207.0993652,36.7245331 207.3532715,37.4809494 207.3532715,38.4204102 L207.3532715,39.0869141 L202.560791,39.0869141 C202.5819397,39.9036484 202.7882385,40.5235977 203.1796875,40.9467773 C203.5711365,41.369957 204.1223145,41.581543 204.833252,41.581543 C205.5822754,41.581543 206.3228302,41.4249725 207.0549316,41.1118164 L207.0549316,42.0512695 C206.6825256,42.2120743 206.330246,42.3273926 205.9980469,42.3972168 C205.6658478,42.467041 205.2648926,42.5019531 204.795166,42.5019531 Z M204.5095215,36.1733398 C203.9509277,36.1733398 203.5055389,36.3553009 203.1733398,36.7192383 C202.8411407,37.0831757 202.6454163,37.5867462 202.5861816,38.2299805 L206.2233887,38.2299805 C206.2233887,37.5655899 206.0752869,37.0567245 205.7790527,36.7033691 C205.4828186,36.3500137 205.0596619,36.1733398 204.5095215,36.1733398 Z M209.9099121,42.375 L208.8562012,42.375 L208.8562012,32.4980469 L209.9099121,32.4980469 Z M212.9099121,42.375 L211.8562012,42.375 L211.8562012,32.4980469 L212.9099121,32.4980469 Z M221.9885254,33.9262695 C220.9686584,33.9262695 220.1635742,34.2658691 219.5732422,34.9450684 C218.9829102,35.6242676 218.6877441,36.5541916 218.6877441,37.7348633 C218.6877441,38.9493866 218.9723206,39.8877716 219.5415039,40.5500488 C220.1106873,41.212326 220.9221191,41.543457 221.9758301,41.543457 C222.623291,41.543457 223.3617249,41.4270859 224.1911621,41.1943359 L224.1911621,42.1401367 C223.5479279,42.3813477 222.7544861,42.5019531 221.810791,42.5019531 C220.443924,42.5019531 219.3891602,42.0872421 218.6464844,41.2578125 C217.9038086,40.4283829 217.5324707,39.2498474 217.5324707,37.722168 C217.5324707,36.7657852 217.7112579,35.9279022 218.0688477,35.2084961 C218.4264374,34.48909 218.9427032,33.9347382 219.6176758,33.5454102 C220.2926483,33.1560822 221.0871582,32.9614258 222.0012207,32.9614258 C222.9745331,32.9614258 223.8251038,33.1391602 224.5529785,33.4946289 L224.0959473,34.4213867 C223.3934631,34.0913086 222.6910095,33.9262695 221.9885254,33.9262695 Z M231.861084,38.8901367 C231.861084,40.0242538 231.5754395,40.9097443 231.0041504,41.5466309 C230.4328613,42.1835175 229.6436462,42.5019531 228.6364746,42.5019531 C228.0144043,42.5019531 227.4621582,42.355957 226.9797363,42.0639648 C226.4973145,41.7719727 226.1249237,41.3530273 225.8625488,40.8071289 C225.600174,40.2612305 225.4689941,39.6222382 225.4689941,38.8901367 C225.4689941,37.7560196 225.7525177,36.8726425 226.3195801,36.2399902 C226.8866425,35.607338 227.6737366,35.2910156 228.6809082,35.2910156 C229.6542206,35.2910156 230.4275665,35.6147461 231.0009766,36.262207 C231.5743866,36.909668 231.861084,37.7856369 231.861084,38.8901367 Z M226.560791,38.8901367 C226.560791,39.7788162 226.7385254,40.4558868 227.0939941,40.9213867 C227.4494629,41.3868866 227.9720764,41.6196289 228.6618652,41.6196289 C229.3516541,41.6196289 229.8753204,41.3879395 230.2329102,40.9245605 C230.5904999,40.4611816 230.7692871,39.7830429 230.7692871,38.8901367 C230.7692871,38.0056915 230.5904999,37.3339081 230.2329102,36.8747559 C229.8753204,36.4156036 229.3474121,36.1860352 228.6491699,36.1860352 C227.9593811,36.1860352 227.4388885,36.4124298 227.0876465,36.8652344 C226.7364044,37.3180389 226.560791,37.9929962 226.560791,38.8901367 Z M242.723877,42.375 L242.723877,37.8491211 C242.723877,37.294754 242.6053925,36.8789902 242.3684082,36.6018066 C242.131424,36.3246231 241.7632599,36.1860352 241.263916,36.1860352 C240.6079865,36.1860352 240.1234589,36.3743439 239.8103027,36.7509766 C239.4971466,37.1276093 239.3405762,37.7073517 239.3405762,38.4902344 L239.3405762,42.375 L238.2868652,42.375 L238.2868652,37.8491211 C238.2868652,37.294754 238.1683807,36.8789902 237.9313965,36.6018066 C237.6944122,36.3246231 237.3241425,36.1860352 236.8205566,36.1860352 C236.1604004,36.1860352 235.6769257,36.3838654 235.3701172,36.779541 C235.0633087,37.1752167 234.9099121,37.8237228 234.9099121,38.7250977 L234.9099121,42.375 L233.8562012,42.375 L233.8562012,35.4179688 L234.7131348,35.4179688 L234.8845215,36.3701172 L234.9353027,36.3701172 C235.134201,36.0315704 235.4145508,35.7670898 235.7763672,35.5766602 C236.1381836,35.3862305 236.5433807,35.2910156 236.9919434,35.2910156 C238.0795135,35.2910156 238.790451,35.6845627 239.1247559,36.4716797 L239.1755371,36.4716797 C239.3828888,36.1077423 239.6833496,35.8199844 240.0769043,35.6083984 C240.470459,35.3968124 240.9190216,35.2910156 241.4226074,35.2910156 C242.2097168,35.2910156 242.798996,35.4930801 243.1904297,35.8972168 C243.5818634,36.3013535 243.7775879,36.9477463 243.7775879,37.8364258 L243.7775879,42.375 Z M254.723877,42.375 L254.723877,37.8491211 C254.723877,37.294754 254.6053925,36.8789902 254.3684082,36.6018066 C254.131424,36.3246231 253.7632599,36.1860352 253.263916,36.1860352 C252.6079865,36.1860352 252.1234589,36.3743439 251.8103027,36.7509766 C251.4971466,37.1276093 251.3405762,37.7073517 251.3405762,38.4902344 L251.3405762,42.375 L250.2868652,42.375 L250.2868652,37.8491211 C250.2868652,37.294754 250.1683807,36.8789902 249.9313965,36.6018066 C249.6944122,36.3246231 249.3241425,36.1860352 248.8205566,36.1860352 C248.1604004,36.1860352 247.6769257,36.3838654 247.3701172,36.779541 C247.0633087,37.1752167 246.9099121,37.8237228 246.9099121,38.7250977 L246.9099121,42.375 L245.8562012,42.375 L245.8562012,35.4179688 L246.7131348,35.4179688 L246.8845215,36.3701172 L246.9353027,36.3701172 C247.134201,36.0315704 247.4145508,35.7670898 247.7763672,35.5766602 C248.1381836,35.3862305 248.5433807,35.2910156 248.9919434,35.2910156 C250.0795135,35.2910156 250.790451,35.6845627 251.1247559,36.4716797 L251.1755371,36.4716797 C251.3828888,36.1077423 251.6833496,35.8199844 252.0769043,35.6083984 C252.470459,35.3968124 252.9190216,35.2910156 253.4226074,35.2910156 C254.2097168,35.2910156 254.798996,35.4930801 255.1904297,35.8972168 C255.5818634,36.3013535 255.7775879,36.9477463 255.7775879,37.8364258 L255.7775879,42.375 Z M262.1345215,42.375 L261.9250488,41.3847656 L261.8742676,41.3847656 C261.5272827,41.8206406 261.1813354,42.1158066 260.8364258,42.2702637 C260.4915161,42.4247208 260.0609741,42.5019531 259.5446777,42.5019531 C258.8548889,42.5019531 258.31427,42.3242188 257.9228516,41.96875 C257.5314331,41.6132813 257.3356934,41.1075897 257.3356934,40.4516602 C257.3356934,39.0467072 258.4592285,38.3103867 260.7062988,38.2426758 L261.8869629,38.2045898 L261.8869629,37.7729492 C261.8869629,37.2270508 261.7695313,36.8239746 261.534668,36.5637207 C261.2998047,36.3034668 260.9242554,36.1733398 260.407959,36.1733398 C259.828186,36.1733398 259.1723022,36.3510742 258.4401855,36.706543 L258.1164551,35.9003906 C258.4592285,35.7141953 258.8347778,35.5681992 259.2431641,35.4624023 C259.6515503,35.3566055 260.0609741,35.3037109 260.4714355,35.3037109 C261.3008728,35.3037109 261.9155273,35.487793 262.3154297,35.855957 C262.715332,36.2241211 262.9152832,36.8144455 262.9152832,37.6269531 L262.9152832,42.375 Z M259.7541504,41.6323242 C260.4100952,41.6323242 260.925293,41.4524765 261.2998047,41.0927734 C261.6743164,40.7330704 261.8615723,40.2294922 261.8615723,39.5820313 L261.8615723,38.9536133 L260.8078613,38.9980469 C259.9699707,39.0276718 259.3659058,39.1577988 258.9956055,39.3884277 C258.6253052,39.6190567 258.4401855,39.9776993 258.4401855,40.4643555 C258.4401855,40.8452148 258.555481,41.1350937 258.7861328,41.3339844 C259.0167847,41.5328751 259.3394165,41.6323242 259.7541504,41.6323242 Z M269.6169434,42.375 L269.6169434,37.8745117 C269.6169434,37.3074493 269.487854,36.8842773 269.2297363,36.6049805 C268.9716187,36.3256836 268.5674744,36.1860352 268.017334,36.1860352 C267.2894592,36.1860352 266.7562866,36.3828125 266.4177246,36.7763672 C266.0791626,37.1699219 265.9099121,37.8194962 265.9099121,38.7250977 L265.9099121,42.375 L264.8562012,42.375 L264.8562012,35.4179688 L265.7131348,35.4179688 L265.8845215,36.3701172 L265.9353027,36.3701172 C266.151123,36.0273438 266.4536743,35.7618027 266.8430176,35.5734863 C267.2323608,35.38517 267.6660767,35.2910156 268.1442871,35.2910156 C268.9821777,35.2910156 269.6127319,35.4930801 270.0358887,35.8972168 C270.4590454,36.3013535 270.6706543,36.9477463 270.6706543,37.8364258 L270.6706543,42.375 Z M277.5915527,41.4418945 L277.5344238,41.4418945 C277.0477905,42.1486053 276.3199158,42.5019531 275.3508301,42.5019531 C274.440979,42.5019531 273.7332153,42.190918 273.2275391,41.5688477 C272.7218628,40.9467773 272.4689941,40.0623398 272.4689941,38.9155273 C272.4689941,37.7687149 272.7229004,36.8779297 273.2307129,36.2431641 C273.7385254,35.6083984 274.4452209,35.2910156 275.3508301,35.2910156 C276.2945251,35.2910156 277.0181274,35.6337891 277.5217285,36.3193359 L277.604248,36.3193359 L277.5598145,35.8178711 L277.5344238,35.3291016 L277.5344238,32.4980469 L278.5881348,32.4980469 L278.5881348,42.375 L277.7312012,42.375 Z M275.4841309,41.6196289 C276.2035522,41.6196289 276.7250977,41.423912 277.0488281,41.0324707 C277.3725586,40.6410294 277.5344238,40.0094452 277.5344238,39.1376953 L277.5344238,38.9155273 C277.5344238,37.9295197 277.3704224,37.2259979 277.0424805,36.8049316 C276.7145386,36.3838654 276.1908569,36.1733398 275.4714355,36.1733398 C274.8535767,36.1733398 274.3806763,36.4134903 274.0527344,36.8937988 C273.7247925,37.3741074 273.560791,38.0522385 273.560791,38.9282227 C273.560791,39.8169022 273.7236938,40.4876251 274.0495605,40.9404297 C274.3754272,41.3932343 274.8535767,41.6196289 275.4841309,41.6196289 Z M279.7053223,42.375" style="fill:rgb(48,48,48);stroke:none" clip-path="url(#clip11)" />
<clipPath id="clip12"><path d="M294,31 L307,31 L307,44 L294,44 L294,31 Z" /></clipPath>
<path d="M304.5,37 C304.5,34.5147171 302.4852905,32.5 300,32.5 C297.5147095,32.5 295.5,34.5147171 295.5,37 C295.5,39.4852829 297.5147095,41.5 300,41.5 C302.4852905,41.5 304.5,39.4852829 304.5,37 Z M304.5,37" style="fill:rgb(250,250,250);stroke:none" clip-path="url(#clip12)" />
<clipPath id="clip13"><path d="M294,31 L307,31 L307,44 L294,44 L294,31 Z" /></clipPath>
<path d="M304.5,37 C304.5,34.5147171 302.4852905,32.5 300,32.5 C297.5147095,32.5 295.5,34.5147171 295.5,37 C295.5,39.4852829 297.5147095,41.5 300,41.5 C302.4852905,41.5 304.5,39.4852829 304.5,37 Z M304.5,37" style="fill:none;stroke:rgb(127,127,127)" clip-path="url(#clip13)" />
<clipPath id="clip14"><path d="M294,31 L307,31 L307,44 L294,44 L294,31 Z" /></clipPath>
<path d="M298,37 L302,37" style="fill:none;stroke:rgb(150,160,200)" clip-path="url(#clip14)" />
<clipPath id="clip15"><path d="M313,14 L370,14 L370,39 L313,39 L313,14 Z" /></clipPath>
<path d="M315,37 L367,37 Z M315,37" style="fill:none;stroke:rgb(127,127,127)" clip-path="url(#clip15)" />
<clipPath id="clip16"><path d="M335,17 L360,17 L360,36 L335,36 L335,17 Z" /></clipPath>
<path d="M341.8925781,28.2871094 C341.8925781,28.7851563 341.7070313,29.1692657 341.3359375,29.4394531 C340.9648438,29.7096405 340.4440002,29.8447266 339.7734375,29.8447266 C339.0638123,29.8447266 338.510437,29.7324219 338.1132813,29.5078125 L338.1132813,28.7558594 C338.3704224,28.8860703 338.6463013,28.9886093 338.940918,29.0634766 C339.2355042,29.1383438 339.5195313,29.1757813 339.7929688,29.1757813 C340.216156,29.1757813 340.5416565,29.1082382 340.7695313,28.9731445 C340.997406,28.8380508 341.1113281,28.632164 341.1113281,28.3554688 C341.1113281,28.1471329 341.0209961,27.9689102 340.840332,27.8208008 C340.659668,27.6726913 340.3072815,27.4977188 339.7832031,27.2958984 C339.2851563,27.1103516 338.9311523,26.9484024 338.7211914,26.8100586 C338.5112305,26.6717148 338.3549805,26.5146484 338.2524414,26.3388672 C338.1499023,26.1630859 338.0986328,25.953125 338.0986328,25.7089844 C338.0986328,25.2727814 338.276062,24.9285507 338.6308594,24.6762695 C338.9856567,24.4239883 339.4723206,24.2978516 340.0908203,24.2978516 C340.6669922,24.2978516 341.2301331,24.4150391 341.7802734,24.6494141 L341.4921875,25.3085938 C340.9550781,25.0872421 340.4684143,24.9765625 340.0322266,24.9765625 C339.6481018,24.9765625 339.3583984,25.0367813 339.1630859,25.1572266 C338.9677734,25.2776718 338.8701172,25.4436874 338.8701172,25.6552734 C338.8701172,25.7985001 338.9067383,25.9205704 338.9799805,26.0214844 C339.0532227,26.1223984 339.1712341,26.2184219 339.3339844,26.3095703 C339.4967346,26.4007187 339.8092346,26.5325546 340.2714844,26.7050781 C340.90625,26.9361954 341.3351135,27.1689453 341.5581055,27.4033203 C341.7810974,27.6376953 341.8925781,27.9322891 341.8925781,28.2871094 Z M348.0595703,27.0664063 C348.0595703,27.9388046 347.8398438,28.6199493 347.4003906,29.1098633 C346.9609375,29.5997772 346.3538513,29.8447266 345.5791016,29.8447266 C345.1005859,29.8447266 344.6757813,29.7324219 344.3046875,29.5078125 C343.9335938,29.2832031 343.6471252,28.9609375 343.4453125,28.5410156 C343.2434998,28.1210938 343.1425781,27.6295624 343.1425781,27.0664063 C343.1425781,26.1940079 343.3606873,25.5144882 343.796875,25.027832 C344.2330627,24.5411758 344.8385315,24.2978516 345.6132813,24.2978516 C346.361969,24.2978516 346.9568787,24.546875 347.3979492,25.0449219 C347.8390198,25.5429688 348.0595703,26.2167892 348.0595703,27.0664063 Z M343.9824219,27.0664063 C343.9824219,27.75 344.1191406,28.2708282 344.3925781,28.6289063 C344.6660156,28.9869843 345.0680237,29.1660156 345.5986328,29.1660156 C346.1292419,29.1660156 346.532074,28.987793 346.8071289,28.6313477 C347.0821838,28.2749023 347.2197266,27.7532578 347.2197266,27.0664063 C347.2197266,26.3860626 347.0821838,25.8693085 346.8071289,25.5161133 C346.532074,25.1629181 346.1259766,24.9863281 345.5888672,24.9863281 C345.0582581,24.9863281 344.6578674,25.1604767 344.3876953,25.5087891 C344.1175232,25.8571014 343.9824219,26.376297 343.9824219,27.0664063 Z M351.8818359,24.2978516 C352.1194763,24.2978516 352.3326721,24.3173828 352.5214844,24.3564453 L352.4091797,25.1083984 C352.1878357,25.0595703 351.9925232,25.0351563 351.8232422,25.0351563 C351.3902893,25.0351563 351.0200195,25.2109375 350.7124023,25.5625 C350.4047852,25.9140625 350.2509766,26.3518829 350.2509766,26.8759766 L350.2509766,29.7470703 L349.4404297,29.7470703 L349.4404297,24.3955078 L350.109375,24.3955078 L350.2021484,25.3867188 L350.2412109,25.3867188 C350.4397888,25.0384064 350.6790466,24.7698593 350.9589844,24.5810547 C351.2389221,24.3922501 351.5465393,24.2978516 351.8818359,24.2978516 Z M355.1689453,29.1757813 C355.3121643,29.1757813 355.450531,29.1651993 355.5839844,29.144043 C355.7174377,29.1228867 355.8232422,29.100914 355.9013672,29.078125 L355.9013672,29.6982422 C355.8134766,29.7405624 355.684082,29.7755508 355.5131836,29.8032227 C355.3422852,29.8308945 355.1884766,29.8447266 355.0517578,29.8447266 C354.0166016,29.8447266 353.4990234,29.2994843 353.4990234,28.2089844 L353.4990234,25.0253906 L352.7324219,25.0253906 L352.7324219,24.6347656 L353.4990234,24.2978516 L353.8408203,23.1552734 L354.3095703,23.1552734 L354.3095703,24.3955078 L355.8623047,24.3955078 L355.8623047,25.0253906 L354.3095703,25.0253906 L354.3095703,28.1748047 C354.3095703,28.4970703 354.3860779,28.7444687 354.5390625,28.9169922 C354.6920471,29.0895157 354.9020081,29.1757813 355.1689453,29.1757813 Z M356.1113281,29.7470703" style="fill:rgb(0,0,0);stroke:none" clip-path="url(#clip16)" />
<clipPath id="clip17"><path d="M323,20 L335,20 L335,32 L323,32 L323,20 Z" /></clipPath>
<path d="M332,37 C336.4182739,37 340,33.4182777 340,29 C340,24.5817223 336.4182739,21 332,21 C327.5817261,21 324,24.5817223 324,29 C324,33.4182777 327.5817261,37 332,37 L332,37 L332,37 L332,37 L332,37 L332,37 L332,37 L332,37 L332,37 L332,37 L332,37 L332,37 Z M339,29 C339,32.8659935 335.8659973,36 332,36 C328.1340027,36 325,32.8659935 325,29 C325,25.1340065 328.1340027,22 332,22 L332,29 L339,29 Z M339,29" style="fill:rgb(0,209,86);stroke:none" clip-path="url(#clip17)" />
<clipPath id="clip18"><path d="M211,97 L404,97 L404,138 L211,138 Z M217,102 C214.2385712,102 212,104.2385712 212,107 L212,131 C212,133.7614288 214.2385712,136 217,136 L277,136 C279.7614136,136 282,133.7614288 282,131 L282,107 C282,104.2385712 279.7614136,102 277,102 Z M217,102" /></clipPath>
<path d="M295,119 C295,119 296.7919922,119 299,119 L304,119" style="fill:none;stroke:rgb(127,127,127)" clip-path="url(#clip18)" />
<clipPath id="clip19"><path d="M210,96 L405,96 L405,139 L210,139 L210,96 Z" /></clipPath>
<path d="M282,119 L295,119" style="fill:none;stroke:rgb(127,127,127)" clip-path="url(#clip19)" />
<clipPath id="clip20"><path d="M210,100 L285,100 L285,139 L210,139 L210,100 Z" /></clipPath>
<path d="M217,102 C214.2385712,102 212,104.2385712 212,107 L212,131 C212,133.7614288 214.2385712,136 217,136 L277,136 C279.7614136,136 282,133.7614288 282,131 L282,107 C282,104.2385712 279.7614136,102 277,102 Z M217,102" style="fill:rgb(254,244,236);stroke:none" clip-path="url(#clip20)" />
<clipPath id="clip21"><path d="M210,100 L285,100 L285,139 L210,139 L210,100 Z" /></clipPath>
<path d="M217,102 C214.2385712,102 212,104.2385712 212,107 L212,131 C212,133.7614288 214.2385712,136 217,136 L277,136 C279.7614136,136 282,133.7614288 282,131 L282,107 C282,104.2385712 279.7614136,102 277,102 Z M217,102" style="fill:none;stroke:rgb(141,134,126)" clip-path="url(#clip21)" />
<clipPath id="clip22"><path d="M223,108 L272,108 L272,131 L223,131 L223,108 Z" /></clipPath>
<path d="M230.5202637,122.6516113 L227.3718262,114.4250488 L227.3210449,114.4250488 C227.3802948,115.0767441 227.4099121,115.8511505 227.4099121,116.748291 L227.4099121,122.6516113 L226.4133301,122.6516113 L226.4133301,113.3713379 L228.0383301,113.3713379 L230.9772949,121.0266113 L231.0280762,121.0266113 L233.9924316,113.3713379 L235.6047363,113.3713379 L235.6047363,122.6516113 L234.5256348,122.6516113 L234.5256348,116.6721191 C234.5256348,115.9865723 234.5552521,115.2417831 234.614502,114.4377441 L234.5637207,114.4377441 L231.3898926,122.6516113 Z M237.1501465,115.6945801 L238.2800293,115.6945801 L239.8034668,119.6618652 C240.1377716,120.5674667 240.3451385,121.2212677 240.4255371,121.623291 L240.4763184,121.623291 C240.5313263,121.4074707 240.6466522,121.0382538 240.8222656,120.515625 C240.997879,119.9929962 241.5723419,118.3860016 242.5456543,115.6945801 L243.6755371,115.6945801 L240.685791,123.6164551 C240.3895721,124.3993378 240.0436249,124.9547501 239.6479492,125.2827148 C239.2522736,125.6106796 238.7666931,125.7746582 238.1911621,125.7746582 C237.8695526,125.7746582 237.5521698,125.7386856 237.2390137,125.666748 L237.2390137,124.8225098 C237.471756,124.873291 237.7320099,124.8986816 238.0197754,124.8986816 C238.7434082,124.8986816 239.2596893,124.4924393 239.5686035,123.6799316 L239.9558105,122.6896973 Z M250.6501465,120.182373 C250.6501465,120.9991074 250.3539276,121.6359863 249.7614746,122.0930176 C249.1690216,122.5500488 248.3649902,122.7785645 247.3493652,122.7785645 C246.2490997,122.7785645 245.4027557,122.6368027 244.8103027,122.3532715 L244.8103027,121.3122559 C245.1911621,121.4730606 245.6058807,121.6000137 246.0544434,121.6931152 C246.503006,121.7862167 246.9473419,121.8327637 247.3874512,121.8327637 C248.1068573,121.8327637 248.6485138,121.6962891 249.0124512,121.4233398 C249.3763885,121.1503906 249.5583496,120.7705917 249.5583496,120.2839355 C249.5583496,119.9623184 249.4938202,119.6988907 249.3647461,119.4936523 C249.235672,119.288414 249.0198517,119.0990372 248.7172852,118.9255371 C248.4147186,118.752037 247.9545135,118.5552597 247.3366699,118.3352051 C246.4733887,118.0262833 245.8566132,117.6602402 245.4863281,117.2370605 C245.1160431,116.8138809 244.9309082,116.2616425 244.9309082,115.5803223 C244.9309082,114.8651505 245.1996155,114.2959824 245.7370605,113.8728027 C246.2745056,113.4496231 246.9854279,113.2380371 247.869873,113.2380371 C248.7924042,113.2380371 249.6408691,113.4073029 250.4152832,113.7458496 L250.0788574,114.6853027 C249.3128967,114.3636856 248.5681152,114.2028809 247.8444824,114.2028809 C247.2731934,114.2028809 246.8267365,114.3255997 246.505127,114.5710449 C246.1835175,114.8164902 246.0227051,115.1571426 246.0227051,115.5930176 C246.0227051,115.9146347 246.081955,116.1780624 246.2004395,116.3833008 C246.318924,116.5885391 246.5188751,116.7768555 246.800293,116.9482422 C247.0817108,117.1196289 247.5122833,117.3089981 248.092041,117.5163574 C249.0653534,117.8633652 249.7350311,118.2357559 250.1010742,118.6335449 C250.4671173,119.0313339 250.6501465,119.5476074 250.6501465,120.182373 Z M260.4685059,117.9987793 C260.4685059,119.187912 260.2294312,120.1760178 259.7512207,120.9631348 C259.2730103,121.7502441 258.5980835,122.2834473 257.7263184,122.5627441 L259.9353027,124.8605957 L258.3674316,124.8605957 L256.5583496,122.7658691 L256.2092285,122.7785645 C254.8423615,122.7785645 253.7875977,122.3606796 253.0449219,121.5249023 C252.3022461,120.6891251 251.9309082,119.5095291 251.9309082,117.986084 C251.9309082,116.4753342 252.303299,115.3042068 253.0480957,114.4726563 C253.7928925,113.6411057 254.8508301,113.2253418 256.2219238,113.2253418 C257.5549316,113.2253418 258.5959473,113.6485138 259.3449707,114.494873 C260.0939941,115.3412323 260.4685059,116.5091858 260.4685059,117.9987793 Z M253.0734863,117.9987793 C253.0734863,119.2556229 253.3411407,120.2088165 253.8764648,120.8583984 C254.4117889,121.5079803 255.1893616,121.8327637 256.2092285,121.8327637 C257.2375488,121.8327637 258.0140686,121.5090332 258.5388184,120.8615723 C259.0635681,120.2141113 259.3259277,119.2598572 259.3259277,117.9987793 C259.3259277,116.7504044 259.0646362,115.8035507 258.5419922,115.1582031 C258.0193481,114.5128555 257.2460327,114.1901855 256.2219238,114.1901855 C255.1936035,114.1901855 254.4117889,114.5149689 253.8764648,115.1645508 C253.3411407,115.8141327 253.0734863,116.7588654 253.0734863,117.9987793 Z M262.4133301,122.6516113 L262.4133301,113.3713379 L263.4924316,113.3713379 L263.4924316,121.6740723 L267.5866699,121.6740723 L267.5866699,122.6516113 Z M267.8850098,122.6516113" style="fill:rgb(48,48,48);stroke:none" clip-path="url(#clip22)" />
<clipPath id="clip23"><path d="M283,113 L296,113 L296,126 L283,126 L283,113 Z" /></clipPath>
<path d="M293.5,119 C293.5,116.5147171 291.4852905,114.5 289,114.5 C286.5147095,114.5 284.5,116.5147171 284.5,119 C284.5,121.4852829 286.5147095,123.5 289,123.5 C291.4852905,123.5 293.5,121.4852829 293.5,119 Z M293.5,119" style="fill:rgb(250,250,250);stroke:none" clip-path="url(#clip23)" />
<clipPath id="clip24"><path d="M283,113 L296,113 L296,126 L283,126 L283,113 Z" /></clipPath>
<path d="M293.5,119 C293.5,116.5147171 291.4852905,114.5 289,114.5 C286.5147095,114.5 284.5,116.5147171 284.5,119 C284.5,121.4852829 286.5147095,123.5 289,123.5 C291.4852905,123.5 293.5,121.4852829 293.5,119 Z M293.5,119" style="fill:none;stroke:rgb(127,127,127)" clip-path="url(#clip24)" />
<clipPath id="clip25"><path d="M283,113 L296,113 L296,126 L283,126 L283,113 Z" /></clipPath>
<path d="M287,119 L291,119" style="fill:none;stroke:rgb(150,160,200)" clip-path="url(#clip25)" />
<clipPath id="clip26"><path d="M302,96 L405,96 L405,121 L302,121 L302,96 Z" /></clipPath>
<path d="M304,119 L402,119 Z M304,119" style="fill:none;stroke:rgb(127,127,127)" clip-path="url(#clip26)" />
<clipPath id="clip27"><path d="M324,99 L395,99 L395,118 L324,118 L324,99 Z" /></clipPath>
<path d="M330.7719727,108.5097656 L333.1987305,108.5097656 L333.1987305,111.9814453 C332.821106,112.1018906 332.4370117,112.1930313 332.0463867,112.2548828 C331.6557617,112.3167343 331.2033081,112.3476563 330.6889648,112.3476563 C329.6082153,112.3476563 328.7667847,112.026207 328.1645508,111.3833008 C327.5623169,110.7403946 327.2612305,109.8395233 327.2612305,108.6806641 C327.2612305,107.9384766 327.4101563,107.2882538 327.7080078,106.7299805 C328.0058594,106.1717072 328.4347229,105.745285 328.9946289,105.4506836 C329.5545349,105.1560822 330.2104492,105.0087891 330.9624023,105.0087891 C331.7241211,105.0087891 332.4337463,105.1487579 333.0913086,105.4287109 L332.769043,106.1611328 C332.1245117,105.8876953 331.5043945,105.7509766 330.9086914,105.7509766 C330.0395508,105.7509766 329.3608398,106.0097656 328.8725586,106.5273438 C328.3842773,107.0449219 328.1401367,107.7626877 328.1401367,108.6806641 C328.1401367,109.6442108 328.3753052,110.375 328.8457031,110.8730469 C329.3161011,111.3710938 330.0069885,111.6201172 330.918457,111.6201172 C331.413269,111.6201172 331.8966675,111.5631485 332.3686523,111.4492188 L332.3686523,109.2519531 L330.7719727,109.2519531 Z M336.9516602,106.8007813 C337.18927,106.8007813 337.4025269,106.8203125 337.5913086,106.859375 L337.4790039,107.6113281 C337.2576294,107.5625 337.0623169,107.5380859 336.8930664,107.5380859 C336.460144,107.5380859 336.0898438,107.7138672 335.7822266,108.0654297 C335.4746094,108.4169922 335.3208008,108.8548126 335.3208008,109.3789063 L335.3208008,112.25 L334.5102539,112.25 L334.5102539,106.8984375 L335.1791992,106.8984375 L335.2719727,107.8896484 L335.3110352,107.8896484 C335.5095825,107.5413361 335.7488403,107.272789 336.0288086,107.0839844 C336.3087769,106.8951797 336.616394,106.8007813 336.9516602,106.8007813 Z M341.8012695,112.25 L341.6401367,111.4882813 L341.6010742,111.4882813 C341.334137,111.8235703 341.0680237,112.050621 340.8027344,112.1694336 C340.5374451,112.2882462 340.2062073,112.3476563 339.809082,112.3476563 C339.2784729,112.3476563 338.8626099,112.2109375 338.5615234,111.9375 C338.260437,111.6640625 338.1098633,111.2750702 338.1098633,110.7705078 C338.1098633,109.6897736 338.9741211,109.1233749 340.7026367,109.0712891 L341.6108398,109.0419922 L341.6108398,108.7099609 C341.6108398,108.2900391 341.5205078,107.9799805 341.3398438,107.7797852 C341.1591797,107.5795898 340.8702698,107.4794922 340.4731445,107.4794922 C340.0271912,107.4794922 339.5226135,107.6162109 338.9594727,107.8896484 L338.7104492,107.2695313 C338.9741211,107.1263046 339.263031,107.0139999 339.5771484,106.9326172 C339.8912659,106.8512344 340.2062073,106.8105469 340.5219727,106.8105469 C341.1600037,106.8105469 341.6328125,106.9521484 341.9404297,107.2353516 C342.2480469,107.5185547 342.4018555,107.9726563 342.4018555,108.5976563 L342.4018555,112.25 Z M339.9702148,111.6787109 C340.474762,111.6787109 340.8710938,111.5403671 341.1591797,111.2636719 C341.4472656,110.9869766 341.5913086,110.5996094 341.5913086,110.1015625 L341.5913086,109.6181641 L340.7807617,109.6523438 C340.1362305,109.6751328 339.6715393,109.7752304 339.3867188,109.9526367 C339.1018982,110.130043 338.9594727,110.4059219 338.9594727,110.7802734 C338.9594727,111.0732422 339.0481873,111.2962265 339.2255859,111.4492188 C339.4029846,111.602211 339.6512146,111.6787109 339.9702148,111.6787109 Z M348.1723633,112.25 L348.1723633,108.7880859 C348.1723633,108.3518829 348.0730896,108.0263672 347.8745117,107.8115234 C347.6759338,107.5966797 347.3650818,107.4892578 346.9418945,107.4892578 C346.3819885,107.4892578 345.9718323,107.640625 345.7114258,107.9433594 C345.4510193,108.2460938 345.3208008,108.7457657 345.3208008,109.4423828 L345.3208008,112.25 L344.5102539,112.25 L344.5102539,106.8984375 L345.1694336,106.8984375 L345.3012695,107.6308594 L345.340332,107.6308594 C345.5063477,107.3671875 345.7391052,107.1629257 346.0385742,107.0180664 C346.3380432,106.8732071 346.6717224,106.8007813 347.0395508,106.8007813 C347.684082,106.8007813 348.1690979,106.9562149 348.4946289,107.2670898 C348.8201599,107.5779648 348.9829102,108.0751953 348.9829102,108.7587891 L348.9829102,112.25 Z M352.2387695,111.6787109 C352.3819885,111.6787109 352.5203552,111.668129 352.6538086,111.6469727 C352.787262,111.6258163 352.8930664,111.6038437 352.9711914,111.5810547 L352.9711914,112.2011719 C352.8833008,112.2434921 352.7539063,112.2784805 352.5830078,112.3061523 C352.4121094,112.3338242 352.2583008,112.3476563 352.121582,112.3476563 C351.0864258,112.3476563 350.5688477,111.8024139 350.5688477,110.7119141 L350.5688477,107.5283203 L349.8022461,107.5283203 L349.8022461,107.1376953 L350.5688477,106.8007813 L350.9106445,105.6582031 L351.3793945,105.6582031 L351.3793945,106.8984375 L352.9321289,106.8984375 L352.9321289,107.5283203 L351.3793945,107.5283203 L351.3793945,110.6777344 C351.3793945,111 351.4559021,111.2473984 351.6088867,111.4199219 C351.7618713,111.5924454 351.9718323,111.6787109 352.2387695,111.6787109 Z M357.2202148,105.1113281 L354.559082,112.25 L353.7485352,112.25 L356.409668,105.1113281 Z M359.4624023,109.28125 L359.4624023,112.25 L358.6323242,112.25 L358.6323242,105.1113281 L360.590332,105.1113281 C361.4659729,105.1113281 362.1129456,105.2789688 362.53125,105.6142578 C362.9495544,105.9495468 363.1586914,106.4541016 363.1586914,107.1279297 C363.1586914,108.0719452 362.6801758,108.7099609 361.7231445,109.0419922 L363.6616211,112.25 L362.6801758,112.25 L360.9516602,109.28125 Z M359.4624023,108.5683594 L360.6000977,108.5683594 C361.1860352,108.5683594 361.6157227,108.4519882 361.8891602,108.2192383 C362.1625977,107.9864883 362.2993164,107.6373749 362.2993164,107.171875 C362.2993164,106.6998672 362.1601563,106.3597031 361.8818359,106.1513672 C361.6035156,105.9430313 361.1567383,105.8388672 360.5415039,105.8388672 L359.4624023,105.8388672 Z M366.7709961,112.3476563 C365.9799805,112.3476563 365.3558044,112.1067734 364.8984375,111.625 C364.4410706,111.1432266 364.2124023,110.4742889 364.2124023,109.6181641 C364.2124023,108.7555313 364.4248047,108.0703125 364.8496094,107.5625 C365.2744141,107.0546875 365.8448792,106.8007813 366.5610352,106.8007813 C367.2315979,106.8007813 367.762207,107.0213165 368.152832,107.4624023 C368.543457,107.9034882 368.7387695,108.4853516 368.7387695,109.2080078 L368.7387695,109.7207031 L365.0522461,109.7207031 C365.068512,110.3489609 365.2272034,110.8258438 365.5283203,111.1513672 C365.8294373,111.4768906 366.253418,111.6396484 366.800293,111.6396484 C367.3764648,111.6396484 367.9461365,111.5192108 368.5092773,111.2783203 L368.5092773,112.0009766 C368.2228088,112.1246719 367.9518127,112.2133789 367.6962891,112.2670898 C367.4407654,112.3208008 367.1323242,112.3476563 366.7709961,112.3476563 Z M366.5512695,107.4794922 C366.121582,107.4794922 365.7789612,107.6194611 365.5234375,107.8994141 C365.2679138,108.1793671 365.1173401,108.5667267 365.0717773,109.0615234 L367.8696289,109.0615234 C367.8696289,108.5504532 367.7557068,108.1590195 367.527832,107.887207 C367.2999573,107.6153946 366.9744568,107.4794922 366.5512695,107.4794922 Z M371.6821289,112.25 L369.6508789,106.8984375 L370.5200195,106.8984375 L371.6723633,110.0722656 C371.9327698,110.8144531 372.0857849,111.2962189 372.1313477,111.5175781 L372.1704102,111.5175781 C372.2062073,111.3450546 372.3193359,110.987793 372.5097656,110.4458008 C372.7001953,109.9038086 373.1274414,108.7213593 373.7915039,106.8984375 L374.6606445,106.8984375 L372.6293945,112.25 Z M380.1293945,109.5693359 C380.1293945,110.4417343 379.909668,111.122879 379.4702148,111.612793 C379.0307617,112.1027069 378.4236755,112.3476563 377.6489258,112.3476563 C377.1704102,112.3476563 376.7456055,112.2353516 376.3745117,112.0107422 C376.003418,111.7861328 375.7169495,111.4638672 375.5151367,111.0439453 C375.313324,110.6240234 375.2124023,110.1324921 375.2124023,109.5693359 C375.2124023,108.6969376 375.4305115,108.0174179 375.8666992,107.5307617 C376.302887,107.0441055 376.9083557,106.8007813 377.6831055,106.8007813 C378.4317932,106.8007813 379.0267029,107.0498047 379.4677734,107.5478516 C379.908844,108.0458984 380.1293945,108.7197266 380.1293945,109.5693359 Z M376.0522461,109.5693359 C376.0522461,110.2529297 376.1889648,110.7737579 376.4624023,111.1318359 C376.7358398,111.4899139 377.1378479,111.6689453 377.668457,111.6689453 C378.1990662,111.6689453 378.6018982,111.4907227 378.8769531,111.1342773 C379.1520081,110.777832 379.2895508,110.2561874 379.2895508,109.5693359 C379.2895508,108.8889923 379.1520081,108.3722382 378.8769531,108.019043 C378.6018982,107.6658478 378.1958008,107.4892578 377.6586914,107.4892578 C377.1280823,107.4892578 376.7276917,107.6634064 376.4575195,108.0117188 C376.1873474,108.3600311 376.0522461,108.8792267 376.0522461,109.5693359 Z M382.3110352,109.5107422 C382.4510193,109.3121719 382.6642151,109.0517578 382.9506836,108.7294922 L384.6791992,106.8984375 L385.6411133,106.8984375 L383.4731445,109.1787109 L385.7924805,112.25 L384.8110352,112.25 L382.9213867,109.7207031 L382.3110352,110.2480469 L382.3110352,112.25 L381.5102539,112.25 L381.5102539,104.6523438 L382.3110352,104.6523438 L382.3110352,108.6806641 C382.3110352,108.8597031 382.2980042,109.1363907 382.2719727,109.5107422 Z M388.7709961,112.3476563 C387.9799805,112.3476563 387.3558044,112.1067734 386.8984375,111.625 C386.4410706,111.1432266 386.2124023,110.4742889 386.2124023,109.6181641 C386.2124023,108.7555313 386.4248047,108.0703125 386.8496094,107.5625 C387.2744141,107.0546875 387.8448792,106.8007813 388.5610352,106.8007813 C389.2315979,106.8007813 389.762207,107.0213165 390.152832,107.4624023 C390.543457,107.9034882 390.7387695,108.4853516 390.7387695,109.2080078 L390.7387695,109.7207031 L387.0522461,109.7207031 C387.068512,110.3489609 387.2272034,110.8258438 387.5283203,111.1513672 C387.8294373,111.4768906 388.253418,111.6396484 388.800293,111.6396484 C389.3764648,111.6396484 389.9461365,111.5192108 390.5092773,111.2783203 L390.5092773,112.0009766 C390.2228088,112.1246719 389.9518127,112.2133789 389.6962891,112.2670898 C389.4407654,112.3208008 389.1323242,112.3476563 388.7709961,112.3476563 Z M388.5512695,107.4794922 C388.121582,107.4794922 387.7789612,107.6194611 387.5234375,107.8994141 C387.2679138,108.1793671 387.1173401,108.5667267 387.0717773,109.0615234 L389.8696289,109.0615234 C389.8696289,108.5504532 389.7557068,108.1590195 389.527832,107.887207 C389.2999573,107.6153946 388.9744568,107.4794922 388.5512695,107.4794922 Z M391.2612305,112.25" style="fill:rgb(0,0,0);stroke:none" clip-path="url(#clip27)" />
<clipPath id="clip28"><path d="M312,102 L324,102 L324,114 L312,114 L312,102 Z" /></clipPath>
<path d="M321,119 C325.4182739,119 329,115.4182739 329,111 C329,106.5817261 325.4182739,103 321,103 C316.5817261,103 313,106.5817261 313,111 C313,115.4182739 316.5817261,119 321,119 L321,119 L321,119 L321,119 L321,119 L321,119 L321,119 L321,119 L321,119 L321,119 L321,119 L321,119 L321,119 L321,119 L321,119 L321,119 Z M325.6095886,105.7318878 C327.0747681,107.0149536 328,108.8994293 328,111 C328,114.8659973 324.8659973,118 321,118 C317.1340027,118 314,114.8659973 314,111 C314,107.1340027 317.1340027,104 321,104 L321,111 L325.6095886,105.7318878 Z M325.6095886,105.7318878" style="fill:rgb(0,209,86);stroke:none" clip-path="url(#clip28)" />
<clipPath id="clip29"><path d="M171,179 L341,179 L341,220 L171,220 Z M177,184 C174.2385712,184 172,186.2385712 172,189 L172,213 C172,215.7614288 174.2385712,218 177,218 L224,218 C226.7614288,218 229,215.7614288 229,213 L229,189 C229,186.2385712 226.7614288,184 224,184 Z M177,184" /></clipPath>
<path d="M242,201 C242,201 243.7920074,201 246,201 L251,201" style="fill:none;stroke:rgb(127,127,127)" clip-path="url(#clip29)" />
<clipPath id="clip30"><path d="M170,178 L342,178 L342,221 L170,221 L170,178 Z" /></clipPath>
<path d="M229,201 L242,201" style="fill:none;stroke:rgb(127,127,127)" clip-path="url(#clip30)" />
<clipPath id="clip31"><path d="M170,182 L232,182 L232,221 L170,221 L170,182 Z" /></clipPath>
<path d="M177,184 C174.2385712,184 172,186.2385712 172,189 L172,213 C172,215.7614288 174.2385712,218 177,218 L224,218 C226.7614288,218 229,215.7614288 229,213 L229,189 C229,186.2385712 226.7614288,184 224,184 Z M177,184" style="fill:rgb(254,244,236);stroke:none" clip-path="url(#clip31)" />
<clipPath id="clip32"><path d="M170,182 L232,182 L232,221 L170,221 L170,182 Z" /></clipPath>
<path d="M177,184 C174.2385712,184 172,186.2385712 172,189 L172,213 C172,215.7614288 174.2385712,218 177,218 L224,218 C226.7614288,218 229,215.7614288 229,213 L229,189 C229,186.2385712 226.7614288,184 224,184 Z M177,184" style="fill:none;stroke:rgb(141,134,126)" clip-path="url(#clip32)" />
<clipPath id="clip33"><path d="M183,190 L219,190 L219,213 L183,213 L183,190 Z" /></clipPath>
<path d="M191.7258301,206.375 L186.5524902,206.375 L186.5524902,197.0947266 L191.7258301,197.0947266 L191.7258301,198.0532227 L187.6315918,198.0532227 L187.6315918,201.0429688 L191.4782715,201.0429688 L191.4782715,201.9951172 L187.6315918,201.9951172 L187.6315918,205.4101563 L191.7258301,205.4101563 Z M195.0695801,202.8139648 L192.651123,199.4179688 L193.8508301,199.4179688 L195.6853027,202.0839844 L197.5134277,199.4179688 L198.7004395,199.4179688 L196.2819824,202.8139648 L198.8273926,206.375 L197.6340332,206.375 L195.6853027,203.5566406 L193.7175293,206.375 L192.5241699,206.375 Z M203.1740723,206.5019531 C202.1669006,206.5019531 201.387207,206.1919861 200.8349609,205.5720215 C200.2827148,204.9520569 200.0065918,204.0750427 200.0065918,202.940918 C200.0065918,201.7771759 200.2869415,200.8779297 200.8476563,200.2431641 C201.408371,199.6083984 202.2071075,199.2910156 203.2438965,199.2910156 C203.5782166,199.2910156 203.9125061,199.3269958 204.2468262,199.3989258 C204.5811462,199.4708557 204.8435059,199.5555115 205.0339355,199.652832 L204.7102051,200.5478516 C204.4774475,200.4547424 204.2235565,200.377533 203.9484863,200.3161621 C203.6734161,200.2547913 203.4300842,200.2241211 203.2185059,200.2241211 C201.8050842,200.2241211 201.0983887,201.1254883 201.0983887,202.9282227 C201.0983887,203.7830505 201.2708282,204.4389648 201.6157227,204.8959961 C201.9606171,205.3530273 202.4715881,205.581543 203.1486816,205.581543 C203.7284393,205.581543 204.322998,205.4566956 204.932373,205.2070313 L204.932373,206.1401367 C204.4668732,206.3813477 203.8807831,206.5019531 203.1740723,206.5019531 Z M209.3327637,206.5019531 C208.3044434,206.5019531 207.4930115,206.1888123 206.8984375,205.5625 C206.3038635,204.9361877 206.0065918,204.0665741 206.0065918,202.9536133 C206.0065918,201.8321838 206.2827148,200.9414063 206.8349609,200.28125 C207.387207,199.6210938 208.1288147,199.2910156 209.0598145,199.2910156 C209.9315643,199.2910156 210.6213379,199.577713 211.1291504,200.151123 C211.6369629,200.7245331 211.8908691,201.480957 211.8908691,202.4204102 L211.8908691,203.0869141 L207.0983887,203.0869141 C207.1195374,203.903656 207.3258362,204.5235901 207.7172852,204.9467773 C208.1087341,205.3699646 208.6599121,205.581543 209.3708496,205.581543 C210.119873,205.581543 210.8604279,205.4249725 211.5925293,205.1118164 L211.5925293,206.0512695 C211.2201385,206.2120667 210.8678436,206.3273926 210.5356445,206.3972168 C210.2034454,206.467041 209.8024902,206.5019531 209.3327637,206.5019531 Z M209.0471191,200.1733398 C208.4885254,200.1733398 208.0431366,200.3553009 207.7109375,200.7192383 C207.3787384,201.0831757 207.1830139,201.5867462 207.1237793,202.2299805 L210.7609863,202.2299805 C210.7609863,201.5655823 210.6128845,201.0567322 210.3166504,200.7033691 C210.0204163,200.3500061 209.5972595,200.1733398 209.0471191,200.1733398 Z M214.4475098,206.375 L213.3937988,206.375 L213.3937988,196.4980469 L214.4475098,196.4980469 Z M215.5646973,206.375" style="fill:rgb(48,48,48);stroke:none" clip-path="url(#clip33)" />
<clipPath id="clip34"><path d="M230,195 L243,195 L243,208 L230,208 L230,195 Z" /></clipPath>
<path d="M240.5,201 C240.5,198.5147095 238.4852753,196.5 236,196.5 C233.5147247,196.5 231.5,198.5147095 231.5,201 C231.5,203.4852905 233.5147247,205.5 236,205.5 C238.4852753,205.5 240.5,203.4852905 240.5,201 Z M240.5,201" style="fill:rgb(250,250,250);stroke:none" clip-path="url(#clip34)" />
<clipPath id="clip35"><path d="M230,195 L243,195 L243,208 L230,208 L230,195 Z" /></clipPath>
<path d="M240.5,201 C240.5,198.5147095 238.4852753,196.5 236,196.5 C233.5147247,196.5 231.5,198.5147095 231.5,201 C231.5,203.4852905 233.5147247,205.5 236,205.5 C238.4852753,205.5 240.5,203.4852905 240.5,201 Z M240.5,201" style="fill:none;stroke:rgb(127,127,127)" clip-path="url(#clip35)" />
<clipPath id="clip36"><path d="M230,195 L243,195 L243,208 L230,208 L230,195 Z" /></clipPath>
<path d="M234,201 L238,201" style="fill:none;stroke:rgb(150,160,200)" clip-path="url(#clip36)" />
<clipPath id="clip37"><path d="M249,178 L342,178 L342,203 L249,203 L249,178 Z" /></clipPath>
<path d="M251,201 L339,201 Z M251,201" style="fill:none;stroke:rgb(127,127,127)" clip-path="url(#clip37)" />
<clipPath id="clip38"><path d="M259,181 L332,181 L332,200 L259,200 L259,181 Z" /></clipPath>
<path d="M266.53125,192.1772461 C266.53125,192.8055115 266.3034058,193.2954102 265.8476563,193.6469727 C265.3919067,193.9985352 264.7734375,194.1743164 263.9921875,194.1743164 C263.145813,194.1743164 262.494812,194.0652771 262.0390625,193.847168 L262.0390625,193.0463867 C262.3320313,193.1700745 262.651062,193.2677307 262.9960938,193.3393555 C263.3411255,193.4109802 263.6829224,193.4467773 264.0214844,193.4467773 C264.5748901,193.4467773 264.9915161,193.3417969 265.2714844,193.1318359 C265.5514526,192.921875 265.6914063,192.6297302 265.6914063,192.2553711 C265.6914063,192.0079651 265.6417847,191.8053284 265.5424805,191.6474609 C265.4431763,191.4895935 265.2771606,191.3439026 265.0444336,191.2104492 C264.8117065,191.0769958 264.4577026,190.9256287 263.9824219,190.7563477 C263.3183594,190.5187073 262.8439331,190.2371521 262.559082,189.9116211 C262.274231,189.5860901 262.1318359,189.1613007 262.1318359,188.637207 C262.1318359,188.0870667 262.338562,187.6492615 262.7519531,187.3237305 C263.1653442,186.9981995 263.7122192,186.8354492 264.3925781,186.8354492 C265.1022339,186.8354492 265.7548828,186.9656525 266.3505859,187.2260742 L266.0917969,187.9487305 C265.502594,187.7013245 264.9296875,187.5776367 264.3730469,187.5776367 C263.9335938,187.5776367 263.5901489,187.6720276 263.3427734,187.8608398 C263.0953979,188.0496521 262.9716797,188.311676 262.9716797,188.6469727 C262.9716797,188.8943787 263.0172729,189.0970154 263.1083984,189.2548828 C263.1995239,189.4127502 263.3533325,189.5576172 263.5698242,189.6894531 C263.7863159,189.8212891 264.1174927,189.9669495 264.5634766,190.1264648 C265.3121948,190.3934021 265.8273315,190.6798401 266.1088867,190.9858398 C266.3904419,191.2918396 266.53125,191.6889648 266.53125,192.1772461 Z M272.8935547,186.9379883 L272.8935547,191.5571289 C272.8935547,192.3709412 272.6477661,193.0105743 272.15625,193.4760742 C271.6647339,193.9415741 270.9892578,194.1743164 270.1298828,194.1743164 C269.2705078,194.1743164 268.6056519,193.9399414 268.1352539,193.4711914 C267.664856,193.0024414 267.4296875,192.3579102 267.4296875,191.5375977 L267.4296875,186.9379883 L268.2597656,186.9379883 L268.2597656,191.5961914 C268.2597656,192.1918945 268.4225464,192.6492462 268.7480469,192.9682617 C269.0735474,193.2872772 269.552063,193.4467773 270.1835938,193.4467773 C270.7858276,193.4467773 271.2496948,193.2864685 271.5751953,192.9658203 C271.9006958,192.6451721 272.0634766,192.1853943 272.0634766,191.5864258 L272.0634766,186.9379883 Z M277.6621094,194.0766602 L275.2402344,187.7485352 L275.2011719,187.7485352 C275.2467651,188.2498474 275.2695313,188.8455353 275.2695313,189.5356445 L275.2695313,194.0766602 L274.5029297,194.0766602 L274.5029297,186.9379883 L275.7529297,186.9379883 L278.0136719,192.8266602 L278.0527344,192.8266602 L280.3330078,186.9379883 L281.5732422,186.9379883 L281.5732422,194.0766602 L280.7431641,194.0766602 L280.7431641,189.4770508 C280.7431641,188.949707 280.7659302,188.3768005 280.8115234,187.7583008 L280.7724609,187.7583008 L278.3310547,194.0766602 Z M288.0292969,189.0180664 C288.0292969,189.7407227 287.7827148,190.2965393 287.2895508,190.6855469 C286.7963867,191.0745544 286.0908203,191.269043 285.1728516,191.269043 L284.3330078,191.269043 L284.3330078,194.0766602 L283.5029297,194.0766602 L283.5029297,186.9379883 L285.3535156,186.9379883 C287.1373901,186.9379883 288.0292969,187.6313477 288.0292969,189.0180664 Z M284.3330078,190.5561523 L285.0800781,190.5561523 C285.8157654,190.5561523 286.3479614,190.4373474 286.6767578,190.199707 C287.0055542,189.9620667 287.1699219,189.5812225 287.1699219,189.0571289 C287.1699219,188.5851135 287.0153198,188.233551 286.7060547,188.0024414 C286.3967896,187.7713318 285.9150391,187.6557617 285.2607422,187.6557617 L284.3330078,187.6557617 Z M290.3330078,191.1079102 L290.3330078,194.0766602 L289.5029297,194.0766602 L289.5029297,186.9379883 L291.4609375,186.9379883 C292.3366089,186.9379883 292.9835815,187.1056213 293.4018555,187.440918 C293.8201294,187.7762146 294.0292969,188.2807617 294.0292969,188.9545898 C294.0292969,189.8986053 293.5507813,190.5366211 292.59375,190.8686523 L294.5322266,194.0766602 L293.5507813,194.0766602 L291.8222656,191.1079102 Z M290.3330078,190.3950195 L291.4707031,190.3950195 C292.0566406,190.3950195 292.4863281,190.278656 292.7597656,190.0458984 C293.0332031,189.8131409 293.1699219,189.464035 293.1699219,188.9985352 C293.1699219,188.5265198 293.0307617,188.1863708 292.7524414,187.9780273 C292.4741211,187.7696838 292.0273438,187.6655273 291.4121094,187.6655273 L290.3330078,187.6655273 Z M301.6992188,190.4975586 C301.6992188,191.6401367 301.4103394,192.5385742 300.8325195,193.1928711 C300.2546997,193.847168 299.4515076,194.1743164 298.4228516,194.1743164 C297.3713989,194.1743164 296.5600586,193.8528748 295.9887695,193.2099609 C295.4174805,192.5670471 295.1318359,191.659668 295.1318359,190.487793 C295.1318359,189.3256836 295.4182739,188.4248047 295.9912109,187.7851563 C296.5641479,187.1455078 297.3779297,186.8256836 298.4326172,186.8256836 C299.4580078,186.8256836 300.2587891,187.1511993 300.8349609,187.8022461 C301.4111328,188.4532928 301.6992188,189.3517151 301.6992188,190.4975586 Z M296.0107422,190.4975586 C296.0107422,191.4643555 296.2166138,192.1975861 296.628418,192.6972656 C297.0402222,193.1969452 297.6383362,193.4467773 298.4228516,193.4467773 C299.2138672,193.4467773 299.8112183,193.1977539 300.2148438,192.699707 C300.6184692,192.2016602 300.8203125,191.4676208 300.8203125,190.4975586 C300.8203125,189.537262 300.6193237,188.8089294 300.2172852,188.3125 C299.8152466,187.8160706 299.2203979,187.5678711 298.4326172,187.5678711 C297.6416016,187.5678711 297.0402222,187.8177032 296.628418,188.3173828 C296.2166138,188.8170624 296.0107422,189.5437775 296.0107422,190.4975586 Z M309.2011719,190.4389648 C309.2011719,191.6173553 308.8813477,192.518219 308.2416992,193.1416016 C307.6020508,193.7649841 306.6816406,194.0766602 305.4804688,194.0766602 L303.5029297,194.0766602 L303.5029297,186.9379883 L305.6904297,186.9379883 C306.8004761,186.9379883 307.6630859,187.2456055 308.2783203,187.8608398 C308.8935547,188.4760742 309.2011719,189.3354492 309.2011719,190.4389648 Z M308.3222656,190.4682617 C308.3222656,189.537262 308.0886841,188.8357849 307.621582,188.3637695 C307.15448,187.8917542 306.4602966,187.6557617 305.5390625,187.6557617 L304.3330078,187.6557617 L304.3330078,193.3588867 L305.34375,193.3588867 C306.3333435,193.3588867 307.0771484,193.1155701 307.5751953,192.6289063 C308.0732422,192.1422424 308.3222656,191.4220428 308.3222656,190.4682617 Z M315.8935547,186.9379883 L315.8935547,191.5571289 C315.8935547,192.3709412 315.6477661,193.0105743 315.15625,193.4760742 C314.6647339,193.9415741 313.9892578,194.1743164 313.1298828,194.1743164 C312.2705078,194.1743164 311.6056519,193.9399414 311.1352539,193.4711914 C310.664856,193.0024414 310.4296875,192.3579102 310.4296875,191.5375977 L310.4296875,186.9379883 L311.2597656,186.9379883 L311.2597656,191.5961914 C311.2597656,192.1918945 311.4225464,192.6492462 311.7480469,192.9682617 C312.0735474,193.2872772 312.552063,193.4467773 313.1835938,193.4467773 C313.7858276,193.4467773 314.2496948,193.2864685 314.5751953,192.9658203 C314.9006958,192.6451721 315.0634766,192.1853943 315.0634766,191.5864258 L315.0634766,186.9379883 Z M320.5595703,187.5776367 C319.7750549,187.5776367 319.1557617,187.8388672 318.7016602,188.3613281 C318.2475586,188.8837891 318.0205078,189.5991211 318.0205078,190.5073242 C318.0205078,191.4415741 318.2394409,192.1634064 318.6772461,192.6728516 C319.1150513,193.1822968 319.7392578,193.4370117 320.5498047,193.4370117 C321.0478516,193.4370117 321.6158752,193.3475037 322.2539063,193.168457 L322.2539063,193.8959961 C321.7590942,194.081543 321.1487732,194.1743164 320.4228516,194.1743164 C319.3713989,194.1743164 318.5600586,193.8553162 317.9887695,193.2172852 C317.4174805,192.5792542 317.1318359,191.672699 317.1318359,190.4975586 C317.1318359,189.7618713 317.2693481,189.1173553 317.5444336,188.5639648 C317.819519,188.0105743 318.2166138,187.5841522 318.7358398,187.284668 C319.2550659,186.9851837 319.8662109,186.8354492 320.5693359,186.8354492 C321.3180542,186.8354492 321.9723206,186.972168 322.5322266,187.2456055 L322.1806641,187.9584961 C321.6402893,187.7045898 321.0999451,187.5776367 320.5595703,187.5776367 Z M325.7001953,194.0766602 L324.8701172,194.0766602 L324.8701172,187.675293 L322.609375,187.675293 L322.609375,186.9379883 L327.9609375,186.9379883 L327.9609375,187.675293 L325.7001953,187.675293 Z M328.0537109,194.0766602" style="fill:rgb(0,0,0);stroke:none" clip-path="url(#clip38)" />
</svg>
