<?xml version="1.0" encoding="UTF-8"?>
<!DOCTYPE svg PUBLIC "-//W3C//DTD SVG 1.1//EN" "http://www.w3.org/Graphics/SVG/1.1/DTD/svg11.dtd">
<svg version="1.2" xmlns="http://www.w3.org/2000/svg" xmlns:xlink="http://www.w3.org/1999/xlink" x="0" y="0" width="619" height="241" viewBox="0 0 619 241">
<style type="text/css"><![CDATA[
text { font:12px Dialog; }
]]></style>
<rect x="-485" y="-485" width="1589" height="1211" style="fill:rgb(255,255,255);stroke:none" />
<clipPath id="clip1"><path d="M15,15 L604,15 L604,226 L15,226 Z M225,95 C220.5817261,95 217,98.5817184 217,103 L217,143 C217,147.4182739 220.5817261,151 225,151 L342,151 C346.4182739,151 350,147.4182739 350,143 L350,103 C350,98.5817184 346.4182739,95 342,95 Z M225,95" /></clipPath>
<path d="M317.3648682,95 C329.7282104,64.3333282 348.2732544,49 373,49" style="fill:none;stroke:rgb(127,127,127)" clip-path="url(#clip1)" />
<clipPath id="clip2"><path d="M15,15 L604,15 L604,226 L15,226 Z M225,95 C220.5817261,95 217,98.5817184 217,103 L217,143 C217,147.4182739 220.5817261,151 225,151 L342,151 C346.4182739,151 350,147.4182739 350,143 L350,103 C350,98.5817184 346.4182739,95 342,95 Z M225,95" /></clipPath>
<path d="M350,125.5875473 C363.777771,127.1958466 384.444458,128 412,128" style="fill:none;stroke:rgb(127,127,127)" clip-path="url(#clip2)" />
<clipPath id="clip3"><path d="M15,15 L604,15 L604,226 L15,226 Z M225,95 C220.5817261,95 217,98.5817184 217,103 L217,143 C217,147.4182739 220.5817261,151 225,151 L342,151 C346.4182739,151 350,147.4182739 350,143 L350,103 C350,98.5817184 346.4182739,95 342,95 Z M225,95" /></clipPath>
<path d="M313.3333435,151 C326.5925903,188.3333435 346.4814758,207 373,207" style="fill:none;stroke:rgb(127,127,127)" clip-path="url(#clip3)" />
<clipPath id="clip4"><path d="M15,15 L604,15 L604,226 L15,226 Z M225,95 C220.5817261,95 217,98.5817184 217,103 L217,143 C217,147.4182739 220.5817261,151 225,151 L342,151 C346.4182739,151 350,147.4182739 350,143 L350,103 C350,98.5817184 346.4182739,95 342,95 Z M225,95" /></clipPath>
<path d="M234.0483856,151 C220.7042999,173.6666718 200.6881714,185 174,185" style="fill:none;stroke:rgb(127,127,127)" clip-path="url(#clip4)" />
<clipPath id="clip5"><path d="M215,93 L353,93 L353,154 L215,154 L215,93 Z" /></clipPath>
<path d="M225,95 C220.5817261,95 217,98.5817184 217,103 L217,143 C217,147.4182739 220.5817261,151 225,151 L342,151 C346.4182739,151 350,147.4182739 350,143 L350,103 C350,98.5817184 346.4182739,95 342,95 Z M225,95" style="fill:rgb(202,221,254);stroke:none" clip-path="url(#clip5)" />
<clipPath id="clip6"><path d="M215,93 L353,93 L353,154 L215,154 L215,93 Z" /></clipPath>
<path d="M225,95 C220.5817261,95 217,98.5817184 217,103 L217,143 C217,147.4182739 220.5817261,151 225,151 L342,151 C346.4182739,151 350,147.4182739 350,143 L350,103 C350,98.5817184 346.4182739,95 342,95 Z M225,95" style="fill:none;stroke:rgb(61,83,127)" clip-path="url(#clip6)" />
<clipPath id="clip7"><path d="M247,109 L321,109 L321,138 L247,138 L247,109 Z" /></clipPath>
<path d="M251.6166992,114.9130859 L255.6157227,114.9130859 C257.4379883,114.9130859 258.7607422,115.1723633 259.5839844,115.690918 C260.4072266,116.2094727 260.8188477,117.0341721 260.8188477,118.1650391 C260.8188477,118.9326172 260.6386719,119.5625 260.2783203,120.0546875 C259.9179688,120.546875 259.4389648,120.8427734 258.8413086,120.9423828 L258.8413086,121.0302734 C259.6557617,121.2119141 260.2431641,121.5517578 260.6035156,122.0498047 C260.9638672,122.5478516 261.144043,123.2099533 261.144043,124.0361328 C261.144043,125.2080154 260.7207031,126.1220703 259.8740234,126.7783203 C259.0273438,127.4345703 257.8774414,127.7626953 256.4243164,127.7626953 L251.6166992,127.7626953 Z M254.3413086,120.0019531 L255.9233398,120.0019531 C256.6616211,120.0019531 257.1962891,119.8876953 257.5273438,119.6591797 C257.8583984,119.4306641 258.0239258,119.0527344 258.0239258,118.5253906 C258.0239258,118.0332031 257.84375,117.6801758 257.4833984,117.4663086 C257.1230469,117.2524414 256.5532227,117.1455078 255.7739258,117.1455078 L254.3413086,117.1455078 Z M254.3413086,122.1640625 L254.3413086,125.5126953 L256.1166992,125.5126953 C256.8666992,125.5126953 257.4204102,125.3691406 257.777832,125.0820313 C258.1352539,124.7949219 258.3139648,124.3554688 258.3139648,123.7636719 C258.3139648,122.697258 257.5522461,122.1640625 256.0288086,122.1640625 Z M269.7397461,127.7626953 L269.2211914,126.4267578 L269.1508789,126.4267578 C268.699707,126.9951172 268.2353516,127.3891602 267.7578125,127.6088867 C267.2802734,127.8286133 266.6577148,127.9384766 265.8901367,127.9384766 C264.9467773,127.9384766 264.2041016,127.6689453 263.6621094,127.1298828 C263.1201172,126.5908203 262.8491211,125.8232498 262.8491211,124.8271484 C262.8491211,123.7841721 263.2138672,123.0151367 263.9433594,122.5200195 C264.6728516,122.0249023 265.7729492,121.7509766 267.2436523,121.6982422 L268.9487305,121.6455078 L268.9487305,121.2148438 C268.9487305,120.2187424 268.4389648,119.7207031 267.4194336,119.7207031 C266.6342773,119.7207031 265.7114258,119.9580078 264.6508789,120.4326172 L263.7631836,118.6220703 C264.894043,118.0302734 266.1479492,117.734375 267.5249023,117.734375 C268.8432617,117.734375 269.8540039,118.0214844 270.5571289,118.5957031 C271.2602539,119.1699219 271.6118164,120.0429611 271.6118164,121.2148438 L271.6118164,127.7626953 Z M268.9487305,123.2099609 L267.9116211,123.2451172 C267.1323242,123.2685547 266.5522461,123.4091797 266.1713867,123.6669922 C265.7905273,123.9248047 265.6000977,124.3173828 265.6000977,124.8447266 C265.6000977,125.6005859 266.0336914,125.9785156 266.9008789,125.9785156 C267.5219727,125.9785156 268.0185547,125.7998047 268.390625,125.4423828 C268.7626953,125.0849609 268.9487305,124.6103516 268.9487305,124.0185547 Z M283.4418945,127.7626953 L280.7612305,127.7626953 L280.7612305,122.0234375 C280.7612305,121.3144531 280.6352539,120.7827148 280.3833008,120.4282227 C280.1313477,120.0737305 279.7299805,119.8964844 279.1791992,119.8964844 C278.4291992,119.8964844 277.887207,120.1469727 277.5532227,120.6479492 C277.2192383,121.1489258 277.0522461,121.9794846 277.0522461,123.1396484 L277.0522461,127.7626953 L274.371582,127.7626953 L274.371582,117.9365234 L276.4194336,117.9365234 L276.7797852,119.1933594 L276.9291992,119.1933594 C277.2280273,118.71875 277.6396484,118.3598633 278.1640625,118.1166992 C278.6884766,117.8735352 279.284668,117.7519531 279.9526367,117.7519531 C281.0952148,117.7519531 281.9624023,118.0610352 282.5541992,118.6791992 C283.1459961,119.2973633 283.4418945,120.1894455 283.4418945,121.3554688 Z M284.7954102,117.9365234 L287.730957,117.9365234 L289.5854492,123.4648438 C289.7436523,123.9453125 289.8520508,124.5136719 289.9106445,125.1699219 L289.9633789,125.1699219 C290.027832,124.5664063 290.1538086,123.9980469 290.3413086,123.4648438 L292.1606445,117.9365234 L295.034668,117.9365234 L290.8774414,129.0195313 C290.496582,130.0449219 289.953125,130.8125 289.2470703,131.3222656 C288.5410156,131.8320313 287.7163086,132.0869141 286.7729492,132.0869141 C286.3100586,132.0869141 285.855957,132.0371094 285.4106445,131.9375 L285.4106445,129.8105469 C285.7329102,129.8867188 286.0844727,129.9248047 286.465332,129.9248047 C286.9399414,129.9248047 287.3544922,129.7797852 287.7089844,129.4897461 C288.0634766,129.199707 288.340332,128.7617188 288.5395508,128.1757813 L288.6977539,127.6923828 Z M302.6811523,127.7626953 L302.1625977,126.4267578 L302.0922852,126.4267578 C301.6411133,126.9951172 301.1767578,127.3891602 300.6992188,127.6088867 C300.2216797,127.8286133 299.5991211,127.9384766 298.831543,127.9384766 C297.8881836,127.9384766 297.1455078,127.6689453 296.6035156,127.1298828 C296.0615234,126.5908203 295.7905273,125.8232498 295.7905273,124.8271484 C295.7905273,123.7841721 296.1552734,123.0151367 296.8847656,122.5200195 C297.6142578,122.0249023 298.7143555,121.7509766 300.1850586,121.6982422 L301.8901367,121.6455078 L301.8901367,121.2148438 C301.8901367,120.2187424 301.3803711,119.7207031 300.3608398,119.7207031 C299.5756836,119.7207031 298.652832,119.9580078 297.5922852,120.4326172 L296.7045898,118.6220703 C297.8354492,118.0302734 299.0893555,117.734375 300.4663086,117.734375 C301.784668,117.734375 302.7954102,118.0214844 303.4985352,118.5957031 C304.2016602,119.1699219 304.5532227,120.0429611 304.5532227,121.2148438 L304.5532227,127.7626953 Z M301.8901367,123.2099609 L300.8530273,123.2451172 C300.0737305,123.2685547 299.4936523,123.4091797 299.112793,123.6669922 C298.7319336,123.9248047 298.5415039,124.3173828 298.5415039,124.8447266 C298.5415039,125.6005859 298.9750977,125.9785156 299.8422852,125.9785156 C300.4633789,125.9785156 300.9599609,125.7998047 301.3320313,125.4423828 C301.7041016,125.0849609 301.8901367,124.6103516 301.8901367,124.0185547 Z M316.3833008,127.7626953 L313.7026367,127.7626953 L313.7026367,122.0234375 C313.7026367,121.3144531 313.5766602,120.7827148 313.324707,120.4282227 C313.0727539,120.0737305 312.6713867,119.8964844 312.1206055,119.8964844 C311.3706055,119.8964844 310.8286133,120.1469727 310.4946289,120.6479492 C310.1606445,121.1489258 309.9936523,121.9794846 309.9936523,123.1396484 L309.9936523,127.7626953 L307.3129883,127.7626953 L307.3129883,117.9365234 L309.3608398,117.9365234 L309.7211914,119.1933594 L309.8706055,119.1933594 C310.1694336,118.71875 310.5810547,118.3598633 311.1054688,118.1166992 C311.6298828,117.8735352 312.2260742,117.7519531 312.894043,117.7519531 C314.0366211,117.7519531 314.9038086,118.0610352 315.4956055,118.6791992 C316.0874023,119.2973633 316.3833008,120.1894455 316.3833008,121.3554688 Z M317.7368164,127.7626953" style="fill:rgb(76,76,76);stroke:none" clip-path="url(#clip7)" />
<clipPath id="clip8"><path d="M372,15 L590,15 L590,68 L372,68 Z M378,32 C375.2385864,32 373,34.2385712 373,37 L373,61 C373,63.761425 375.2385864,66 378,66 L489,66 C491.7614136,66 494,63.761425 494,61 L494,37 C494,34.2385712 491.7614136,32 489,32 Z M378,32" /></clipPath>
<path d="M507,49 L507,41 C507,38.7919998 508.7919922,37 511,37 L516,37" style="fill:none;stroke:rgb(127,127,127)" clip-path="url(#clip8)" />
<clipPath id="clip9"><path d="M372,15 L590,15 L590,68 L372,68 Z M378,32 C375.2385864,32 373,34.2385712 373,37 L373,61 C373,63.761425 375.2385864,66 378,66 L489,66 C491.7614136,66 494,63.761425 494,61 L494,37 C494,34.2385712 491.7614136,32 489,32 Z M378,32" /></clipPath>
<path d="M507,49 L507,57 C507,59.2080002 508.7919922,61 511,61 L516,61" style="fill:none;stroke:rgb(127,127,127)" clip-path="url(#clip9)" />
<clipPath id="clip10"><path d="M371,14 L591,14 L591,69 L371,69 L371,14 Z" /></clipPath>
<path d="M494,49 L507,49" style="fill:none;stroke:rgb(127,127,127)" clip-path="url(#clip10)" />
<clipPath id="clip11"><path d="M371,30 L497,30 L497,69 L371,69 L371,30 Z" /></clipPath>
<path d="M378,32 C375.2385864,32 373,34.2385712 373,37 L373,61 C373,63.761425 375.2385864,66 378,66 L489,66 C491.7614136,66 494,63.761425 494,61 L494,37 C494,34.2385712 491.7614136,32 489,32 Z M378,32" style="fill:rgb(254,244,236);stroke:none" clip-path="url(#clip11)" />
<clipPath id="clip12"><path d="M371,30 L497,30 L497,69 L371,69 L371,30 Z" /></clipPath>
<path d="M378,32 C375.2385864,32 373,34.2385712 373,37 L373,61 C373,63.761425 375.2385864,66 378,66 L489,66 C491.7614136,66 494,63.761425 494,61 L494,37 C494,34.2385712 491.7614136,32 489,32 Z M378,32" style="fill:none;stroke:rgb(141,134,126)" clip-path="url(#clip12)" />
<clipPath id="clip13"><path d="M384,38 L484,38 L484,61 L384,61 L384,38 Z" /></clipPath>
<path d="M393.251709,51.9057617 C393.251709,52.722496 392.9555054,53.359375 392.3630371,53.8164063 C391.7705688,54.2734375 390.9665527,54.5019531 389.9509277,54.5019531 C388.850647,54.5019531 388.0043335,54.3601913 387.4118652,54.0766602 L387.4118652,53.0356445 C387.7927246,53.1964493 388.207428,53.3234024 388.6560059,53.4165039 C389.1045837,53.5096054 389.5488892,53.5561523 389.9890137,53.5561523 C390.7084351,53.5561523 391.250061,53.4196777 391.6140137,53.1467285 C391.9779663,52.8737793 392.1599121,52.4939804 392.1599121,52.0073242 C392.1599121,51.6857071 392.0953674,51.4222794 391.9663086,51.217041 C391.8372498,51.0118027 391.6214294,50.8224258 391.3188477,50.6489258 C391.0162659,50.4754257 390.5560913,50.2786484 389.9382324,50.0585938 C389.0749512,49.7496719 388.4581909,49.3836288 388.0878906,48.9604492 C387.7175903,48.5372696 387.5324707,47.9850311 387.5324707,47.3037109 C387.5324707,46.5885391 387.801178,46.019371 388.338623,45.5961914 C388.8760681,45.1730118 389.5869751,44.9614258 390.4714355,44.9614258 C391.3939819,44.9614258 392.2424316,45.1306915 393.0168457,45.4692383 L392.6804199,46.4086914 C391.9144592,46.0870743 391.1696777,45.9262695 390.4460449,45.9262695 C389.8747559,45.9262695 389.4283142,46.0489883 389.1066895,46.2944336 C388.7850647,46.5398788 388.6242676,46.8805313 388.6242676,47.3164063 C388.6242676,47.6380234 388.6835022,47.9014511 388.802002,48.1066895 C388.9205017,48.3119278 389.1204224,48.5002441 389.4018555,48.6716309 C389.6832886,48.8430176 390.1138306,49.0323868 390.6936035,49.2397461 C391.6669312,49.5867538 392.3365784,49.9591446 392.7026367,50.3569336 C393.0686951,50.7547226 393.251709,51.2709961 393.251709,51.9057617 Z M399.6169434,54.375 L399.6169434,49.8745117 C399.6169434,49.3074493 399.4878845,48.8842773 399.2297363,48.6049805 C398.9715881,48.3256836 398.5674744,48.1860352 398.017334,48.1860352 C397.2852173,48.1860352 396.7509766,48.3849258 396.4145508,48.7827148 C396.078125,49.1805038 395.9099121,49.8321915 395.9099121,50.737793 L395.9099121,54.375 L394.8562012,54.375 L394.8562012,44.4980469 L395.9099121,44.4980469 L395.9099121,47.487793 C395.9099121,47.847496 395.8929749,48.1458359 395.8591309,48.3828125 L395.9226074,48.3828125 C396.1299744,48.0485001 396.4251099,47.7850723 396.8081055,47.5925293 C397.1911011,47.3999863 397.6279907,47.3037109 398.1188965,47.3037109 C398.9694824,47.3037109 399.6074219,47.5057755 400.0327148,47.9099121 C400.4580078,48.3140488 400.6706543,48.9562149 400.6706543,49.8364258 L400.6706543,54.375 Z M405.795166,54.5019531 C404.7668457,54.5019531 403.9554138,54.1888046 403.3608398,53.5625 C402.7662659,52.9361954 402.4689941,52.0665741 402.4689941,50.9536133 C402.4689941,49.8321915 402.7451172,48.9414063 403.2973633,48.28125 C403.8496094,47.6210938 404.591217,47.2910156 405.5222168,47.2910156 C406.3939819,47.2910156 407.0837402,47.577713 407.5915527,48.151123 C408.0993652,48.7245331 408.3532715,49.4809494 408.3532715,50.4204102 L408.3532715,51.0869141 L403.560791,51.0869141 C403.5819397,51.9036484 403.7882385,52.5235977 404.1796875,52.9467773 C404.5711365,53.369957 405.1223145,53.581543 405.833252,53.581543 C406.5822754,53.581543 407.3228149,53.4249725 408.0549316,53.1118164 L408.0549316,54.0512695 C407.6825256,54.2120743 407.3302612,54.3273926 406.9980469,54.3972168 C406.6658325,54.467041 406.2648926,54.5019531 405.795166,54.5019531 Z M405.5095215,48.1733398 C404.9509277,48.1733398 404.5055542,48.3553009 404.1733398,48.7192383 C403.8411255,49.0831757 403.6454163,49.5867462 403.5861816,50.2299805 L407.2233887,50.2299805 C407.2233887,49.5655899 407.0752869,49.0567245 406.7790527,48.7033691 C406.4828186,48.3500137 406.0596619,48.1733398 405.5095215,48.1733398 Z M410.9099121,54.375 L409.8562012,54.375 L409.8562012,44.4980469 L410.9099121,44.4980469 Z M413.9099121,54.375 L412.8562012,54.375 L412.8562012,44.4980469 L413.9099121,44.4980469 Z M422.9885254,45.9262695 C421.9686584,45.9262695 421.1635742,46.2658691 420.5732422,46.9450684 C419.9829102,47.6242676 419.6877441,48.5541916 419.6877441,49.7348633 C419.6877441,50.9493866 419.9723206,51.8877716 420.5415039,52.5500488 C421.1106873,53.212326 421.9221191,53.543457 422.9758301,53.543457 C423.623291,53.543457 424.3617249,53.4270859 425.1911621,53.1943359 L425.1911621,54.1401367 C424.5479126,54.3813477 423.7544861,54.5019531 422.810791,54.5019531 C421.4439087,54.5019531 420.3891602,54.0872421 419.6464844,53.2578125 C418.9038086,52.4283829 418.5324707,51.2498474 418.5324707,49.722168 C418.5324707,48.7657852 418.7112427,47.9279022 419.0688477,47.2084961 C419.4264526,46.48909 419.942688,45.9347382 420.6176758,45.5454102 C421.2926636,45.1560822 422.0871582,44.9614258 423.0012207,44.9614258 C423.9745483,44.9614258 424.8251038,45.1391602 425.5529785,45.4946289 L425.0959473,46.4213867 C424.3934631,46.0913086 423.6910095,45.9262695 422.9885254,45.9262695 Z M432.861084,50.8901367 C432.861084,52.0242538 432.5754395,52.9097443 432.0041504,53.5466309 C431.4328613,54.1835175 430.6436462,54.5019531 429.6364746,54.5019531 C429.0144043,54.5019531 428.4621582,54.355957 427.9797363,54.0639648 C427.4973145,53.7719727 427.124939,53.3530273 426.8625488,52.8071289 C426.6001587,52.2612305 426.4689941,51.6222382 426.4689941,50.8901367 C426.4689941,49.7560196 426.7525024,48.8726425 427.3195801,48.2399902 C427.8866577,47.607338 428.6737366,47.2910156 429.6809082,47.2910156 C430.6542358,47.2910156 431.4275513,47.6147461 432.0009766,48.262207 C432.5744019,48.909668 432.861084,49.7856369 432.861084,50.8901367 Z M427.560791,50.8901367 C427.560791,51.7788162 427.7385254,52.4558868 428.0939941,52.9213867 C428.4494629,53.3868866 428.9720764,53.6196289 429.6618652,53.6196289 C430.3516541,53.6196289 430.8753052,53.3879395 431.2329102,52.9245605 C431.5905151,52.4611816 431.7692871,51.7830429 431.7692871,50.8901367 C431.7692871,50.0056915 431.5905151,49.3339081 431.2329102,48.8747559 C430.8753052,48.4156036 430.3474121,48.1860352 429.6491699,48.1860352 C428.9593811,48.1860352 428.4389038,48.4124298 428.0876465,48.8652344 C427.7363892,49.3180389 427.560791,49.9929962 427.560791,50.8901367 Z M443.723877,54.375 L443.723877,49.8491211 C443.723877,49.294754 443.6054077,48.8789902 443.3684082,48.6018066 C443.1314087,48.3246231 442.7632446,48.1860352 442.263916,48.1860352 C441.6079712,48.1860352 441.1234741,48.3743439 440.8103027,48.7509766 C440.4971313,49.1276093 440.3405762,49.7073517 440.3405762,50.4902344 L440.3405762,54.375 L439.2868652,54.375 L439.2868652,49.8491211 C439.2868652,49.294754 439.168396,48.8789902 438.9313965,48.6018066 C438.694397,48.3246231 438.3241577,48.1860352 437.8205566,48.1860352 C437.1604004,48.1860352 436.6769409,48.3838654 436.3701172,48.779541 C436.0632935,49.1752167 435.9099121,49.8237228 435.9099121,50.7250977 L435.9099121,54.375 L434.8562012,54.375 L434.8562012,47.4179688 L435.7131348,47.4179688 L435.8845215,48.3701172 L435.9353027,48.3701172 C436.1342163,48.0315704 436.4145508,47.7670898 436.7763672,47.5766602 C437.1381836,47.3862305 437.543396,47.2910156 437.9919434,47.2910156 C439.0795288,47.2910156 439.7904663,47.6845627 440.1247559,48.4716797 L440.1755371,48.4716797 C440.3828735,48.1077423 440.6833496,47.8199844 441.0769043,47.6083984 C441.470459,47.3968124 441.9190063,47.2910156 442.4226074,47.2910156 C443.2097168,47.2910156 443.7990112,47.4930801 444.1904297,47.8972168 C444.5818481,48.3013535 444.7775879,48.9477463 444.7775879,49.8364258 L444.7775879,54.375 Z M455.723877,54.375 L455.723877,49.8491211 C455.723877,49.294754 455.6054077,48.8789902 455.3684082,48.6018066 C455.1314087,48.3246231 454.7632446,48.1860352 454.263916,48.1860352 C453.6079712,48.1860352 453.1234741,48.3743439 452.8103027,48.7509766 C452.4971313,49.1276093 452.3405762,49.7073517 452.3405762,50.4902344 L452.3405762,54.375 L451.2868652,54.375 L451.2868652,49.8491211 C451.2868652,49.294754 451.168396,48.8789902 450.9313965,48.6018066 C450.694397,48.3246231 450.3241577,48.1860352 449.8205566,48.1860352 C449.1604004,48.1860352 448.6769409,48.3838654 448.3701172,48.779541 C448.0632935,49.1752167 447.9099121,49.8237228 447.9099121,50.7250977 L447.9099121,54.375 L446.8562012,54.375 L446.8562012,47.4179688 L447.7131348,47.4179688 L447.8845215,48.3701172 L447.9353027,48.3701172 C448.1342163,48.0315704 448.4145508,47.7670898 448.7763672,47.5766602 C449.1381836,47.3862305 449.543396,47.2910156 449.9919434,47.2910156 C451.0795288,47.2910156 451.7904663,47.6845627 452.1247559,48.4716797 L452.1755371,48.4716797 C452.3828735,48.1077423 452.6833496,47.8199844 453.0769043,47.6083984 C453.470459,47.3968124 453.9190063,47.2910156 454.4226074,47.2910156 C455.2097168,47.2910156 455.7990112,47.4930801 456.1904297,47.8972168 C456.5818481,48.3013535 456.7775879,48.9477463 456.7775879,49.8364258 L456.7775879,54.375 Z M463.1345215,54.375 L462.9250488,53.3847656 L462.8742676,53.3847656 C462.5272827,53.8206406 462.1813354,54.1158066 461.8364258,54.2702637 C461.4915161,54.4247208 461.0609741,54.5019531 460.5446777,54.5019531 C459.8548889,54.5019531 459.31427,54.3242188 458.9228516,53.96875 C458.5314331,53.6132813 458.3356934,53.1075897 458.3356934,52.4516602 C458.3356934,51.0467072 459.4592285,50.3103867 461.7062988,50.2426758 L462.8869629,50.2045898 L462.8869629,49.7729492 C462.8869629,49.2270508 462.7695313,48.8239746 462.534668,48.5637207 C462.2998047,48.3034668 461.9242554,48.1733398 461.407959,48.1733398 C460.828186,48.1733398 460.1723022,48.3510742 459.4401855,48.706543 L459.1164551,47.9003906 C459.4592285,47.7141953 459.8347778,47.5681992 460.2431641,47.4624023 C460.6515503,47.3566055 461.0609741,47.3037109 461.4714355,47.3037109 C462.3008728,47.3037109 462.9155273,47.487793 463.3154297,47.855957 C463.715332,48.2241211 463.9152832,48.8144455 463.9152832,49.6269531 L463.9152832,54.375 Z M460.7541504,53.6323242 C461.4100952,53.6323242 461.925293,53.4524765 462.2998047,53.0927734 C462.6743164,52.7330704 462.8615723,52.2294922 462.8615723,51.5820313 L462.8615723,50.9536133 L461.8078613,50.9980469 C460.9699707,51.0276718 460.3659058,51.1577988 459.9956055,51.3884277 C459.6253052,51.6190567 459.4401855,51.9776993 459.4401855,52.4643555 C459.4401855,52.8452148 459.555481,53.1350937 459.7861328,53.3339844 C460.0167847,53.5328751 460.3394165,53.6323242 460.7541504,53.6323242 Z M470.6169434,54.375 L470.6169434,49.8745117 C470.6169434,49.3074493 470.487854,48.8842773 470.2297363,48.6049805 C469.9716187,48.3256836 469.5674744,48.1860352 469.017334,48.1860352 C468.2894592,48.1860352 467.7562866,48.3828125 467.4177246,48.7763672 C467.0791626,49.1699219 466.9099121,49.8194962 466.9099121,50.7250977 L466.9099121,54.375 L465.8562012,54.375 L465.8562012,47.4179688 L466.7131348,47.4179688 L466.8845215,48.3701172 L466.9353027,48.3701172 C467.151123,48.0273438 467.4536743,47.7618027 467.8430176,47.5734863 C468.2323608,47.38517 468.6660767,47.2910156 469.1442871,47.2910156 C469.9821777,47.2910156 470.6127319,47.4930801 471.0358887,47.8972168 C471.4590454,48.3013535 471.6706543,48.9477463 471.6706543,49.8364258 L471.6706543,54.375 Z M478.5915527,53.4418945 L478.5344238,53.4418945 C478.0477905,54.1486053 477.3199158,54.5019531 476.3508301,54.5019531 C475.440979,54.5019531 474.7332153,54.190918 474.2275391,53.5688477 C473.7218628,52.9467773 473.4689941,52.0623398 473.4689941,50.9155273 C473.4689941,49.7687149 473.7229004,48.8779297 474.2307129,48.2431641 C474.7385254,47.6083984 475.4452209,47.2910156 476.3508301,47.2910156 C477.2945251,47.2910156 478.0181274,47.6337891 478.5217285,48.3193359 L478.604248,48.3193359 L478.5598145,47.8178711 L478.5344238,47.3291016 L478.5344238,44.4980469 L479.5881348,44.4980469 L479.5881348,54.375 L478.7312012,54.375 Z M476.4841309,53.6196289 C477.2035522,53.6196289 477.7250977,53.423912 478.0488281,53.0324707 C478.3725586,52.6410294 478.5344238,52.0094452 478.5344238,51.1376953 L478.5344238,50.9155273 C478.5344238,49.9295197 478.3704224,49.2259979 478.0424805,48.8049316 C477.7145386,48.3838654 477.1908569,48.1733398 476.4714355,48.1733398 C475.8535767,48.1733398 475.3806763,48.4134903 475.0527344,48.8937988 C474.7247925,49.3741074 474.560791,50.0522385 474.560791,50.9282227 C474.560791,51.8169022 474.7236938,52.4876251 475.0495605,52.9404297 C475.3754272,53.3932343 475.8535767,53.6196289 476.4841309,53.6196289 Z M480.7053223,54.375" style="fill:rgb(48,48,48);stroke:none" clip-path="url(#clip13)" />
<clipPath id="clip14"><path d="M495,43 L508,43 L508,56 L495,56 L495,43 Z" /></clipPath>
<path d="M505.5,49 C505.5,46.5147171 503.4852905,44.5 501,44.5 C498.5147095,44.5 496.5,46.5147171 496.5,49 C496.5,51.4852829 498.5147095,53.5 501,53.5 C503.4852905,53.5 505.5,51.4852829 505.5,49 Z M505.5,49" style="fill:rgb(250,250,250);stroke:none" clip-path="url(#clip14)" />
<clipPath id="clip15"><path d="M495,43 L508,43 L508,56 L495,56 L495,43 Z" /></clipPath>
<path d="M505.5,49 C505.5,46.5147171 503.4852905,44.5 501,44.5 C498.5147095,44.5 496.5,46.5147171 496.5,49 C496.5,51.4852829 498.5147095,53.5 501,53.5 C503.4852905,53.5 505.5,51.4852829 505.5,49 Z M505.5,49" style="fill:none;stroke:rgb(127,127,127)" clip-path="url(#clip15)" />
<clipPath id="clip16"><path d="M495,43 L508,43 L508,56 L495,56 L495,43 Z" /></clipPath>
<path d="M499,49 L503,49" style="fill:none;stroke:rgb(150,160,200)" clip-path="url(#clip16)" />
<clipPath id="clip17"><path d="M514,14 L571,14 L571,39 L514,39 L514,14 Z" /></clipPath>
<path d="M516,37 L568,37 Z M516,37" style="fill:none;stroke:rgb(127,127,127)" clip-path="url(#clip17)" />
<clipPath id="clip18"><path d="M536,17 L561,17 L561,36 L536,36 L536,17 Z" /></clipPath>
<path d="M542.8925781,28.2871094 C542.8925781,28.7851563 542.7070313,29.1692657 542.3359375,29.4394531 C541.9648438,29.7096405 541.4439697,29.8447266 540.7734375,29.8447266 C540.0638428,29.8447266 539.510437,29.7324219 539.1132813,29.5078125 L539.1132813,28.7558594 C539.3704224,28.8860703 539.6463013,28.9886093 539.940918,29.0634766 C540.2354736,29.1383438 540.5195313,29.1757813 540.7929688,29.1757813 C541.2161865,29.1757813 541.541626,29.1082382 541.7695313,28.9731445 C541.9974365,28.8380508 542.1113281,28.632164 542.1113281,28.3554688 C542.1113281,28.1471329 542.0209961,27.9689102 541.840332,27.8208008 C541.659668,27.6726913 541.307251,27.4977188 540.7832031,27.2958984 C540.2851563,27.1103516 539.9311523,26.9484024 539.7211914,26.8100586 C539.5112305,26.6717148 539.3549805,26.5146484 539.2524414,26.3388672 C539.1499023,26.1630859 539.0986328,25.953125 539.0986328,25.7089844 C539.0986328,25.2727814 539.276062,24.9285507 539.6308594,24.6762695 C539.9856567,24.4239883 540.47229,24.2978516 541.0908203,24.2978516 C541.6669922,24.2978516 542.2301025,24.4150391 542.7802734,24.6494141 L542.4921875,25.3085938 C541.9550781,25.0872421 541.4683838,24.9765625 541.0322266,24.9765625 C540.6480713,24.9765625 540.3583984,25.0367813 540.1630859,25.1572266 C539.9677734,25.2776718 539.8701172,25.4436874 539.8701172,25.6552734 C539.8701172,25.7985001 539.9067383,25.9205704 539.9799805,26.0214844 C540.0532227,26.1223984 540.1712646,26.2184219 540.3339844,26.3095703 C540.4967041,26.4007187 540.8092041,26.5325546 541.2714844,26.7050781 C541.90625,26.9361954 542.335083,27.1689453 542.5581055,27.4033203 C542.7811279,27.6376953 542.8925781,27.9322891 542.8925781,28.2871094 Z M549.0595703,27.0664063 C549.0595703,27.9388046 548.8398438,28.6199493 548.4003906,29.1098633 C547.9609375,29.5997772 547.3538818,29.8447266 546.5791016,29.8447266 C546.1005859,29.8447266 545.6757813,29.7324219 545.3046875,29.5078125 C544.9335938,29.2832031 544.6470947,28.9609375 544.4453125,28.5410156 C544.2435303,28.1210938 544.1425781,27.6295624 544.1425781,27.0664063 C544.1425781,26.1940079 544.3607178,25.5144882 544.796875,25.027832 C545.2330322,24.5411758 545.838501,24.2978516 546.6132813,24.2978516 C547.3619385,24.2978516 547.9569092,24.546875 548.3979492,25.0449219 C548.8389893,25.5429688 549.0595703,26.2167892 549.0595703,27.0664063 Z M544.9824219,27.0664063 C544.9824219,27.75 545.1191406,28.2708282 545.3925781,28.6289063 C545.6660156,28.9869843 546.0679932,29.1660156 546.5986328,29.1660156 C547.1292725,29.1660156 547.5321045,28.987793 547.8071289,28.6313477 C548.0821533,28.2749023 548.2197266,27.7532578 548.2197266,27.0664063 C548.2197266,26.3860626 548.0821533,25.8693085 547.8071289,25.5161133 C547.5321045,25.1629181 547.1259766,24.9863281 546.5888672,24.9863281 C546.0582275,24.9863281 545.6578369,25.1604767 545.3876953,25.5087891 C545.1175537,25.8571014 544.9824219,26.376297 544.9824219,27.0664063 Z M552.8818359,24.2978516 C553.1195068,24.2978516 553.3326416,24.3173828 553.5214844,24.3564453 L553.4091797,25.1083984 C553.1878662,25.0595703 552.9925537,25.0351563 552.8232422,25.0351563 C552.3902588,25.0351563 552.0200195,25.2109375 551.7124023,25.5625 C551.4047852,25.9140625 551.2509766,26.3518829 551.2509766,26.8759766 L551.2509766,29.7470703 L550.4404297,29.7470703 L550.4404297,24.3955078 L551.109375,24.3955078 L551.2021484,25.3867188 L551.2412109,25.3867188 C551.4398193,25.0384064 551.6790771,24.7698593 551.9589844,24.5810547 C552.2388916,24.3922501 552.5465088,24.2978516 552.8818359,24.2978516 Z M556.1689453,29.1757813 C556.3121338,29.1757813 556.4505615,29.1651993 556.5839844,29.144043 C556.7174072,29.1228867 556.8232422,29.100914 556.9013672,29.078125 L556.9013672,29.6982422 C556.8134766,29.7405624 556.684082,29.7755508 556.5131836,29.8032227 C556.3422852,29.8308945 556.1884766,29.8447266 556.0517578,29.8447266 C555.0166016,29.8447266 554.4990234,29.2994843 554.4990234,28.2089844 L554.4990234,25.0253906 L553.7324219,25.0253906 L553.7324219,24.6347656 L554.4990234,24.2978516 L554.8408203,23.1552734 L555.3095703,23.1552734 L555.3095703,24.3955078 L556.8623047,24.3955078 L556.8623047,25.0253906 L555.3095703,25.0253906 L555.3095703,28.1748047 C555.3095703,28.4970703 555.3861084,28.7444687 555.5390625,28.9169922 C555.6920166,29.0895157 555.9019775,29.1757813 556.1689453,29.1757813 Z M557.1113281,29.7470703" style="fill:rgb(0,0,0);stroke:none" clip-path="url(#clip18)" />
<clipPath id="clip19"><path d="M524,20 L536,20 L536,32 L524,32 L524,20 Z" /></clipPath>
<path d="M533,37 C537.4182739,37 541,33.4182777 541,29 C541,24.5817223 537.4182739,21 533,21 C528.5817261,21 525,24.5817223 525,29 C525,33.4182777 528.5817261,37 533,37 L533,37 L533,37 L533,37 L533,37 L533,37 L533,37 L533,37 L533,37 L533,37 L533,37 L533,37 Z M540,29 C540,32.8659935 536.8659668,36 533,36 C529.1340332,36 526,32.8659935 526,29 C526,25.1340065 529.1340332,22 533,22 L533,29 L540,29 Z M540,29" style="fill:rgb(0,209,86);stroke:none" clip-path="url(#clip19)" />
<clipPath id="clip20"><path d="M514,38 L591,38 L591,63 L514,63 L514,38 Z" /></clipPath>
<path d="M516,61 L588,61 Z M516,61" style="fill:none;stroke:rgb(127,127,127)" clip-path="url(#clip20)" />
<clipPath id="clip21"><path d="M536,41 L581,41 L581,60 L536,60 L536,41 Z" /></clipPath>
<path d="M540.1186523,53.0976563 L539.3081055,53.0976563 L539.3081055,47.7460938 L540.1186523,47.7460938 Z M539.2397461,46.2958984 C539.2397461,46.1103516 539.2853394,45.9744492 539.3764648,45.8881836 C539.4675903,45.801918 539.581543,45.7587891 539.7182617,45.7587891 C539.8484497,45.7587891 539.9607544,45.8027344 540.0551758,45.890625 C540.1495361,45.9785156 540.1967773,46.1136093 540.1967773,46.2958984 C540.1967773,46.4781876 540.1495361,46.6140976 540.0551758,46.7036133 C539.9607544,46.793129 539.8484497,46.8378906 539.7182617,46.8378906 C539.581543,46.8378906 539.4675903,46.793129 539.3764648,46.7036133 C539.2853394,46.6140976 539.2397461,46.4781876 539.2397461,46.2958984 Z M544.7983398,53.1953125 C544.4500732,53.1953125 544.1318359,53.1310196 543.84375,53.0024414 C543.5556641,52.8738632 543.3139648,52.6761093 543.1186523,52.4091797 L543.0600586,52.4091797 C543.0991211,52.7216797 543.1186523,53.0178986 543.1186523,53.2978516 L543.1186523,55.5 L542.3081055,55.5 L542.3081055,47.7460938 L542.9672852,47.7460938 L543.0795898,48.4785156 L543.1186523,48.4785156 C543.3270264,48.1855469 543.569458,47.9739609 543.8461914,47.84375 C544.1229248,47.7135391 544.4403076,47.6484375 544.7983398,47.6484375 C545.5079346,47.6484375 546.0556641,47.8909454 546.4414063,48.3759766 C546.8271484,48.8610077 547.0200195,49.5413361 547.0200195,50.4169922 C547.0200195,51.2959061 546.8238525,51.9786758 546.4316406,52.465332 C546.0394287,52.9519882 545.4949951,53.1953125 544.7983398,53.1953125 Z M544.6811523,48.3369141 C544.1342773,48.3369141 543.7387695,48.4882813 543.4946289,48.7910156 C543.2504883,49.09375 543.1251221,49.5755157 543.1186523,50.2363281 L543.1186523,50.4169922 C543.1186523,51.1689453 543.2440186,51.7068634 543.4946289,52.0307617 C543.7452393,52.35466 544.1473389,52.5166016 544.7006836,52.5166016 C545.1629639,52.5166016 545.5250244,52.3294296 545.7871094,51.9550781 C546.0491943,51.5807266 546.1801758,51.0647812 546.1801758,50.4072266 C546.1801758,49.7399063 546.0491943,49.2280273 545.7871094,48.871582 C545.5250244,48.5151367 545.1563721,48.3369141 544.6811523,48.3369141 Z M550.0366211,52.5263672 C550.1798096,52.5263672 550.3182373,52.5157852 550.4516602,52.4946289 C550.585083,52.4734726 550.690918,52.4514999 550.769043,52.4287109 L550.769043,53.0488281 C550.6811523,53.0911484 550.5517578,53.1261368 550.3808594,53.1538086 C550.2099609,53.1814804 550.0561523,53.1953125 549.9194336,53.1953125 C548.8842773,53.1953125 548.3666992,52.6500702 548.3666992,51.5595703 L548.3666992,48.3759766 L547.6000977,48.3759766 L547.6000977,47.9853516 L548.3666992,47.6484375 L548.7084961,46.5058594 L549.1772461,46.5058594 L549.1772461,47.7460938 L550.7299805,47.7460938 L550.7299805,48.3759766 L549.1772461,48.3759766 L549.1772461,51.5253906 C549.1772461,51.8476563 549.2537842,52.0950546 549.4067383,52.2675781 C549.5596924,52.4401016 549.7696533,52.5263672 550.0366211,52.5263672 Z M555.5991211,53.0976563 L555.4379883,52.3359375 L555.3989258,52.3359375 C555.131958,52.6712265 554.8658447,52.8982773 554.6005859,53.0170898 C554.3353271,53.1359024 554.0040283,53.1953125 553.6069336,53.1953125 C553.0762939,53.1953125 552.6605225,53.0585938 552.359375,52.7851563 C552.0582275,52.5117188 551.9077148,52.1227264 551.9077148,51.6181641 C551.9077148,50.5374298 552.7719727,49.9710312 554.5004883,49.9189453 L555.4086914,49.8896484 L555.4086914,49.5576172 C555.4086914,49.1376953 555.3183594,48.8276367 555.1376953,48.6274414 C554.9570313,48.4272461 554.6680908,48.3271484 554.2709961,48.3271484 C553.8250732,48.3271484 553.3204346,48.4638672 552.7573242,48.7373047 L552.5083008,48.1171875 C552.7719727,47.9739609 553.0609131,47.8616562 553.375,47.7802734 C553.6890869,47.6988907 554.0040283,47.6582031 554.3198242,47.6582031 C554.9578857,47.6582031 555.4306641,47.7998047 555.7382813,48.0830078 C556.0458984,48.3662109 556.199707,48.8203125 556.199707,49.4453125 L556.199707,53.0976563 Z M553.7680664,52.5263672 C554.272583,52.5263672 554.6689453,52.3880234 554.9570313,52.1113281 C555.2451172,51.8346329 555.3891602,51.4472656 555.3891602,50.9492188 L555.3891602,50.4658203 L554.5786133,50.5 C553.934082,50.522789 553.4693604,50.6228867 553.1845703,50.800293 C552.8997803,50.9776993 552.7573242,51.2535782 552.7573242,51.6279297 C552.7573242,51.9208984 552.8460693,52.1438828 553.0234375,52.296875 C553.2008057,52.4498672 553.4490967,52.5263672 553.7680664,52.5263672 Z M560.7983398,47.6582031 C561.5014648,47.6582031 562.0474854,47.8982697 562.4365234,48.378418 C562.8255615,48.8585663 563.0200195,49.5380783 563.0200195,50.4169922 C563.0200195,51.2959061 562.8238525,51.9786758 562.4316406,52.465332 C562.0394287,52.9519882 561.4949951,53.1953125 560.7983398,53.1953125 C560.4500732,53.1953125 560.1318359,53.1310196 559.84375,53.0024414 C559.5556641,52.8738632 559.3139648,52.6761093 559.1186523,52.4091797 L559.0600586,52.4091797 L558.8891602,53.0976563 L558.3081055,53.0976563 L558.3081055,45.5 L559.1186523,45.5 L559.1186523,47.3457031 C559.1186523,47.7591171 559.1055908,48.1302032 559.0795898,48.4589844 L559.1186523,48.4589844 C559.4962158,47.9251251 560.0561523,47.6582031 560.7983398,47.6582031 Z M560.6811523,48.3369141 C560.1278076,48.3369141 559.7290039,48.4956055 559.4848633,48.8129883 C559.2407227,49.1303711 559.1186523,49.6650391 559.1186523,50.4169922 C559.1186523,51.1689453 559.2440186,51.7068634 559.4946289,52.0307617 C559.7452393,52.35466 560.1473389,52.5166016 560.7006836,52.5166016 C561.1987305,52.5166016 561.5698242,52.3351288 561.8139648,51.972168 C562.0581055,51.6092072 562.1801758,51.0875702 562.1801758,50.4072266 C562.1801758,49.7106094 562.0581055,49.1914063 561.8139648,48.8496094 C561.5698242,48.5078125 561.1922607,48.3369141 560.6811523,48.3369141 Z M565.1186523,53.0976563 L564.3081055,53.0976563 L564.3081055,45.5 L565.1186523,45.5 Z M569.5688477,53.1953125 C568.777832,53.1953125 568.1536865,52.9544296 567.6962891,52.4726563 C567.2388916,51.9908829 567.0102539,51.3219452 567.0102539,50.4658203 C567.0102539,49.6031876 567.2226563,48.9179688 567.6474609,48.4101563 C568.0722656,47.9023438 568.6427002,47.6484375 569.3588867,47.6484375 C570.0294189,47.6484375 570.5600586,47.8689728 570.9506836,48.3100586 C571.3413086,48.7511444 571.5366211,49.3330078 571.5366211,50.0556641 L571.5366211,50.5683594 L567.8500977,50.5683594 C567.866333,51.1966171 568.0250244,51.6735001 568.3261719,51.9990234 C568.6273193,52.3245468 569.0512695,52.4873047 569.5981445,52.4873047 C570.1743164,52.4873047 570.7440186,52.3668594 571.3071289,52.1259766 L571.3071289,52.8486328 C571.0206299,52.9723282 570.7496338,53.0610352 570.4941406,53.1147461 C570.2386475,53.168457 569.9301758,53.1953125 569.5688477,53.1953125 Z M569.3491211,48.3271484 C568.9194336,48.3271484 568.5767822,48.4671173 568.3212891,48.7470703 C568.0657959,49.0270233 567.9151611,49.4143829 567.8696289,49.9091797 L570.6674805,49.9091797 C570.6674805,49.3981094 570.5535889,49.0066757 570.3256836,48.7348633 C570.0977783,48.4630508 569.7723389,48.3271484 569.3491211,48.3271484 Z M576.7602539,51.6376953 C576.7602539,52.1357422 576.574707,52.5198517 576.2036133,52.7900391 C575.8325195,53.0602264 575.3116455,53.1953125 574.6411133,53.1953125 C573.9315186,53.1953125 573.3780518,53.0830078 572.980957,52.8583984 L572.980957,52.1064453 C573.2381592,52.2366562 573.5140381,52.3391953 573.8085938,52.4140625 C574.1031494,52.4889297 574.387207,52.5263672 574.6606445,52.5263672 C575.0838623,52.5263672 575.4093018,52.4588242 575.637207,52.3237305 C575.8651123,52.1886368 575.9790039,51.9827499 575.9790039,51.7060547 C575.9790039,51.4977188 575.8886719,51.3194962 575.7080078,51.1713867 C575.5273438,51.0232773 575.1749268,50.8483047 574.6508789,50.6464844 C574.152832,50.4609375 573.7988281,50.2989883 573.5888672,50.1606445 C573.3789063,50.0223007 573.2226563,49.8652344 573.1201172,49.6894531 C573.0175781,49.5136719 572.9663086,49.3037109 572.9663086,49.0595703 C572.9663086,48.6233673 573.1436768,48.2791367 573.4985352,48.0268555 C573.8533936,47.7745743 574.3399658,47.6484375 574.9584961,47.6484375 C575.534668,47.6484375 576.0977783,47.765625 576.6479492,48 L576.3598633,48.6591797 C575.8227539,48.4378281 575.3360596,48.3271484 574.8999023,48.3271484 C574.5157471,48.3271484 574.2260742,48.3873672 574.0307617,48.5078125 C573.8354492,48.6282578 573.737793,48.7942734 573.737793,49.0058594 C573.737793,49.149086 573.7744141,49.2711563 573.8476563,49.3720703 C573.9208984,49.4729843 574.0389404,49.5690079 574.2016602,49.6601563 C574.3643799,49.7513046 574.6768799,49.8831406 575.1391602,50.0556641 C575.7739258,50.2867813 576.2027588,50.5195313 576.4257813,50.7539063 C576.6488037,50.9882813 576.7602539,51.2828751 576.7602539,51.6376953 Z M577.2192383,53.0976563" style="fill:rgb(0,0,0);stroke:none" clip-path="url(#clip21)" />
<clipPath id="clip22"><path d="M524,44 L536,44 L536,56 L524,56 L524,44 Z" /></clipPath>
<path d="M533,61 C537.4182739,61 541,57.4182777 541,53 C541,48.5817223 537.4182739,45 533,45 C528.5817261,45 525,48.5817223 525,53 C525,57.4182777 528.5817261,61 533,61 L533,61 L533,61 L533,61 L533,61 L533,61 L533,61 L533,61 L533,61 Z M533,60 C536.8659668,60 540,56.8659935 540,53 C540,49.1340065 536.8659668,46 533,46 C529.1340332,46 526,49.1340065 526,53 C526,56.8659935 529.1340332,60 533,60 L533,60 L533,60 L533,60 L533,60 L533,60 L533,60 L533,60 L533,60 Z M536.5771484,53.0503693 L531.1187744,56.3253708 L531.1187744,49.7753716 L536.5771484,53.0503693 Z M536.5771484,53.0503693" style="fill:rgb(0,209,86);stroke:none" clip-path="url(#clip22)" />
<clipPath id="clip23"><path d="M411,106 L604,106 L604,147 L411,147 Z M417,111 C414.2385864,111 412,113.2385712 412,116 L412,140 C412,142.7614288 414.2385864,145 417,145 L477,145 C479.7614136,145 482,142.7614288 482,140 L482,116 C482,113.2385712 479.7614136,111 477,111 Z M417,111" /></clipPath>
<path d="M495,128 C495,128 496.7919922,128 499,128 L504,128" style="fill:none;stroke:rgb(127,127,127)" clip-path="url(#clip23)" />
<clipPath id="clip24"><path d="M410,105 L605,105 L605,148 L410,148 L410,105 Z" /></clipPath>
<path d="M482,128 L495,128" style="fill:none;stroke:rgb(127,127,127)" clip-path="url(#clip24)" />
<clipPath id="clip25"><path d="M410,109 L485,109 L485,148 L410,148 L410,109 Z" /></clipPath>
<path d="M417,111 C414.2385864,111 412,113.2385712 412,116 L412,140 C412,142.7614288 414.2385864,145 417,145 L477,145 C479.7614136,145 482,142.7614288 482,140 L482,116 C482,113.2385712 479.7614136,111 477,111 Z M417,111" style="fill:rgb(254,244,236);stroke:none" clip-path="url(#clip25)" />
<clipPath id="clip26"><path d="M410,109 L485,109 L485,148 L410,148 L410,109 Z" /></clipPath>
<path d="M417,111 C414.2385864,111 412,113.2385712 412,116 L412,140 C412,142.7614288 414.2385864,145 417,145 L477,145 C479.7614136,145 482,142.7614288 482,140 L482,116 C482,113.2385712 479.7614136,111 477,111 Z M417,111" style="fill:none;stroke:rgb(141,134,126)" clip-path="url(#clip26)" />
<clipPath id="clip27"><path d="M423,117 L472,117 L472,140 L423,140 L423,117 Z" /></clipPath>
<path d="M430.5202637,131.6516113 L427.3718262,123.4250488 L427.3210449,123.4250488 C427.3803101,124.0767441 427.4099121,124.8511505 427.4099121,125.748291 L427.4099121,131.6516113 L426.4133301,131.6516113 L426.4133301,122.3713379 L428.0383301,122.3713379 L430.9772949,130.0266113 L431.0280762,130.0266113 L433.9924316,122.3713379 L435.6047363,122.3713379 L435.6047363,131.6516113 L434.5256348,131.6516113 L434.5256348,125.6721191 C434.5256348,124.9865723 434.5552368,124.2417831 434.614502,123.4377441 L434.5637207,123.4377441 L431.3898926,131.6516113 Z M437.1501465,124.6945801 L438.2800293,124.6945801 L439.8034668,128.6618652 C440.1377563,129.5674744 440.3451538,130.2212677 440.4255371,130.623291 L440.4763184,130.623291 C440.531311,130.4074707 440.6466675,130.0382538 440.8222656,129.515625 C440.9978638,128.9929962 441.5723267,127.3860016 442.5456543,124.6945801 L443.6755371,124.6945801 L440.685791,132.6164551 C440.3895874,133.3993378 440.0436401,133.9547577 439.6479492,134.2827148 C439.2522583,134.610672 438.7666931,134.7746582 438.1911621,134.7746582 C437.8695679,134.7746582 437.5521851,134.7386932 437.2390137,134.666748 L437.2390137,133.8225098 C437.4717407,133.873291 437.7319946,133.8986816 438.0197754,133.8986816 C438.7434082,133.8986816 439.2597046,133.4924316 439.5686035,132.6799316 L439.9558105,131.6896973 Z M450.6501465,129.182373 C450.6501465,129.999115 450.3539429,130.6359863 449.7614746,131.0930176 C449.1690063,131.5500488 448.3649902,131.7785645 447.3493652,131.7785645 C446.2490845,131.7785645 445.402771,131.636795 444.8103027,131.3532715 L444.8103027,130.3122559 C445.1911621,130.4730682 445.605896,130.6000214 446.0544434,130.6931152 C446.5029907,130.7862091 446.9473267,130.8327637 447.3874512,130.8327637 C448.1068726,130.8327637 448.6484985,130.6962891 449.0124512,130.4233398 C449.3764038,130.1503906 449.5583496,129.7705994 449.5583496,129.2839355 C449.5583496,128.962326 449.4938354,128.6988983 449.3647461,128.4936523 C449.2356567,128.2884064 449.0198364,128.0990448 448.7172852,127.9255371 C448.4147339,127.752037 447.9545288,127.5552597 447.3366699,127.3352051 C446.4733887,127.0262833 445.8566284,126.6602402 445.4863281,126.2370605 C445.1160278,125.8138809 444.9309082,125.2616425 444.9309082,124.5803223 C444.9309082,123.8651505 445.1996155,123.2959824 445.7370605,122.8728027 C446.2745056,122.4496231 446.9854126,122.2380371 447.869873,122.2380371 C448.7924194,122.2380371 449.6408691,122.4073029 450.4152832,122.7458496 L450.0788574,123.6853027 C449.3128967,123.3636856 448.5681152,123.2028809 447.8444824,123.2028809 C447.2731934,123.2028809 446.8267212,123.3255997 446.505127,123.5710449 C446.1835327,123.8164902 446.0227051,124.1571426 446.0227051,124.5930176 C446.0227051,124.9146347 446.0819702,125.1780624 446.2004395,125.3833008 C446.3189087,125.5885391 446.5188599,125.7768555 446.800293,125.9482422 C447.0817261,126.1196289 447.5122681,126.3089981 448.092041,126.5163574 C449.0653687,126.8633652 449.7350464,127.2357559 450.1010742,127.6335449 C450.4671021,128.0313263 450.6501465,128.5476074 450.6501465,129.182373 Z M460.4685059,126.9987793 C460.4685059,128.187912 460.2294312,129.1760254 459.7512207,129.9631348 C459.2730103,130.7502441 458.5980835,131.2834473 457.7263184,131.5627441 L459.9353027,133.8605957 L458.3674316,133.8605957 L456.5583496,131.7658691 L456.2092285,131.7785645 C454.8423462,131.7785645 453.7875977,131.3606873 453.0449219,130.5249023 C452.3022461,129.6891174 451.9309082,128.5095215 451.9309082,126.986084 C451.9309082,125.4753342 452.3032837,124.3042068 453.0480957,123.4726563 C453.7929077,122.6411057 454.8508301,122.2253418 456.2219238,122.2253418 C457.5549316,122.2253418 458.5959473,122.6485138 459.3449707,123.494873 C460.0939941,124.3412323 460.4685059,125.5091858 460.4685059,126.9987793 Z M453.0734863,126.9987793 C453.0734863,128.2556152 453.3411255,129.2088165 453.8764648,129.8583984 C454.4118042,130.5079803 455.1893616,130.8327637 456.2092285,130.8327637 C457.2375488,130.8327637 458.0140686,130.5090332 458.5388184,129.8615723 C459.0635681,129.2141113 459.3259277,128.2598572 459.3259277,126.9987793 C459.3259277,125.7503967 459.0646362,124.8035507 458.5419922,124.1582031 C458.0193481,123.5128555 457.2460327,123.1901855 456.2219238,123.1901855 C455.1936035,123.1901855 454.4118042,123.5149689 453.8764648,124.1645508 C453.3411255,124.8141327 453.0734863,125.7588654 453.0734863,126.9987793 Z M462.4133301,131.6516113 L462.4133301,122.3713379 L463.4924316,122.3713379 L463.4924316,130.6740723 L467.5866699,130.6740723 L467.5866699,131.6516113 Z M467.8850098,131.6516113" style="fill:rgb(48,48,48);stroke:none" clip-path="url(#clip27)" />
<clipPath id="clip28"><path d="M483,122 L496,122 L496,135 L483,135 L483,122 Z" /></clipPath>
<path d="M493.5,128 C493.5,125.5147171 491.4852905,123.5 489,123.5 C486.5147095,123.5 484.5,125.5147171 484.5,128 C484.5,130.4852753 486.5147095,132.5 489,132.5 C491.4852905,132.5 493.5,130.4852753 493.5,128 Z M493.5,128" style="fill:rgb(250,250,250);stroke:none" clip-path="url(#clip28)" />
<clipPath id="clip29"><path d="M483,122 L496,122 L496,135 L483,135 L483,122 Z" /></clipPath>
<path d="M493.5,128 C493.5,125.5147171 491.4852905,123.5 489,123.5 C486.5147095,123.5 484.5,125.5147171 484.5,128 C484.5,130.4852753 486.5147095,132.5 489,132.5 C491.4852905,132.5 493.5,130.4852753 493.5,128 Z M493.5,128" style="fill:none;stroke:rgb(127,127,127)" clip-path="url(#clip29)" />
<clipPath id="clip30"><path d="M483,122 L496,122 L496,135 L483,135 L483,122 Z" /></clipPath>
<path d="M487,128 L491,128" style="fill:none;stroke:rgb(150,160,200)" clip-path="url(#clip30)" />
<clipPath id="clip31"><path d="M502,105 L605,105 L605,130 L502,130 L502,105 Z" /></clipPath>
<path d="M504,128 L602,128 Z M504,128" style="fill:none;stroke:rgb(127,127,127)" clip-path="url(#clip31)" />
<clipPath id="clip32"><path d="M524,108 L595,108 L595,127 L524,127 L524,108 Z" /></clipPath>
<path d="M530.7719727,117.5097656 L533.1987305,117.5097656 L533.1987305,120.9814453 C532.821106,121.1018906 532.4370117,121.1930313 532.0463867,121.2548828 C531.6557617,121.3167343 531.2033081,121.3476563 530.6889648,121.3476563 C529.6082153,121.3476563 528.7667847,121.026207 528.1645508,120.3833008 C527.5623169,119.7403946 527.2612305,118.8395233 527.2612305,117.6806641 C527.2612305,116.9384766 527.4101563,116.2882538 527.7080078,115.7299805 C528.0058594,115.1717072 528.4346924,114.745285 528.9946289,114.4506836 C529.5545654,114.1560822 530.2104492,114.0087891 530.9624023,114.0087891 C531.7241211,114.0087891 532.4337158,114.1487579 533.0913086,114.4287109 L532.769043,115.1611328 C532.1245117,114.8876953 531.5043945,114.7509766 530.9086914,114.7509766 C530.0395508,114.7509766 529.3608398,115.0097656 528.8725586,115.5273438 C528.3842773,116.0449219 528.1401367,116.7626877 528.1401367,117.6806641 C528.1401367,118.6442108 528.3753052,119.375 528.8457031,119.8730469 C529.3161011,120.3710938 530.006958,120.6201172 530.918457,120.6201172 C531.413269,120.6201172 531.8966675,120.5631485 532.3686523,120.4492188 L532.3686523,118.2519531 L530.7719727,118.2519531 Z M536.9516602,115.8007813 C537.18927,115.8007813 537.4025269,115.8203125 537.5913086,115.859375 L537.4790039,116.6113281 C537.2576294,116.5625 537.0623169,116.5380859 536.8930664,116.5380859 C536.460144,116.5380859 536.0898438,116.7138672 535.7822266,117.0654297 C535.4746094,117.4169922 535.3208008,117.8548126 535.3208008,118.3789063 L535.3208008,121.25 L534.5102539,121.25 L534.5102539,115.8984375 L535.1791992,115.8984375 L535.2719727,116.8896484 L535.3110352,116.8896484 C535.5095825,116.5413361 535.7488403,116.272789 536.0288086,116.0839844 C536.3087769,115.8951797 536.616394,115.8007813 536.9516602,115.8007813 Z M541.8012695,121.25 L541.6401367,120.4882813 L541.6010742,120.4882813 C541.3341064,120.8235703 541.0679932,121.050621 540.8027344,121.1694336 C540.5374756,121.2882462 540.2061768,121.3476563 539.809082,121.3476563 C539.2784424,121.3476563 538.8626099,121.2109375 538.5615234,120.9375 C538.260437,120.6640625 538.1098633,120.2750702 538.1098633,119.7705078 C538.1098633,118.6897736 538.9741211,118.1233749 540.7026367,118.0712891 L541.6108398,118.0419922 L541.6108398,117.7099609 C541.6108398,117.2900391 541.5205078,116.9799805 541.3398438,116.7797852 C541.1591797,116.5795898 540.8702393,116.4794922 540.4731445,116.4794922 C540.0272217,116.4794922 539.522644,116.6162109 538.9594727,116.8896484 L538.7104492,116.2695313 C538.9741211,116.1263046 539.2630005,116.0139999 539.5771484,115.9326172 C539.8912964,115.8512344 540.2061768,115.8105469 540.5219727,115.8105469 C541.1600342,115.8105469 541.6328125,115.9521484 541.9404297,116.2353516 C542.2480469,116.5185547 542.4018555,116.9726563 542.4018555,117.5976563 L542.4018555,121.25 Z M539.9702148,120.6787109 C540.4747314,120.6787109 540.8710938,120.5403671 541.1591797,120.2636719 C541.4472656,119.9869766 541.5913086,119.5996094 541.5913086,119.1015625 L541.5913086,118.6181641 L540.7807617,118.6523438 C540.1362305,118.6751328 539.6715698,118.7752304 539.3867188,118.9526367 C539.1018677,119.130043 538.9594727,119.4059219 538.9594727,119.7802734 C538.9594727,120.0732422 539.0481567,120.2962265 539.2255859,120.4492188 C539.4030151,120.602211 539.6511841,120.6787109 539.9702148,120.6787109 Z M548.1723633,121.25 L548.1723633,117.7880859 C548.1723633,117.3518829 548.0731201,117.0263672 547.8745117,116.8115234 C547.6759033,116.5966797 547.3651123,116.4892578 546.9418945,116.4892578 C546.381958,116.4892578 545.9718018,116.640625 545.7114258,116.9433594 C545.4510498,117.2460938 545.3208008,117.7457657 545.3208008,118.4423828 L545.3208008,121.25 L544.5102539,121.25 L544.5102539,115.8984375 L545.1694336,115.8984375 L545.3012695,116.6308594 L545.340332,116.6308594 C545.5063477,116.3671875 545.7391357,116.1629257 546.0385742,116.0180664 C546.3380127,115.8732071 546.6717529,115.8007813 547.0395508,115.8007813 C547.684082,115.8007813 548.1690674,115.9562149 548.4946289,116.2670898 C548.8201904,116.5779648 548.9829102,117.0751953 548.9829102,117.7587891 L548.9829102,121.25 Z M552.2387695,120.6787109 C552.381958,120.6787109 552.5203857,120.668129 552.6538086,120.6469727 C552.7872314,120.6258163 552.8930664,120.6038437 552.9711914,120.5810547 L552.9711914,121.2011719 C552.8833008,121.2434921 552.7539063,121.2784805 552.5830078,121.3061523 C552.4121094,121.3338242 552.2583008,121.3476563 552.121582,121.3476563 C551.0864258,121.3476563 550.5688477,120.8024139 550.5688477,119.7119141 L550.5688477,116.5283203 L549.8022461,116.5283203 L549.8022461,116.1376953 L550.5688477,115.8007813 L550.9106445,114.6582031 L551.3793945,114.6582031 L551.3793945,115.8984375 L552.9321289,115.8984375 L552.9321289,116.5283203 L551.3793945,116.5283203 L551.3793945,119.6777344 C551.3793945,120 551.4559326,120.2473984 551.6088867,120.4199219 C551.7618408,120.5924454 551.9718018,120.6787109 552.2387695,120.6787109 Z M557.2202148,114.1113281 L554.559082,121.25 L553.7485352,121.25 L556.409668,114.1113281 Z M559.4624023,118.28125 L559.4624023,121.25 L558.6323242,121.25 L558.6323242,114.1113281 L560.590332,114.1113281 C561.4659424,114.1113281 562.112915,114.2789688 562.53125,114.6142578 C562.949585,114.9495468 563.1586914,115.4541016 563.1586914,116.1279297 C563.1586914,117.0719452 562.6801758,117.7099609 561.7231445,118.0419922 L563.6616211,121.25 L562.6801758,121.25 L560.9516602,118.28125 Z M559.4624023,117.5683594 L560.6000977,117.5683594 C561.1860352,117.5683594 561.6157227,117.4519882 561.8891602,117.2192383 C562.1625977,116.9864883 562.2993164,116.6373749 562.2993164,116.171875 C562.2993164,115.6998672 562.1601563,115.3597031 561.8818359,115.1513672 C561.6035156,114.9430313 561.1567383,114.8388672 560.5415039,114.8388672 L559.4624023,114.8388672 Z M566.7709961,121.3476563 C565.9799805,121.3476563 565.355835,121.1067734 564.8984375,120.625 C564.44104,120.1432266 564.2124023,119.4742889 564.2124023,118.6181641 C564.2124023,117.7555313 564.4248047,117.0703125 564.8496094,116.5625 C565.2744141,116.0546875 565.8448486,115.8007813 566.5610352,115.8007813 C567.2315674,115.8007813 567.762207,116.0213165 568.152832,116.4624023 C568.543457,116.9034882 568.7387695,117.4853516 568.7387695,118.2080078 L568.7387695,118.7207031 L565.0522461,118.7207031 C565.0684814,119.3489609 565.2271729,119.8258438 565.5283203,120.1513672 C565.8294678,120.4768906 566.253418,120.6396484 566.800293,120.6396484 C567.3764648,120.6396484 567.946167,120.5192108 568.5092773,120.2783203 L568.5092773,121.0009766 C568.2227783,121.1246719 567.9517822,121.2133789 567.6962891,121.2670898 C567.4407959,121.3208008 567.1323242,121.3476563 566.7709961,121.3476563 Z M566.5512695,116.4794922 C566.121582,116.4794922 565.7789307,116.6194611 565.5234375,116.8994141 C565.2679443,117.1793671 565.1173096,117.5667267 565.0717773,118.0615234 L567.8696289,118.0615234 C567.8696289,117.5504532 567.7557373,117.1590195 567.527832,116.887207 C567.2999268,116.6153946 566.9744873,116.4794922 566.5512695,116.4794922 Z M571.6821289,121.25 L569.6508789,115.8984375 L570.5200195,115.8984375 L571.6723633,119.0722656 C571.9327393,119.8144531 572.0858154,120.2962265 572.1313477,120.5175781 L572.1704102,120.5175781 C572.2061768,120.3450546 572.3193359,119.987793 572.5097656,119.4458008 C572.7001953,118.9038086 573.1274414,117.7213593 573.7915039,115.8984375 L574.6606445,115.8984375 L572.6293945,121.25 Z M580.1293945,118.5693359 C580.1293945,119.4417343 579.909668,120.122879 579.4702148,120.612793 C579.0307617,121.1027069 578.4237061,121.3476563 577.6489258,121.3476563 C577.1704102,121.3476563 576.7456055,121.2353516 576.3745117,121.0107422 C576.003418,120.7861328 575.7169189,120.4638672 575.5151367,120.0439453 C575.3133545,119.6240234 575.2124023,119.1324921 575.2124023,118.5693359 C575.2124023,117.6969376 575.430542,117.0174179 575.8666992,116.5307617 C576.3028564,116.0441055 576.9083252,115.8007813 577.6831055,115.8007813 C578.4317627,115.8007813 579.0267334,116.0498047 579.4677734,116.5478516 C579.9088135,117.0458984 580.1293945,117.7197189 580.1293945,118.5693359 Z M576.0522461,118.5693359 C576.0522461,119.2529297 576.1889648,119.7737579 576.4624023,120.1318359 C576.7358398,120.4899139 577.1378174,120.6689453 577.668457,120.6689453 C578.1990967,120.6689453 578.6019287,120.4907227 578.8769531,120.1342773 C579.1519775,119.777832 579.2895508,119.2561874 579.2895508,118.5693359 C579.2895508,117.8889923 579.1519775,117.3722382 578.8769531,117.019043 C578.6019287,116.6658478 578.1958008,116.4892578 577.6586914,116.4892578 C577.1280518,116.4892578 576.7276611,116.6634064 576.4575195,117.0117188 C576.1873779,117.3600311 576.0522461,117.8792267 576.0522461,118.5693359 Z M582.3110352,118.5107422 C582.4510498,118.3121719 582.6641846,118.0517578 582.9506836,117.7294922 L584.6791992,115.8984375 L585.6411133,115.8984375 L583.4731445,118.1787109 L585.7924805,121.25 L584.8110352,121.25 L582.9213867,118.7207031 L582.3110352,119.2480469 L582.3110352,121.25 L581.5102539,121.25 L581.5102539,113.6523438 L582.3110352,113.6523438 L582.3110352,117.6806641 C582.3110352,117.8597031 582.2979736,118.1363907 582.2719727,118.5107422 Z M588.7709961,121.3476563 C587.9799805,121.3476563 587.355835,121.1067734 586.8984375,120.625 C586.44104,120.1432266 586.2124023,119.4742889 586.2124023,118.6181641 C586.2124023,117.7555313 586.4248047,117.0703125 586.8496094,116.5625 C587.2744141,116.0546875 587.8448486,115.8007813 588.5610352,115.8007813 C589.2315674,115.8007813 589.762207,116.0213165 590.152832,116.4624023 C590.543457,116.9034882 590.7387695,117.4853516 590.7387695,118.2080078 L590.7387695,118.7207031 L587.0522461,118.7207031 C587.0684814,119.3489609 587.2271729,119.8258438 587.5283203,120.1513672 C587.8294678,120.4768906 588.253418,120.6396484 588.800293,120.6396484 C589.3764648,120.6396484 589.946167,120.5192108 590.5092773,120.2783203 L590.5092773,121.0009766 C590.2227783,121.1246719 589.9517822,121.2133789 589.6962891,121.2670898 C589.4407959,121.3208008 589.1323242,121.3476563 588.7709961,121.3476563 Z M588.5512695,116.4794922 C588.121582,116.4794922 587.7789307,116.6194611 587.5234375,116.8994141 C587.2679443,117.1793671 587.1173096,117.5667267 587.0717773,118.0615234 L589.8696289,118.0615234 C589.8696289,117.5504532 589.7557373,117.1590195 589.527832,116.887207 C589.2999268,116.6153946 588.9744873,116.4794922 588.5512695,116.4794922 Z M591.2612305,121.25" style="fill:rgb(0,0,0);stroke:none" clip-path="url(#clip32)" />
<clipPath id="clip33"><path d="M512,111 L524,111 L524,123 L512,123 L512,111 Z" /></clipPath>
<path d="M521,128 C525.4182739,128 529,124.4182739 529,120 C529,115.5817261 525.4182739,112 521,112 C516.5817261,112 513,115.5817261 513,120 C513,124.4182739 516.5817261,128 521,128 L521,128 L521,128 L521,128 L521,128 L521,128 L521,128 L521,128 L521,128 L521,128 L521,128 L521,128 L521,128 L521,128 L521,128 L521,128 Z M525.6096191,114.7318878 C527.0747681,116.0149536 528,117.8994293 528,120 C528,123.8659973 524.8659668,127 521,127 C517.1340332,127 514,123.8659973 514,120 C514,116.1340027 517.1340332,113 521,113 L521,120 L525.6096191,114.7318878 Z M525.6096191,114.7318878" style="fill:rgb(0,209,86);stroke:none" clip-path="url(#clip33)" />
<clipPath id="clip34"><path d="M372,185 L554,185 L554,226 L372,226 Z M378,190 C375.2385864,190 373,192.2385712 373,195 L373,219 C373,221.7614288 375.2385864,224 378,224 L425,224 C427.7614136,224 430,221.7614288 430,219 L430,195 C430,192.2385712 427.7614136,190 425,190 Z M378,190" /></clipPath>
<path d="M443,207 C443,207 444.7919922,207 447,207 L452,207" style="fill:none;stroke:rgb(127,127,127)" clip-path="url(#clip34)" />
<clipPath id="clip35"><path d="M371,184 L555,184 L555,227 L371,227 L371,184 Z" /></clipPath>
<path d="M430,207 L443,207" style="fill:none;stroke:rgb(127,127,127)" clip-path="url(#clip35)" />
<clipPath id="clip36"><path d="M371,188 L433,188 L433,227 L371,227 L371,188 Z" /></clipPath>
<path d="M378,190 C375.2385864,190 373,192.2385712 373,195 L373,219 C373,221.7614288 375.2385864,224 378,224 L425,224 C427.7614136,224 430,221.7614288 430,219 L430,195 C430,192.2385712 427.7614136,190 425,190 Z M378,190" style="fill:rgb(254,244,236);stroke:none" clip-path="url(#clip36)" />
<clipPath id="clip37"><path d="M371,188 L433,188 L433,227 L371,227 L371,188 Z" /></clipPath>
<path d="M378,190 C375.2385864,190 373,192.2385712 373,195 L373,219 C373,221.7614288 375.2385864,224 378,224 L425,224 C427.7614136,224 430,221.7614288 430,219 L430,195 C430,192.2385712 427.7614136,190 425,190 Z M378,190" style="fill:none;stroke:rgb(141,134,126)" clip-path="url(#clip37)" />
<clipPath id="clip38"><path d="M384,196 L420,196 L420,219 L384,219 L384,196 Z" /></clipPath>
<path d="M392.7258301,212.375 L387.5524902,212.375 L387.5524902,203.0947266 L392.7258301,203.0947266 L392.7258301,204.0532227 L388.6315918,204.0532227 L388.6315918,207.0429688 L392.4782715,207.0429688 L392.4782715,207.9951172 L388.6315918,207.9951172 L388.6315918,211.4101563 L392.7258301,211.4101563 Z M396.0695801,208.8139648 L393.651123,205.4179688 L394.8508301,205.4179688 L396.6853027,208.0839844 L398.5134277,205.4179688 L399.7004395,205.4179688 L397.2819824,208.8139648 L399.8273926,212.375 L398.6340332,212.375 L396.6853027,209.5566406 L394.7175293,212.375 L393.5241699,212.375 Z M404.1740723,212.5019531 C403.1669006,212.5019531 402.387207,212.1919861 401.8349609,211.5720215 C401.2827148,210.9520569 401.0065918,210.0750427 401.0065918,208.940918 C401.0065918,207.7771759 401.2869263,206.8779297 401.8476563,206.2431641 C402.4083862,205.6083984 403.2070923,205.2910156 404.2438965,205.2910156 C404.5782166,205.2910156 404.9125061,205.3269958 405.2468262,205.3989258 C405.5811462,205.4708557 405.8435059,205.5555115 406.0339355,205.652832 L405.7102051,206.5478516 C405.4774475,206.4547424 405.2235718,206.377533 404.9484863,206.3161621 C404.6734009,206.2547913 404.4300842,206.2241211 404.2185059,206.2241211 C402.8050842,206.2241211 402.0983887,207.1254883 402.0983887,208.9282227 C402.0983887,209.7830505 402.270813,210.4389648 402.6157227,210.8959961 C402.9606323,211.3530273 403.4715881,211.581543 404.1486816,211.581543 C404.7284546,211.581543 405.322998,211.4566956 405.932373,211.2070313 L405.932373,212.1401367 C405.4668579,212.3813477 404.8807983,212.5019531 404.1740723,212.5019531 Z M410.3327637,212.5019531 C409.3044434,212.5019531 408.4930115,212.1888123 407.8984375,211.5625 C407.3038635,210.9361877 407.0065918,210.0665741 407.0065918,208.9536133 C407.0065918,207.8321838 407.2827148,206.9414063 407.8349609,206.28125 C408.387207,205.6210938 409.1288147,205.2910156 410.0598145,205.2910156 C410.9315796,205.2910156 411.6213379,205.577713 412.1291504,206.151123 C412.6369629,206.7245331 412.8908691,207.480957 412.8908691,208.4204102 L412.8908691,209.0869141 L408.0983887,209.0869141 C408.1195374,209.903656 408.3258362,210.5235901 408.7172852,210.9467773 C409.1087341,211.3699646 409.6599121,211.581543 410.3708496,211.581543 C411.119873,211.581543 411.8604126,211.4249725 412.5925293,211.1118164 L412.5925293,212.0512695 C412.2201538,212.2120667 411.8678589,212.3273926 411.5356445,212.3972168 C411.2034302,212.467041 410.8024902,212.5019531 410.3327637,212.5019531 Z M410.0471191,206.1733398 C409.4885254,206.1733398 409.0431519,206.3553009 408.7109375,206.7192383 C408.3787231,207.0831757 408.1830139,207.5867462 408.1237793,208.2299805 L411.7609863,208.2299805 C411.7609863,207.5655823 411.6128845,207.0567322 411.3166504,206.7033691 C411.0204163,206.3500061 410.5972595,206.1733398 410.0471191,206.1733398 Z M415.4475098,212.375 L414.3937988,212.375 L414.3937988,202.4980469 L415.4475098,202.4980469 Z M416.5646973,212.375" style="fill:rgb(48,48,48);stroke:none" clip-path="url(#clip38)" />
<clipPath id="clip39"><path d="M431,201 L444,201 L444,214 L431,214 L431,201 Z" /></clipPath>
<path d="M441.5,207 C441.5,204.5147095 439.4852905,202.5 437,202.5 C434.5147095,202.5 432.5,204.5147095 432.5,207 C432.5,209.4852905 434.5147095,211.5 437,211.5 C439.4852905,211.5 441.5,209.4852905 441.5,207 Z M441.5,207" style="fill:rgb(250,250,250);stroke:none" clip-path="url(#clip39)" />
<clipPath id="clip40"><path d="M431,201 L444,201 L444,214 L431,214 L431,201 Z" /></clipPath>
<path d="M441.5,207 C441.5,204.5147095 439.4852905,202.5 437,202.5 C434.5147095,202.5 432.5,204.5147095 432.5,207 C432.5,209.4852905 434.5147095,211.5 437,211.5 C439.4852905,211.5 441.5,209.4852905 441.5,207 Z M441.5,207" style="fill:none;stroke:rgb(127,127,127)" clip-path="url(#clip40)" />
<clipPath id="clip41"><path d="M431,201 L444,201 L444,214 L431,214 L431,201 Z" /></clipPath>
<path d="M435,207 L439,207" style="fill:none;stroke:rgb(150,160,200)" clip-path="url(#clip41)" />
<clipPath id="clip42"><path d="M450,184 L555,184 L555,209 L450,209 L450,184 Z" /></clipPath>
<path d="M452,207 L552,207 Z M452,207" style="fill:none;stroke:rgb(127,127,127)" clip-path="url(#clip42)" />
<clipPath id="clip43"><path d="M472,187 L545,187 L545,206 L472,206 L472,187 Z" /></clipPath>
<path d="M479.53125,198.1772461 C479.53125,198.8055115 479.3034058,199.2954102 478.8476563,199.6469727 C478.3919067,199.9985352 477.7734375,200.1743164 476.9921875,200.1743164 C476.145813,200.1743164 475.494812,200.0652771 475.0390625,199.847168 L475.0390625,199.0463867 C475.3320313,199.1700745 475.651062,199.2677307 475.9960938,199.3393555 C476.3411255,199.4109802 476.6829224,199.4467773 477.0214844,199.4467773 C477.5748901,199.4467773 477.9915161,199.3417969 478.2714844,199.1318359 C478.5514526,198.921875 478.6914063,198.6297302 478.6914063,198.2553711 C478.6914063,198.0079651 478.6417847,197.8053284 478.5424805,197.6474609 C478.4431763,197.4895935 478.2771606,197.3439026 478.0444336,197.2104492 C477.8117065,197.0769958 477.4577026,196.9256287 476.9824219,196.7563477 C476.3183594,196.5187073 475.8439331,196.2371521 475.559082,195.9116211 C475.274231,195.5860901 475.1318359,195.1613007 475.1318359,194.637207 C475.1318359,194.0870667 475.338562,193.6492615 475.7519531,193.3237305 C476.1653442,192.9981995 476.7122192,192.8354492 477.3925781,192.8354492 C478.1022339,192.8354492 478.7548828,192.9656525 479.3505859,193.2260742 L479.0917969,193.9487305 C478.502594,193.7013245 477.9296875,193.5776367 477.3730469,193.5776367 C476.9335938,193.5776367 476.5901489,193.6720276 476.3427734,193.8608398 C476.0953979,194.0496521 475.9716797,194.311676 475.9716797,194.6469727 C475.9716797,194.8943787 476.0172729,195.0970154 476.1083984,195.2548828 C476.1995239,195.4127502 476.3533325,195.5576172 476.5698242,195.6894531 C476.7863159,195.8212891 477.1174927,195.9669495 477.5634766,196.1264648 C478.3121948,196.3934021 478.8273315,196.6798401 479.1088867,196.9858398 C479.3904419,197.2918396 479.53125,197.6889648 479.53125,198.1772461 Z M485.8935547,192.9379883 L485.8935547,197.5571289 C485.8935547,198.3709412 485.6477661,199.0105743 485.15625,199.4760742 C484.6647339,199.9415741 483.9892578,200.1743164 483.1298828,200.1743164 C482.2705078,200.1743164 481.6056519,199.9399414 481.1352539,199.4711914 C480.664856,199.0024414 480.4296875,198.3579102 480.4296875,197.5375977 L480.4296875,192.9379883 L481.2597656,192.9379883 L481.2597656,197.5961914 C481.2597656,198.1918945 481.4225464,198.6492462 481.7480469,198.9682617 C482.0735474,199.2872772 482.552063,199.4467773 483.1835938,199.4467773 C483.7858276,199.4467773 484.2496948,199.2864685 484.5751953,198.9658203 C484.9006958,198.6451721 485.0634766,198.1853943 485.0634766,197.5864258 L485.0634766,192.9379883 Z M490.6621094,200.0766602 L488.2402344,193.7485352 L488.2011719,193.7485352 C488.2467651,194.2498474 488.2695313,194.8455353 488.2695313,195.5356445 L488.2695313,200.0766602 L487.5029297,200.0766602 L487.5029297,192.9379883 L488.7529297,192.9379883 L491.0136719,198.8266602 L491.0527344,198.8266602 L493.3330078,192.9379883 L494.5732422,192.9379883 L494.5732422,200.0766602 L493.7431641,200.0766602 L493.7431641,195.4770508 C493.7431641,194.949707 493.7659302,194.3768005 493.8115234,193.7583008 L493.7724609,193.7583008 L491.3310547,200.0766602 Z M501.0292969,195.0180664 C501.0292969,195.7407227 500.7827148,196.2965393 500.2895508,196.6855469 C499.7963867,197.0745544 499.0908203,197.269043 498.1728516,197.269043 L497.3330078,197.269043 L497.3330078,200.0766602 L496.5029297,200.0766602 L496.5029297,192.9379883 L498.3535156,192.9379883 C500.1373901,192.9379883 501.0292969,193.6313477 501.0292969,195.0180664 Z M497.3330078,196.5561523 L498.0800781,196.5561523 C498.8157654,196.5561523 499.3479614,196.4373474 499.6767578,196.199707 C500.0055542,195.9620667 500.1699219,195.5812225 500.1699219,195.0571289 C500.1699219,194.5851135 500.0153198,194.233551 499.7060547,194.0024414 C499.3967896,193.7713318 498.9150391,193.6557617 498.2607422,193.6557617 L497.3330078,193.6557617 Z M503.3330078,197.1079102 L503.3330078,200.0766602 L502.5029297,200.0766602 L502.5029297,192.9379883 L504.4609375,192.9379883 C505.3366089,192.9379883 505.9835815,193.1056213 506.4018555,193.440918 C506.8201294,193.7762146 507.0292969,194.2807617 507.0292969,194.9545898 C507.0292969,195.8986053 506.5507813,196.5366211 505.59375,196.8686523 L507.5322266,200.0766602 L506.5507813,200.0766602 L504.8222656,197.1079102 Z M503.3330078,196.3950195 L504.4707031,196.3950195 C505.0566406,196.3950195 505.4863281,196.278656 505.7597656,196.0458984 C506.0332031,195.8131409 506.1699219,195.464035 506.1699219,194.9985352 C506.1699219,194.5265198 506.0307617,194.1863708 505.7524414,193.9780273 C505.4741211,193.7696838 505.0273438,193.6655273 504.4121094,193.6655273 L503.3330078,193.6655273 Z M514.6992188,196.4975586 C514.6992188,197.6401367 514.4103394,198.5385742 513.8325195,199.1928711 C513.2546997,199.847168 512.4515381,200.1743164 511.4228516,200.1743164 C510.3713989,200.1743164 509.5600586,199.8528748 508.9887695,199.2099609 C508.4174805,198.5670471 508.1318359,197.659668 508.1318359,196.487793 C508.1318359,195.3256836 508.4182739,194.4248047 508.9912109,193.7851563 C509.5641479,193.1455078 510.3779297,192.8256836 511.4326172,192.8256836 C512.4580078,192.8256836 513.2587891,193.1511993 513.8349609,193.8022461 C514.4111328,194.4532928 514.6992188,195.3517151 514.6992188,196.4975586 Z M509.0107422,196.4975586 C509.0107422,197.4643555 509.2166138,198.1975861 509.628418,198.6972656 C510.0402222,199.1969452 510.6383362,199.4467773 511.4228516,199.4467773 C512.2138672,199.4467773 512.8112183,199.1977539 513.2148438,198.699707 C513.6184692,198.2016602 513.8203125,197.4676208 513.8203125,196.4975586 C513.8203125,195.537262 513.6193237,194.8089294 513.2172852,194.3125 C512.8152466,193.8160706 512.2203979,193.5678711 511.4326172,193.5678711 C510.6416016,193.5678711 510.0402222,193.8177032 509.628418,194.3173828 C509.2166138,194.8170624 509.0107422,195.5437775 509.0107422,196.4975586 Z M522.2011719,196.4389648 C522.2011719,197.6173553 521.8813477,198.518219 521.2416992,199.1416016 C520.6020508,199.7649841 519.6816406,200.0766602 518.4804688,200.0766602 L516.5029297,200.0766602 L516.5029297,192.9379883 L518.6904297,192.9379883 C519.8004761,192.9379883 520.6630859,193.2456055 521.2783203,193.8608398 C521.8935547,194.4760742 522.2011719,195.3354492 522.2011719,196.4389648 Z M521.3222656,196.4682617 C521.3222656,195.537262 521.0886841,194.8357849 520.621582,194.3637695 C520.15448,193.8917542 519.4603271,193.6557617 518.5390625,193.6557617 L517.3330078,193.6557617 L517.3330078,199.3588867 L518.34375,199.3588867 C519.333374,199.3588867 520.0771484,199.1155701 520.5751953,198.6289063 C521.0732422,198.1422424 521.3222656,197.4220428 521.3222656,196.4682617 Z M528.8935547,192.9379883 L528.8935547,197.5571289 C528.8935547,198.3709412 528.6477661,199.0105743 528.15625,199.4760742 C527.6647339,199.9415741 526.9892578,200.1743164 526.1298828,200.1743164 C525.2705078,200.1743164 524.6056519,199.9399414 524.1352539,199.4711914 C523.664856,199.0024414 523.4296875,198.3579102 523.4296875,197.5375977 L523.4296875,192.9379883 L524.2597656,192.9379883 L524.2597656,197.5961914 C524.2597656,198.1918945 524.4225464,198.6492462 524.7480469,198.9682617 C525.0735474,199.2872772 525.552063,199.4467773 526.1835938,199.4467773 C526.7858276,199.4467773 527.2496948,199.2864685 527.5751953,198.9658203 C527.9006958,198.6451721 528.0634766,198.1853943 528.0634766,197.5864258 L528.0634766,192.9379883 Z M533.5595703,193.5776367 C532.7750244,193.5776367 532.1557617,193.8388672 531.7016602,194.3613281 C531.2475586,194.8837891 531.0205078,195.5991211 531.0205078,196.5073242 C531.0205078,197.4415741 531.2394409,198.1634064 531.6772461,198.6728516 C532.1150513,199.1822968 532.7392578,199.4370117 533.5498047,199.4370117 C534.0478516,199.4370117 534.6158447,199.3475037 535.2539063,199.168457 L535.2539063,199.8959961 C534.7590942,200.081543 534.1488037,200.1743164 533.4228516,200.1743164 C532.3713989,200.1743164 531.5600586,199.8553162 530.9887695,199.2172852 C530.4174805,198.5792542 530.1318359,197.672699 530.1318359,196.4975586 C530.1318359,195.7618713 530.2693481,195.1173553 530.5444336,194.5639648 C530.819519,194.0105743 531.2166138,193.5841522 531.7358398,193.284668 C532.2550659,192.9851837 532.8662109,192.8354492 533.5693359,192.8354492 C534.3180542,192.8354492 534.97229,192.972168 535.5322266,193.2456055 L535.1806641,193.9584961 C534.6402588,193.7045898 534.0999756,193.5776367 533.5595703,193.5776367 Z M538.7001953,200.0766602 L537.8701172,200.0766602 L537.8701172,193.675293 L535.609375,193.675293 L535.609375,192.9379883 L540.9609375,192.9379883 L540.9609375,193.675293 L538.7001953,193.675293 Z M541.0537109,200.0766602" style="fill:rgb(0,0,0);stroke:none" clip-path="url(#clip43)" />
<clipPath id="clip44"><path d="M460,190 L472,190 L472,202 L460,202 L460,190 Z" /></clipPath>
<path d="M469,207 C473.4182739,207 477,203.4182739 477,199 C477,194.5817261 473.4182739,191 469,191 C464.5817261,191 461,194.5817261 461,199 C461,203.4182739 464.5817261,207 469,207 L469,207 L469,207 L469,207 L469,207 L469,207 L469,207 L469,207 L469,207 Z M469,206 C472.8659973,206 476,202.8659973 476,199 C476,195.1340027 472.8659973,192 469,192 C465.1340027,192 462,195.1340027 462,199 C462,202.8659973 465.1340027,206 469,206 L469,206 L469,206 L469,206 L469,206 L469,206 L469,206 L469,206 L469,206 Z M472.5771179,199.0503693 L467.1188049,202.3253784 L467.1188049,195.7753754 L472.5771179,199.0503693 Z M472.5771179,199.0503693" style="fill:rgb(0,209,86);stroke:none" clip-path="url(#clip44)" />
<clipPath id="clip45"><path d="M15,163 L176,163 L176,204 L15,204 Z M130,168 C127.2385712,168 125,170.2385712 125,173 L125,197 C125,199.7614288 127.2385712,202 130,202 L169,202 C171.7614288,202 174,199.7614288 174,197 L174,173 C174,170.2385712 171.7614288,168 169,168 Z M130,168" /></clipPath>
<path d="M112,185 C112,185 110.2079926,185 108,185 L103,185" style="fill:none;stroke:rgb(127,127,127)" clip-path="url(#clip45)" />
<clipPath id="clip46"><path d="M14,162 L177,162 L177,205 L14,205 L14,162 Z" /></clipPath>
<path d="M125,185 L112,185" style="fill:none;stroke:rgb(127,127,127)" clip-path="url(#clip46)" />
<clipPath id="clip47"><path d="M123,166 L177,166 L177,205 L123,205 L123,166 Z" /></clipPath>
<path d="M130,168 C127.2385712,168 125,170.2385712 125,173 L125,197 C125,199.7614288 127.2385712,202 130,202 L169,202 C171.7614288,202 174,199.7614288 174,197 L174,173 C174,170.2385712 171.7614288,168 169,168 Z M130,168" style="fill:rgb(254,244,236);stroke:none" clip-path="url(#clip47)" />
<clipPath id="clip48"><path d="M123,166 L177,166 L177,205 L123,205 L123,166 Z" /></clipPath>
<path d="M130,168 C127.2385712,168 125,170.2385712 125,173 L125,197 C125,199.7614288 127.2385712,202 130,202 L169,202 C171.7614288,202 174,199.7614288 174,197 L174,173 C174,170.2385712 171.7614288,168 169,168 Z M130,168" style="fill:none;stroke:rgb(141,134,126)" clip-path="url(#clip48)" />
<clipPath id="clip49"><path d="M136,174 L164,174 L164,197 L136,197 L136,174 Z" /></clipPath>
<path d="M143.5964355,181.6945801 C142.5765686,181.6945801 141.7714844,182.0341797 141.1811523,182.7133789 C140.5908203,183.3925781 140.2956543,184.3225098 140.2956543,185.5031738 C140.2956543,186.7176971 140.5802307,187.6560822 141.1494141,188.3183594 C141.7185974,188.9806366 142.5300293,189.3117676 143.5837402,189.3117676 C144.2312012,189.3117676 144.969635,189.1954041 145.7990723,188.9626465 L145.7990723,189.9084473 C145.155838,190.1496582 144.3623962,190.2702637 143.4187012,190.2702637 C142.0518341,190.2702637 140.9970703,189.8555603 140.2543945,189.026123 C139.5117188,188.1966858 139.1403809,187.018158 139.1403809,185.4904785 C139.1403809,184.5340881 139.3191681,183.6962128 139.6767578,182.9768066 C140.0343475,182.2574005 140.5506134,181.7030487 141.2255859,181.3137207 C141.9005585,180.9243927 142.6950684,180.7297363 143.6091309,180.7297363 C144.5824432,180.7297363 145.4330139,180.9074707 146.1608887,181.2629395 L145.7038574,182.1896973 C145.0013733,181.8596191 144.2989197,181.6945801 143.5964355,181.6945801 Z M152.8596191,187.6740723 C152.8596191,188.4908142 152.5634003,189.1276855 151.9709473,189.5847168 C151.3784943,190.041748 150.5744629,190.2702637 149.5588379,190.2702637 C148.4585724,190.2702637 147.6122284,190.1285095 147.0197754,189.8449707 L147.0197754,188.8039551 C147.4006348,188.9647522 147.8153534,189.0917053 148.263916,189.1848145 C148.7124786,189.2779236 149.1568146,189.3244629 149.5969238,189.3244629 C150.31633,189.3244629 150.8579865,189.1879883 151.2219238,188.9150391 C151.5858612,188.6420898 151.7678223,188.2622986 151.7678223,187.7756348 C151.7678223,187.45401 151.7032928,187.1905823 151.5742188,186.9853516 C151.4451447,186.7801056 151.2293243,186.590744 150.9267578,186.4172363 C150.6241913,186.2437286 150.1639862,186.0469666 149.5461426,185.8269043 C148.6828613,185.5179749 148.0660858,185.151947 147.6958008,184.7287598 C147.3255157,184.3055725 147.1403809,183.7533417 147.1403809,183.0720215 C147.1403809,182.356842 147.4090881,181.7876892 147.9465332,181.364502 C148.4839783,180.9413147 149.1949005,180.7297363 150.0793457,180.7297363 C151.0018768,180.7297363 151.8503418,180.8990021 152.6247559,181.2375488 L152.2883301,182.177002 C151.5223694,181.8553772 150.7775879,181.6945801 150.0539551,181.6945801 C149.482666,181.6945801 149.0362091,181.8172913 148.7145996,182.0627441 C148.3929901,182.308197 148.2321777,182.6488342 148.2321777,183.0847168 C148.2321777,183.4063416 148.2914276,183.669754 148.4099121,183.875 C148.5283966,184.080246 148.7283478,184.2685547 149.0097656,184.4399414 C149.2911835,184.6113281 149.721756,184.8006897 150.3015137,185.0080566 C151.274826,185.355072 151.9445038,185.7274475 152.3105469,186.1252441 C152.67659,186.5230408 152.8596191,187.0393066 152.8596191,187.6740723 Z M159.8596191,187.6740723 C159.8596191,188.4908142 159.5634003,189.1276855 158.9709473,189.5847168 C158.3784943,190.041748 157.5744629,190.2702637 156.5588379,190.2702637 C155.4585724,190.2702637 154.6122284,190.1285095 154.0197754,189.8449707 L154.0197754,188.8039551 C154.4006348,188.9647522 154.8153534,189.0917053 155.263916,189.1848145 C155.7124786,189.2779236 156.1568146,189.3244629 156.5969238,189.3244629 C157.31633,189.3244629 157.8579865,189.1879883 158.2219238,188.9150391 C158.5858612,188.6420898 158.7678223,188.2622986 158.7678223,187.7756348 C158.7678223,187.45401 158.7032776,187.1905823 158.5742188,186.9853516 C158.4451599,186.7801056 158.2293396,186.590744 157.9267578,186.4172363 C157.624176,186.2437286 157.1639862,186.0469666 156.5461426,185.8269043 C155.6828613,185.5179749 155.0660858,185.151947 154.6958008,184.7287598 C154.3255157,184.3055725 154.1403809,183.7533417 154.1403809,183.0720215 C154.1403809,182.356842 154.4090881,181.7876892 154.9465332,181.364502 C155.4839783,180.9413147 156.1949005,180.7297363 157.0793457,180.7297363 C158.0018768,180.7297363 158.8503418,180.8990021 159.6247559,181.2375488 L159.2883301,182.177002 C158.5223694,181.8553772 157.7775879,181.6945801 157.0539551,181.6945801 C156.482666,181.6945801 156.0362244,181.8172913 155.7145996,182.0627441 C155.3929901,182.308197 155.2321777,182.6488342 155.2321777,183.0847168 C155.2321777,183.4063416 155.2914276,183.669754 155.4099121,183.875 C155.5283966,184.080246 155.7283478,184.2685547 156.0097656,184.4399414 C156.2911835,184.6113281 156.721756,184.8006897 157.3015137,185.0080566 C158.274826,185.355072 158.9444885,185.7274475 159.3105469,186.1252441 C159.6766052,186.5230408 159.8596191,187.0393066 159.8596191,187.6740723 Z M160.4816895,190.1433105" style="fill:rgb(48,48,48);stroke:none" clip-path="url(#clip49)" />
<clipPath id="clip50"><path d="M112,179 L125,179 L125,192 L112,192 L112,179 Z" /></clipPath>
<path d="M122.5,185 C122.5,182.5147095 120.4852753,180.5 118,180.5 C115.5147247,180.5 113.5,182.5147095 113.5,185 C113.5,187.4852905 115.5147247,189.5 118,189.5 C120.4852753,189.5 122.5,187.4852905 122.5,185 Z M122.5,185" style="fill:rgb(250,250,250);stroke:none" clip-path="url(#clip50)" />
<clipPath id="clip51"><path d="M112,179 L125,179 L125,192 L112,192 L112,179 Z" /></clipPath>
<path d="M122.5,185 C122.5,182.5147095 120.4852753,180.5 118,180.5 C115.5147247,180.5 113.5,182.5147095 113.5,185 C113.5,187.4852905 115.5147247,189.5 118,189.5 C120.4852753,189.5 122.5,187.4852905 122.5,185 Z M122.5,185" style="fill:none;stroke:rgb(127,127,127)" clip-path="url(#clip51)" />
<clipPath id="clip52"><path d="M112,179 L125,179 L125,192 L112,192 L112,179 Z" /></clipPath>
<path d="M116,185 L120,185" style="fill:none;stroke:rgb(150,160,200)" clip-path="url(#clip52)" />
<clipPath id="clip53"><path d="M14,162 L106,162 L106,187 L14,187 L14,162 Z" /></clipPath>
<path d="M16,185 L103,185 Z M16,185" style="fill:none;stroke:rgb(127,127,127)" clip-path="url(#clip53)" />
<clipPath id="clip54"><path d="M36,165 L96,165 L96,184 L36,184 L36,165 Z" /></clipPath>
<path d="M46.3754883,178.25 L46.3754883,174.7685547 C46.3754883,174.3421173 46.2843475,174.0223083 46.1020508,173.809082 C45.919754,173.5958557 45.6365509,173.4892578 45.2524414,173.4892578 C44.747879,173.4892578 44.3751678,173.6341095 44.1342773,173.9238281 C43.8933868,174.2135468 43.7729492,174.6595001 43.7729492,175.2617188 L43.7729492,178.25 L42.9624023,178.25 L42.9624023,174.7685547 C42.9624023,174.3421173 42.8712616,174.0223083 42.6889648,173.809082 C42.5066681,173.5958557 42.2218475,173.4892578 41.8344727,173.4892578 C41.3266602,173.4892578 40.9547577,173.6414337 40.71875,173.9458008 C40.4827423,174.2501678 40.3647461,174.7490234 40.3647461,175.4423828 L40.3647461,178.25 L39.5541992,178.25 L39.5541992,172.8984375 L40.2133789,172.8984375 L40.3452148,173.6308594 L40.3842773,173.6308594 C40.5372772,173.3704376 40.7529297,173.1669922 41.03125,173.0205078 C41.3095703,172.8740234 41.6212616,172.8007813 41.9663086,172.8007813 C42.8029022,172.8007813 43.3497772,173.1035156 43.6069336,173.7089844 L43.6459961,173.7089844 C43.8054962,173.4290314 44.0366211,173.2076874 44.3393555,173.0449219 C44.6420898,172.8821564 44.9871368,172.8007813 45.3745117,172.8007813 C45.9799805,172.8007813 46.4332733,172.9562073 46.734375,173.2670898 C47.0354767,173.5779724 47.1860352,174.0751953 47.1860352,174.7587891 L47.1860352,178.25 Z M50.8149414,178.3476563 C50.0239258,178.3476563 49.3997345,178.106781 48.9423828,177.625 C48.4850311,177.143219 48.2563477,176.4742889 48.2563477,175.6181641 C48.2563477,174.7555237 48.46875,174.0703125 48.8935547,173.5625 C49.3183594,173.0546875 49.8888245,172.8007813 50.6049805,172.8007813 C51.2755585,172.8007813 51.8061523,173.0213165 52.1967773,173.4624023 C52.5874023,173.9034882 52.7827148,174.4853516 52.7827148,175.2080078 L52.7827148,175.7207031 L49.0961914,175.7207031 C49.1124725,176.3489685 49.2711639,176.8258362 49.5722656,177.1513672 C49.8733673,177.4768982 50.2973633,177.6396484 50.8442383,177.6396484 C51.4204102,177.6396484 51.9900665,177.5192108 52.5532227,177.2783203 L52.5532227,178.0009766 C52.2667694,178.1246796 51.9957733,178.2133789 51.7402344,178.2670898 C51.4846954,178.3208008 51.1762695,178.3476563 50.8149414,178.3476563 Z M50.5952148,173.4794922 C50.1655273,173.4794922 49.8229218,173.6194611 49.5673828,173.8994141 C49.3118439,174.1793671 49.1613007,174.5667267 49.1157227,175.0615234 L51.9135742,175.0615234 C51.9135742,174.5504456 51.7996368,174.1590271 51.5717773,173.887207 C51.3439178,173.615387 51.0183868,173.4794922 50.5952148,173.4794922 Z M58.2163086,178.25 L58.2163086,174.7880859 C58.2163086,174.3518829 58.1170197,174.0263672 57.918457,173.8115234 C57.7198944,173.5966797 57.4090118,173.4892578 56.9858398,173.4892578 C56.4259338,173.4892578 56.0157928,173.640625 55.7553711,173.9433594 C55.4949493,174.2460938 55.3647461,174.7457581 55.3647461,175.4423828 L55.3647461,178.25 L54.5541992,178.25 L54.5541992,172.8984375 L55.2133789,172.8984375 L55.3452148,173.6308594 L55.3842773,173.6308594 C55.550293,173.3671875 55.7830353,173.1629333 56.0825195,173.0180664 C56.3820038,172.8731995 56.7156525,172.8007813 57.0834961,172.8007813 C57.7280273,172.8007813 58.2130585,172.9562073 58.5385742,173.2670898 C58.86409,173.5779724 59.0268555,174.0751953 59.0268555,174.7587891 L59.0268555,178.25 Z M61.315918,172.8984375 L61.315918,176.3701172 C61.315918,176.8063202 61.4152069,177.1318359 61.6137695,177.3466797 C61.8123322,177.5615234 62.1232147,177.6689453 62.5463867,177.6689453 C63.1062927,177.6689453 63.515625,177.5159607 63.7744141,177.2099609 C64.0332031,176.9039612 64.1625977,176.4042969 64.1625977,175.7109375 L64.1625977,172.8984375 L64.9731445,172.8984375 L64.9731445,178.25 L64.3041992,178.25 L64.1870117,177.5322266 L64.1430664,177.5322266 C63.9770508,177.7958984 63.7467499,177.9977112 63.4521484,178.1376953 C63.157547,178.2776794 62.8214569,178.3476563 62.4438477,178.3476563 C61.7928009,178.3476563 61.3053436,178.1930389 60.9814453,177.8837891 C60.657547,177.5745392 60.4956055,177.0797577 60.4956055,176.3994141 L60.4956055,172.8984375 Z M70.3647461,178.25 L69.5541992,178.25 L69.5541992,170.6523438 L70.3647461,170.6523438 Z M73.3647461,178.25 L72.5541992,178.25 L72.5541992,172.8984375 L73.3647461,172.8984375 Z M72.4858398,171.4482422 C72.4858398,171.2626953 72.5314178,171.1267853 72.6225586,171.0405273 C72.7136993,170.9542694 72.8276367,170.9111328 72.9643555,170.9111328 C73.0945587,170.9111328 73.2068634,170.9550781 73.3012695,171.0429688 C73.3956757,171.1308594 73.4428711,171.2659454 73.4428711,171.4482422 C73.4428711,171.6305389 73.3956757,171.7664337 73.3012695,171.855957 C73.2068634,171.9454803 73.0945587,171.9902344 72.9643555,171.9902344 C72.8276367,171.9902344 72.7136993,171.9454803 72.6225586,171.855957 C72.5314178,171.7664337 72.4858398,171.6305389 72.4858398,171.4482422 Z M79.0063477,176.7900391 C79.0063477,177.2880859 78.8208008,177.6721954 78.449707,177.9423828 C78.0786133,178.2125702 77.557785,178.3476563 76.887207,178.3476563 C76.1775665,178.3476563 75.6241913,178.2353516 75.2270508,178.0107422 L75.2270508,177.2587891 C75.4842072,177.3890076 75.7600861,177.4915314 76.0546875,177.5664063 C76.3492889,177.6412811 76.6333008,177.6787109 76.9067383,177.6787109 C77.3299103,177.6787109 77.6554413,177.6111755 77.8833008,177.4760742 C78.1111603,177.3409729 78.2250977,177.1351013 78.2250977,176.8583984 C78.2250977,176.6500549 78.1347656,176.4718475 77.9541016,176.3237305 C77.7734375,176.1756134 77.4210663,176.0006561 76.8969727,175.7988281 C76.3989258,175.6132813 76.0449219,175.4513397 75.8349609,175.3129883 C75.625,175.1746368 75.46875,175.0175781 75.3662109,174.8417969 C75.2636719,174.6660156 75.2124023,174.4560547 75.2124023,174.2119141 C75.2124023,173.7757111 75.3898163,173.431488 75.7446289,173.1791992 C76.0994415,172.9269104 76.5860901,172.8007813 77.2045898,172.8007813 C77.7807617,172.8007813 78.3439026,172.9179688 78.894043,173.1523438 L78.605957,173.8115234 C78.0688477,173.5901642 77.5821991,173.4794922 77.1459961,173.4794922 C76.7618866,173.4794922 76.472168,173.5397186 76.2768555,173.6601563 C76.081543,173.7805939 75.9838867,173.9466095 75.9838867,174.1582031 C75.9838867,174.3014374 76.0205078,174.4235077 76.09375,174.5244141 C76.1669922,174.6253204 76.2849884,174.7213593 76.4477539,174.8125 C76.6105194,174.9036407 76.9230194,175.0354767 77.3852539,175.2080078 C78.0200195,175.4391327 78.4488983,175.671875 78.671875,175.90625 C78.8948517,176.140625 79.0063477,176.4352112 79.0063477,176.7900391 Z M82.2827148,177.6787109 C82.4259491,177.6787109 82.5642853,177.6681366 82.6977539,177.6469727 C82.8312225,177.6258087 82.9370117,177.6038361 83.0151367,177.5810547 L83.0151367,178.2011719 C82.9272461,178.2434845 82.7978516,178.2784882 82.6269531,178.3061523 C82.4560547,178.3338165 82.3022461,178.3476563 82.1655273,178.3476563 C81.1303711,178.3476563 80.612793,177.8024139 80.612793,176.7119141 L80.612793,173.5283203 L79.8461914,173.5283203 L79.8461914,173.1376953 L80.612793,172.8007813 L80.9545898,171.6582031 L81.4233398,171.6582031 L81.4233398,172.8984375 L82.9760742,172.8984375 L82.9760742,173.5283203 L81.4233398,173.5283203 L81.4233398,176.6777344 C81.4233398,177 81.4998322,177.2473907 81.652832,177.4199219 C81.8058319,177.592453 82.0157928,177.6787109 82.2827148,177.6787109 Z M90.8452148,178.25 L90.684082,177.4882813 L90.6450195,177.4882813 C90.3780975,177.8235779 90.1119843,178.0506134 89.8466797,178.1694336 C89.5813751,178.2882538 89.2501678,178.3476563 88.8530273,178.3476563 C88.3224182,178.3476563 87.9065704,178.2109375 87.6054688,177.9375 C87.3043671,177.6640625 87.1538086,177.2750702 87.1538086,176.7705078 C87.1538086,175.6897736 88.0180511,175.1233673 89.746582,175.0712891 L90.6547852,175.0419922 L90.6547852,174.7099609 C90.6547852,174.2900391 90.5644531,173.9799805 90.3837891,173.7797852 C90.203125,173.5795898 89.9142303,173.4794922 89.5170898,173.4794922 C89.0711212,173.4794922 88.5665741,173.6162109 88.003418,173.8896484 L87.7543945,173.2695313 C88.0180664,173.126297 88.3069611,173.0139923 88.6210938,172.9326172 C88.9352264,172.8512421 89.2501678,172.8105469 89.565918,172.8105469 C90.203949,172.8105469 90.6767578,172.9521484 90.984375,173.2353516 C91.2919922,173.5185547 91.4458008,173.9726563 91.4458008,174.5976563 L91.4458008,178.25 Z M89.0141602,177.6787109 C89.5187225,177.6787109 89.9150391,177.5403748 90.203125,177.2636719 C90.4912109,176.986969 90.6352539,176.5996094 90.6352539,176.1015625 L90.6352539,175.6181641 L89.824707,175.6523438 C89.1801758,175.6751251 88.7154999,175.7752228 88.4306641,175.9526367 C88.1458282,176.1300507 88.003418,176.4059143 88.003418,176.7802734 C88.003418,177.0732422 88.0921173,177.2962189 88.2695313,177.4492188 C88.4469452,177.6022186 88.6951447,177.6787109 89.0141602,177.6787109 Z M92.2563477,178.25" style="fill:rgb(0,0,0);stroke:none" clip-path="url(#clip54)" />
<clipPath id="clip55"><path d="M24,168 L36,168 L36,180 L24,180 L24,168 Z" /></clipPath>
<path d="M33,185 C37.4182777,185 41,181.4182739 41,177 C41,172.5817261 37.4182777,169 33,169 C28.5817223,169 25,172.5817261 25,177 C25,181.4182739 28.5817223,185 33,185 L33,185 L33,185 L33,185 L33,185 L33,185 L33,185 L33,185 L33,185 Z M33,184 C36.8659935,184 40,180.8659973 40,177 C40,173.1340027 36.8659935,170 33,170 C29.1340065,170 26,173.1340027 26,177 C26,180.8659973 29.1340065,184 33,184 L33,184 L33,184 L33,184 L33,184 L33,184 L33,184 L33,184 L33,184 Z M36.5771255,177.0503693 L31.1187897,180.3253784 L31.1187897,173.7753754 L36.5771255,177.0503693 Z M36.5771255,177.0503693" style="fill:rgb(0,209,86);stroke:none" clip-path="url(#clip55)" />
</svg>
