<svg id="kity_svg_6" xmlns="http://www.w3.org/2000/svg" xmlns:xlink="http://www.w3.org/1999/xlink" version="1.1" width="1150" height="368" style="background: rgb(251, 251, 251); visibility: visible;" viewBox="0 0 1150 368"><defs id="kity_defs_7"><linearGradient id="kity_linearGradient_17" x1="0" y1="0" x2="0" y2="1"><stop id="kity_stop_18" offset="0" stop-color="rgb(255, 255, 255)"></stop><stop id="kity_stop_19" offset="1" stop-color="rgb(204, 204, 204)"></stop></linearGradient><marker id="kity_marker_2" orient="auto" refX="6" refY="0" viewBox="-7 -7 14 14" markerWidth="7" markerHeight="7" markerUnits="userSpaceOnUse"><path id="kity_path_3" fill="rgb(115, 161, 191)" stroke="none" d="M6,0A6,6,0,1,1,-6,0A6,6,0,1,1,6,0"></path></marker></defs><g id="kity_g_8"><g id="minder1" text-rendering="optimize-speed"><g id="minder_connect_group1"><path id="kity_path_31" fill="none" stroke="rgb(115, 161, 191)" stroke-width="1" d="M521.5,48.5v10h-403.5V66.5"></path><path id="kity_path_33" fill="none" stroke="rgb(115, 161, 191)" stroke-width="1" d="M40.5,92.5V113.5L48.5,113.5"></path><path id="kity_path_35" fill="none" stroke="rgb(115, 161, 191)" stroke-width="1" d="M40.5,92.5V139.5L48.5,139.5"></path><path id="kity_path_37" fill="none" stroke="rgb(115, 161, 191)" stroke-width="1" d="M40.5,92.5V165.5L48.5,165.5"></path><path id="kity_path_39" fill="none" stroke="rgb(115, 161, 191)" stroke-width="1" d="M40.5,92.5V191.5L48.5,191.5"></path><path id="kity_path_41" fill="none" stroke="rgb(115, 161, 191)" stroke-width="1" d="M40.5,92.5V217.5L48.5,217.5"></path><path id="kity_path_43" fill="none" stroke="rgb(115, 161, 191)" stroke-width="1" d="M40.5,92.5V243.5L48.5,243.5"></path><path id="kity_path_65" fill="none" stroke="rgb(115, 161, 191)" stroke-width="1" d="M521.5,48.5v10h-151.5V66.5"></path><path id="kity_path_67" fill="none" stroke="rgb(115, 161, 191)" stroke-width="1" d="M348.5,92.5V113.5L356.5,113.5"></path><path id="kity_path_69" fill="none" stroke="rgb(115, 161, 191)" stroke-width="1" d="M348.5,92.5V139.5L356.5,139.5"></path><path id="kity_path_71" fill="none" stroke="rgb(115, 161, 191)" stroke-width="1" d="M348.5,92.5V165.5L356.5,165.5"></path><path id="kity_path_73" fill="none" stroke="rgb(115, 161, 191)" stroke-width="1" d="M348.5,92.5V191.5L356.5,191.5"></path><path id="kity_path_75" fill="none" stroke="rgb(115, 161, 191)" stroke-width="1" d="M348.5,92.5V217.5L356.5,217.5"></path><path id="kity_path_77" fill="none" stroke="rgb(115, 161, 191)" stroke-width="1" d="M348.5,92.5V243.5L356.5,243.5"></path><path id="kity_path_79" fill="none" stroke="rgb(115, 161, 191)" stroke-width="1" d="M521.5,48.5v10h160.5V66.5"></path><path id="kity_path_81" fill="none" stroke="rgb(115, 161, 191)" stroke-width="1" d="M667.5,92.5V113.5L675.5,113.5"></path><path id="kity_path_83" fill="none" stroke="rgb(115, 161, 191)" stroke-width="1" d="M667.5,92.5V139.5L675.5,139.5"></path><path id="kity_path_85" fill="none" stroke="rgb(115, 161, 191)" stroke-width="1" d="M667.5,92.5V165.5L675.5,165.5"></path><path id="kity_path_263" fill="none" stroke="rgb(115, 161, 191)" stroke-width="1" d="M667.5,92.5V191.5L675.5,191.5"></path><path id="kity_path_271" fill="none" stroke="rgb(115, 161, 191)" stroke-width="1" d="M667.5,92.5V217.5L675.5,217.5"></path><path id="kity_path_279" fill="none" stroke="rgb(115, 161, 191)" stroke-width="1" d="M667.5,92.5V243.5L675.5,243.5"></path><path id="kity_path_287" fill="none" stroke="rgb(115, 161, 191)" stroke-width="1" d="M348.5,92.5V269.5L356.5,269.5"></path><path id="kity_path_295" fill="none" stroke="rgb(115, 161, 191)" stroke-width="1" d="M348.5,92.5V295.5L356.5,295.5"></path><path id="kity_path_303" fill="none" stroke="rgb(115, 161, 191)" stroke-width="1" d="M521.5,48.5v10h466.5V66.5"></path><path id="kity_path_305" fill="none" stroke="rgb(115, 161, 191)" stroke-width="1" d="M973.5,92.5V113.5L981.5,113.5"></path><path id="kity_path_307" fill="none" stroke="rgb(115, 161, 191)" stroke-width="1" d="M973.5,92.5V139.5L981.5,139.5"></path><path id="kity_path_309" fill="none" stroke="rgb(115, 161, 191)" stroke-width="1" d="M973.5,92.5V165.5L981.5,165.5"></path><path id="kity_path_335" fill="none" stroke="rgb(115, 161, 191)" stroke-width="1" d="M348.5,92.5V330.5L356.5,330.5"></path></g><g id="minder_node1"><path id="node_outline1" fill="rgb(115, 161, 191)" stroke="rgb(115, 161, 191)" d="M480.5,20.5h81a5,5,0,0,1,5,5v18a5,5,0,0,1,-5,5h-81a5,5,0,0,1,-5,-5v-18a5,5,0,0,1,5,-5z" stroke-width="3"></path><g id="node_text1" fill="white"><text id="kity_text_22" text-rendering="inherit" font-size="16" dy=".8em" y="26.5" x="487.5">Shell判断</text></g></g><g id="kity_g_12"><path id="kity_path_13" fill="none" stroke="none" d="M487.5,34.5h0v0h0z"></path></g><g id="kity_g_14"><path id="kity_path_15" fill="none" stroke="none" d="M487.5,34.5h0v0h0z"></path><path id="kity_path_16" fill="none" stroke="none"></path></g><g id="minder_node2"><g id="node_expander7" style="cursor: pointer;"><path id="kity_path_189" fill="white" stroke="gray" d="M123.5,59.5A6,6,0,1,1,111.5,59.5A6,6,0,1,1,123.5,59.5"></path><path id="kity_path_190" fill="none" stroke="gray" d="M113,59.5L122,59.5"></path></g><path id="node_outline8" fill="rgb(238, 243, 246)" stroke="rgb(115, 161, 191)" d="M23.5,66.5h188a3,3,0,0,1,3,3v20a3,3,0,0,1,-3,3h-188a3,3,0,0,1,-3,-3v-20a3,3,0,0,1,3,-3z" stroke-width="1"></path><g id="node_text8" fill="black"><text id="kity_text_99" text-rendering="inherit" font-size="14" dy=".8em" y="72.5" x="40.5">整数（不适用于浮点数）</text></g></g><g id="minder_node3"><g id="node_expander1" style="cursor: pointer;" display="none"><path id="kity_path_171" fill="white" stroke="gray" d="M48.5,113.5A6,6,0,1,1,36.5,113.5A6,6,0,1,1,48.5,113.5"></path><path id="kity_path_172" fill="none" stroke="gray"></path></g><path id="node_outline2" fill="none" stroke="none" d="M53.5,104.5h220a5,5,0,0,1,5,5v8a5,5,0,0,1,-5,5h-220a5,5,0,0,1,-5,-5v-8a5,5,0,0,1,5,-5z"></path><g id="node_text2" fill="black"><text id="kity_text_87" text-rendering="inherit" font-size="12" dy=".8em" y="107.5" x="53.5">大于(great than) &#xa0; if [[ &#xa0;"$a" -gt "$b" &#xa0;]] &#xa0; &#xa0;</text></g></g><g id="minder_node4"><g id="node_expander2" style="cursor: pointer;" display="none"><path id="kity_path_174" fill="white" stroke="gray" d="M48.5,139.5A6,6,0,1,1,36.5,139.5A6,6,0,1,1,48.5,139.5"></path><path id="kity_path_175" fill="none" stroke="gray"></path></g><path id="node_outline3" fill="none" stroke="none" d="M53.5,130.5h254a5,5,0,0,1,5,5v8a5,5,0,0,1,-5,5h-254a5,5,0,0,1,-5,-5v-8a5,5,0,0,1,5,-5z"></path><g id="node_text3" fill="black"><text id="kity_text_89" text-rendering="inherit" font-size="12" dy=".8em" y="133.5" x="53.5">大于等于(great equal) &#xa0; if [[ &#xa0;"$a" -ge "$b" &#xa0;]] &#xa0; &#xa0;</text></g></g><g id="minder_node5"><g id="node_expander3" style="cursor: pointer;" display="none"><path id="kity_path_177" fill="white" stroke="gray" d="M48.5,165.5A6,6,0,1,1,36.5,165.5A6,6,0,1,1,48.5,165.5"></path><path id="kity_path_178" fill="none" stroke="gray"></path></g><path id="node_outline4" fill="none" stroke="none" d="M53.5,156.5h205a5,5,0,0,1,5,5v8a5,5,0,0,1,-5,5h-205a5,5,0,0,1,-5,-5v-8a5,5,0,0,1,5,-5z"></path><g id="node_text4" fill="black"><text id="kity_text_91" text-rendering="inherit" font-size="12" dy=".8em" y="159.5" x="53.5">小于(less than) &#xa0; &#xa0;if [[ &#xa0;"$a" -lt "$b" &#xa0;]] &#xa0; &#xa0;</text></g></g><g id="minder_node6"><g id="node_expander4" style="cursor: pointer;" display="none"><path id="kity_path_180" fill="white" stroke="gray" d="M48.5,191.5A6,6,0,1,1,36.5,191.5A6,6,0,1,1,48.5,191.5"></path><path id="kity_path_181" fill="none" stroke="gray"></path></g><path id="node_outline5" fill="none" stroke="none" d="M53.5,182.5h233a5,5,0,0,1,5,5v8a5,5,0,0,1,-5,5h-233a5,5,0,0,1,-5,-5v-8a5,5,0,0,1,5,-5z"></path><g id="node_text5" fill="black"><text id="kity_text_93" text-rendering="inherit" font-size="12" dy=".8em" y="185.5" x="53.5">小于等于(less equal) &#xa0; if [[ &#xa0; "$a" -le "$b" &#xa0;]] &#xa0;</text></g></g><g id="minder_node7"><g id="node_expander5" style="cursor: pointer;" display="none"><path id="kity_path_183" fill="white" stroke="gray" d="M48.5,217.5A6,6,0,1,1,36.5,217.5A6,6,0,1,1,48.5,217.5"></path><path id="kity_path_184" fill="none" stroke="gray"></path></g><path id="node_outline6" fill="none" stroke="none" d="M53.5,208.5h196a5,5,0,0,1,5,5v8a5,5,0,0,1,-5,5h-196a5,5,0,0,1,-5,-5v-8a5,5,0,0,1,5,-5z"></path><g id="node_text6" fill="black"><text id="kity_text_95" text-rendering="inherit" font-size="12" dy=".8em" y="211.5" x="53.5">等于(equal) &#xa0; if [[ &#xa0;"$a" -eq "$b" &#xa0;]] &#xa0; &#xa0;</text></g></g><g id="minder_node8"><g id="node_expander6" style="cursor: pointer;" display="none"><path id="kity_path_186" fill="white" stroke="gray" d="M48.5,243.5A6,6,0,1,1,36.5,243.5A6,6,0,1,1,48.5,243.5"></path><path id="kity_path_187" fill="none" stroke="gray"></path></g><path id="node_outline7" fill="none" stroke="none" d="M53.5,234.5h225a5,5,0,0,1,5,5v8a5,5,0,0,1,-5,5h-225a5,5,0,0,1,-5,-5v-8a5,5,0,0,1,5,-5z"></path><g id="node_text7" fill="#000000"><text id="kity_text_97" text-rendering="inherit" font-size="12" dy=".8em" y="237.5" x="53.5">不等于(Not equal) &#xa0; if [[ &#xa0;"$a" -ne "$b" &#xa0;]] &#xa0;</text></g></g><g id="minder_node19"><g id="node_expander24" style="cursor: pointer;"><path id="kity_path_240" fill="white" stroke="gray" d="M375.5,59.5A6,6,0,1,1,363.5,59.5A6,6,0,1,1,375.5,59.5"></path><path id="kity_path_241" fill="none" stroke="gray" d="M365,59.5L374,59.5"></path></g><path id="node_outline25" fill="rgb(238, 243, 246)" stroke="rgb(115, 161, 191)" d="M331.5,66.5h76a3,3,0,0,1,3,3v20a3,3,0,0,1,-3,3h-76a3,3,0,0,1,-3,-3v-20a3,3,0,0,1,3,-3z" stroke-width="1"></path><g id="node_text25" fill="black"><text id="kity_text_133" text-rendering="inherit" font-size="14" dy=".8em" y="72.5" x="348.5">字符串</text></g></g><g id="minder_node20"><g id="node_expander18" style="cursor: pointer;" display="none"><path id="kity_path_222" fill="white" stroke="gray" d="M356.5,113.5A6,6,0,1,1,344.5,113.5A6,6,0,1,1,356.5,113.5"></path><path id="kity_path_223" fill="none" stroke="gray"></path></g><path id="node_outline19" fill="none" stroke="none" d="M361.5,104.5h152a5,5,0,0,1,5,5v8a5,5,0,0,1,-5,5h-152a5,5,0,0,1,-5,-5v-8a5,5,0,0,1,5,-5z" stroke-width="3"></path><g id="node_text19" fill="black"><text id="kity_text_121" text-rendering="inherit" font-size="12" dy=".8em" y="107.5" x="361.5">ASCII序大 &#xa0;if [[ "$a" &gt; "$b" &#xa0;]]</text></g></g><g id="minder_node21"><g id="node_expander19" style="cursor: pointer;" display="none"><path id="kity_path_225" fill="white" stroke="gray" d="M356.5,139.5A6,6,0,1,1,344.5,139.5A6,6,0,1,1,356.5,139.5"></path><path id="kity_path_226" fill="none" stroke="gray"></path></g><path id="node_outline20" fill="none" stroke="none" d="M361.5,130.5h152a5,5,0,0,1,5,5v8a5,5,0,0,1,-5,5h-152a5,5,0,0,1,-5,-5v-8a5,5,0,0,1,5,-5z" stroke-width="3"></path><g id="node_text20" fill="black"><text id="kity_text_123" text-rendering="inherit" font-size="12" dy=".8em" y="133.5" x="361.5">ASCII序小 &#xa0;if [[ &#xa0;"$a" &lt; "$b" ]]</text></g></g><g id="minder_node22"><g id="node_expander20" style="cursor: pointer;" display="none"><path id="kity_path_228" fill="white" stroke="gray" d="M356.5,165.5A6,6,0,1,1,344.5,165.5A6,6,0,1,1,356.5,165.5"></path><path id="kity_path_229" fill="none" stroke="gray"></path></g><path id="node_outline21" fill="none" stroke="none" d="M361.5,156.5h175a5,5,0,0,1,5,5v8a5,5,0,0,1,-5,5h-175a5,5,0,0,1,-5,-5v-8a5,5,0,0,1,5,-5z" stroke-width="3"></path><g id="node_text21" fill="black"><text id="kity_text_125" text-rendering="inherit" font-size="12" dy=".8em" y="159.5" x="361.5">ASCII序相等 &#xa0;if&#xa0;[[ &#xa0;"$a"&#xa0;==&#xa0;"$b" &#xa0;]]</text></g></g><g id="minder_node23"><g id="node_expander21" style="cursor: pointer;" display="none"><path id="kity_path_231" fill="white" stroke="gray" d="M356.5,191.5A6,6,0,1,1,344.5,191.5A6,6,0,1,1,356.5,191.5"></path><path id="kity_path_232" fill="none" stroke="gray"></path></g><path id="node_outline22" fill="none" stroke="none" d="M361.5,182.5h171a5,5,0,0,1,5,5v8a5,5,0,0,1,-5,5h-171a5,5,0,0,1,-5,-5v-8a5,5,0,0,1,5,-5z" stroke-width="3"></path><g id="node_text22" fill="#000000"><text id="kity_text_127" text-rendering="inherit" font-size="12" dy=".8em" y="185.5" x="361.5">ASCII序不等 &#xa0;if&#xa0;[[ &#xa0;"$a" !=&#xa0;"$b" &#xa0;]]</text></g></g><g id="minder_node24"><g id="node_expander22" style="cursor: pointer;" display="none"><path id="kity_path_234" fill="white" stroke="gray" d="M356.5,217.5A6,6,0,1,1,344.5,217.5A6,6,0,1,1,356.5,217.5"></path><path id="kity_path_235" fill="none" stroke="gray"></path></g><path id="node_outline23" fill="none" stroke="none" d="M361.5,208.5h184a5,5,0,0,1,5,5v8a5,5,0,0,1,-5,5h-184a5,5,0,0,1,-5,-5v-8a5,5,0,0,1,5,-5z" stroke-width="3"></path><g id="node_text23" fill="black"><text id="kity_text_129" text-rendering="inherit" font-size="12" dy=".8em" y="211.5" x="361.5">左串包含右串 &#xa0;if [[ $strA =~ $strB ]]</text></g></g><g id="minder_node25"><g id="node_expander23" style="cursor: pointer;" display="none"><path id="kity_path_237" fill="white" stroke="gray" d="M356.5,243.5A6,6,0,1,1,344.5,243.5A6,6,0,1,1,356.5,243.5"></path><path id="kity_path_238" fill="none" stroke="gray"></path></g><path id="node_outline24" fill="none" stroke="none" d="M361.5,234.5h35a5,5,0,0,1,5,5v8a5,5,0,0,1,-5,5h-35a5,5,0,0,1,-5,-5v-8a5,5,0,0,1,5,-5z" stroke-width="3"></path><g id="node_text24" fill="black"><text id="kity_text_131" text-rendering="inherit" font-size="12" dy=".8em" y="237.5" x="361.5">* &#xa0;通配</text></g></g><g id="minder_node26"><g id="node_expander28" style="cursor: pointer;"><path id="kity_path_252" fill="white" stroke="gray" d="M687.5,59.5A6,6,0,1,1,675.5,59.5A6,6,0,1,1,687.5,59.5"></path><path id="kity_path_253" fill="none" stroke="gray" d="M677,59.5L686,59.5"></path></g><path id="node_outline29" fill="rgb(238, 243, 246)" stroke="rgb(115, 161, 191)" d="M650.5,66.5h62a3,3,0,0,1,3,3v20a3,3,0,0,1,-3,3h-62a3,3,0,0,1,-3,-3v-20a3,3,0,0,1,3,-3z" stroke-width="1"></path><g id="node_text29" fill="black"><text id="kity_text_141" text-rendering="inherit" font-size="14" dy=".8em" y="72.5" x="667.5">文件</text></g></g><g id="minder_node27"><g id="node_expander25" style="cursor: pointer;" display="none"><path id="kity_path_243" fill="white" stroke="gray" d="M675.5,113.5A6,6,0,1,1,663.5,113.5A6,6,0,1,1,675.5,113.5"></path><path id="kity_path_244" fill="none" stroke="gray"></path></g><path id="node_outline26" fill="none" stroke="none" d="M680.5,104.5h232a5,5,0,0,1,5,5v8a5,5,0,0,1,-5,5h-232a5,5,0,0,1,-5,-5v-8a5,5,0,0,1,5,-5z" stroke-width="3"></path><g id="node_text26" fill="black"><text id="kity_text_135" text-rendering="inherit" font-size="12" dy=".8em" y="107.5" x="680.5">-e exist 文件是否存在 &#xa0;if [[ &#xa0;-e "filename" &#xa0;]]</text></g></g><g id="minder_node28"><g id="node_expander26" style="cursor: pointer;" display="none"><path id="kity_path_246" fill="white" stroke="gray" d="M675.5,139.5A6,6,0,1,1,663.5,139.5A6,6,0,1,1,675.5,139.5"></path><path id="kity_path_247" fill="none" stroke="gray"></path></g><path id="node_outline27" fill="none" stroke="none" d="M680.5,130.5h252a5,5,0,0,1,5,5v8a5,5,0,0,1,-5,5h-252a5,5,0,0,1,-5,-5v-8a5,5,0,0,1,5,-5z" stroke-width="3"></path><g id="node_text27" fill="#ff0000"><text id="kity_text_137" text-rendering="inherit" font-size="12" dy=".8em" y="133.5" x="680.5">-s 文件内容长度是否不为0 &#xa0; if [[ &#xa0;-s "filename" ]]</text></g></g><g id="minder_node29"><g id="node_expander27" style="cursor: pointer;" display="none"><path id="kity_path_249" fill="white" stroke="gray" d="M675.5,165.5A6,6,0,1,1,663.5,165.5A6,6,0,1,1,675.5,165.5"></path><path id="kity_path_250" fill="none" stroke="gray"></path></g><path id="node_outline28" fill="none" stroke="none" d="M680.5,156.5h243a5,5,0,0,1,5,5v8a5,5,0,0,1,-5,5h-243a5,5,0,0,1,-5,-5v-8a5,5,0,0,1,5,-5z" stroke-width="3"></path><g id="node_text28" fill="black"><text id="kity_text_139" text-rendering="inherit" font-size="12" dy=".8em" y="159.5" x="680.5">-d director 检测是否为目录 if [[ &#xa0;-d "name" ]]</text></g></g><g id="minder_node31"><g id="node_expander30" style="cursor: pointer;" display="none"><path id="kity_path_268" fill="white" stroke="gray" d="M675.5,191.5A6,6,0,1,1,663.5,191.5A6,6,0,1,1,675.5,191.5"></path><path id="kity_path_269" fill="none" stroke="gray"></path></g><path id="node_outline31" fill="none" stroke="none" d="M680.5,182.5h107a5,5,0,0,1,5,5v8a5,5,0,0,1,-5,5h-107a5,5,0,0,1,-5,-5v-8a5,5,0,0,1,5,-5z" stroke-width="3"></path><g id="node_text31" fill="black"><text id="kity_text_265" text-rendering="inherit" font-size="12" dy=".8em" y="185.5" x="680.5">-r 文件是否有读权限</text></g></g><g id="minder_node32"><g id="node_expander31" style="cursor: pointer;" display="none"><path id="kity_path_276" fill="white" stroke="gray" d="M675.5,217.5A6,6,0,1,1,663.5,217.5A6,6,0,1,1,675.5,217.5"></path><path id="kity_path_277" fill="none" stroke="gray"></path></g><path id="node_outline32" fill="none" stroke="none" d="M680.5,208.5h113a5,5,0,0,1,5,5v8a5,5,0,0,1,-5,5h-113a5,5,0,0,1,-5,-5v-8a5,5,0,0,1,5,-5z" stroke-width="3"></path><g id="node_text32" fill="black"><text id="kity_text_273" text-rendering="inherit" font-size="12" dy=".8em" y="211.5" x="680.5">-w 文件是否有写权限</text></g></g><g id="minder_node33"><g id="node_expander32" style="cursor: pointer;" display="none"><path id="kity_path_284" fill="white" stroke="gray" d="M675.5,243.5A6,6,0,1,1,663.5,243.5A6,6,0,1,1,675.5,243.5"></path><path id="kity_path_285" fill="none" stroke="gray"></path></g><path id="node_outline33" fill="none" stroke="none" d="M680.5,234.5h121a5,5,0,0,1,5,5v8a5,5,0,0,1,-5,5h-121a5,5,0,0,1,-5,-5v-8a5,5,0,0,1,5,-5z" stroke-width="3"></path><g id="node_text33" fill="black"><text id="kity_text_281" text-rendering="inherit" font-size="12" dy=".8em" y="237.5" x="680.5">-x 文件是否有执行权限</text></g></g><g id="minder_node34"><g id="node_expander33" style="cursor: pointer;" display="none"><path id="kity_path_292" fill="white" stroke="gray" d="M356.5,269.5A6,6,0,1,1,344.5,269.5A6,6,0,1,1,356.5,269.5"></path><path id="kity_path_293" fill="none" stroke="gray"></path></g><path id="node_outline34" fill="none" stroke="none" d="M361.5,260.5h60a5,5,0,0,1,5,5v8a5,5,0,0,1,-5,5h-60a5,5,0,0,1,-5,-5v-8a5,5,0,0,1,5,-5z" stroke-width="3"></path><g id="node_text34" fill="black"><text id="kity_text_289" text-rendering="inherit" font-size="12" dy=".8em" y="263.5" x="361.5">? &#xa0;单个通配</text></g></g><g id="minder_node35"><g id="node_expander34" style="cursor: pointer;" display="none"><path id="kity_path_300" fill="white" stroke="gray" d="M356.5,295.5A6,6,0,1,1,344.5,295.5A6,6,0,1,1,356.5,295.5"></path><path id="kity_path_301" fill="none" stroke="gray"></path></g><path id="node_outline35" fill="none" stroke="none" d="M361.5,286.5h230a5,5,0,0,1,5,5v8a5,5,0,0,1,-5,5h-230a5,5,0,0,1,-5,-5v-8a5,5,0,0,1,5,-5z" stroke-width="3"></path><g id="node_text35" fill="black"><text id="kity_text_297" text-rendering="inherit" font-size="12" dy=".8em" y="289.5" x="361.5">字符串长度是否为0(""=true) &#xa0;&#xa0;if [[ &#xa0;-z "$a" &#xa0;]]</text></g></g><g id="minder_node36"><g id="node_expander38" style="cursor: pointer;"><path id="kity_path_332" fill="white" stroke="gray" d="M993.5,59.5A6,6,0,1,1,981.5,59.5A6,6,0,1,1,993.5,59.5"></path><path id="kity_path_333" fill="none" stroke="gray" d="M983,59.5L992,59.5"></path></g><path id="node_outline39" fill="rgb(238, 243, 246)" stroke="rgb(115, 161, 191)" d="M956.5,66.5h62a3,3,0,0,1,3,3v20a3,3,0,0,1,-3,3h-62a3,3,0,0,1,-3,-3v-20a3,3,0,0,1,3,-3z" stroke-width="1"></path><g id="node_text39" fill="black"><text id="kity_text_317" text-rendering="inherit" font-size="14" dy=".8em" y="72.5" x="973.5">逻辑</text></g></g><g id="minder_node37"><g id="node_expander35" style="cursor: pointer;" display="none"><path id="kity_path_323" fill="white" stroke="gray" d="M981.5,113.5A6,6,0,1,1,969.5,113.5A6,6,0,1,1,981.5,113.5"></path><path id="kity_path_324" fill="none" stroke="gray"></path></g><path id="node_outline36" fill="none" stroke="none" d="M986.5,104.5h139a5,5,0,0,1,5,5v8a5,5,0,0,1,-5,5h-139a5,5,0,0,1,-5,-5v-8a5,5,0,0,1,5,-5z"></path><g id="node_text36" fill="black"><text id="kity_text_311" text-rendering="inherit" font-size="12" dy=".8em" y="107.5" x="986.5">&amp;&amp; &#xa0;[[ -z "$c" &amp;&amp; -z "$b" ]]</text></g></g><g id="minder_node38"><g id="node_expander36" style="cursor: pointer;" display="none"><path id="kity_path_326" fill="white" stroke="gray" d="M981.5,139.5A6,6,0,1,1,969.5,139.5A6,6,0,1,1,981.5,139.5"></path><path id="kity_path_327" fill="none" stroke="gray"></path></g><path id="node_outline37" fill="none" stroke="none" d="M986.5,130.5h11a5,5,0,0,1,5,5v8a5,5,0,0,1,-5,5h-11a5,5,0,0,1,-5,-5v-8a5,5,0,0,1,5,-5z"></path><g id="node_text37" fill="black"><text id="kity_text_313" text-rendering="inherit" font-size="12" dy=".8em" y="133.5" x="986.5">||</text></g></g><g id="minder_node39"><g id="node_expander37" style="cursor: pointer;" display="none"><path id="kity_path_329" fill="white" stroke="gray" d="M981.5,165.5A6,6,0,1,1,969.5,165.5A6,6,0,1,1,981.5,165.5"></path><path id="kity_path_330" fill="none" stroke="gray"></path></g><path id="node_outline38" fill="none" stroke="none" d="M986.5,156.5h79a5,5,0,0,1,5,5v8a5,5,0,0,1,-5,5h-79a5,5,0,0,1,-5,-5v-8a5,5,0,0,1,5,-5z"></path><g id="node_text38" fill="black"><text id="kity_text_315" text-rendering="inherit" font-size="12" dy=".8em" y="159.5" x="986.5">! &#xa0;&#xa0;[[ ! -z "$a" &#xa0;]]</text></g></g><g id="minder_node40"><g id="node_expander39" style="cursor: pointer;" display="none"><path id="kity_path_340" fill="white" stroke="gray" d="M356.5,330.5A6,6,0,1,1,344.5,330.5A6,6,0,1,1,356.5,330.5"></path><path id="kity_path_341" fill="none" stroke="gray"></path></g><path id="node_outline40" fill="none" stroke="none" d="M361.5,312.5h271a5,5,0,0,1,5,5v26a5,5,0,0,1,-5,5h-271a5,5,0,0,1,-5,-5v-26a5,5,0,0,1,5,-5z" stroke-width="3"></path><g id="node_text40" fill="black"><text id="kity_text_337" text-rendering="inherit" font-size="12" dy=".8em" y="315.5" x="361.5">字符串是否为空(" &#xa0;"=true) </text><text id="kity_text_343" text-rendering="inherit" font-size="12" dy=".8em" y="333.5" x="361.5"> str="$(echo "$c" | tr -d '[:space:]')" &#xa0; if [[ -z "$str" ]]</text></g></g></g></g></svg>